<?xml version="1.0" standalone="no"?>
 <!DOCTYPE svg PUBLIC "-//W3C//DTD SVG 1.1//EN" 
 "http://www.w3.org/Graphics/SVG/1.1/DTD/svg11.dtd"> 
<svg
  xmlns:svg="http://www.w3.org/2000/svg"
  xmlns="http://www.w3.org/2000/svg"
  xmlns:xlink="http://www.w3.org/1999/xlink"
  version="1.1"
  width="27.1272mm" height="48.3362mm" viewBox="0.0000 0.0000 27.1272 48.3362">
<title>SVG Image created as d_SMD-B_Cu.svg date 2024/06/09 23:06:13 </title>
  <desc>Image generated by PCBNEW </desc>
<g style="fill:#000000; fill-opacity:1.0000;stroke:#000000; stroke-opacity:1.0000;
stroke-linecap:round; stroke-linejoin:round;"
 transform="translate(0 0) scale(1 1)">
<path style="fill:none; 
stroke:#000000; stroke-width:0.4000; stroke-opacity:1; 
stroke-linecap:round; stroke-linejoin:round;fill:none"
d="M 26.9272,0.2000
0.1772,0.2000
0.1772,48.1400
26.9272,48.1400
Z" /> 
</g>
<g style="fill:none; 
stroke:#000000; stroke-width:0.5000; stroke-opacity:1; 
stroke-linecap:round; stroke-linejoin:round;">
<text x="13.2272" y="47.1800"
textLength="3.5762" font-size="2.6667" lengthAdjust="spacingAndGlyphs"
text-anchor="start" opacity="0">-</text>
<g class="stroked-text"><desc>-</desc>
<path d="M14.0323 46.1473
L15.5561 46.1473
" />
</g><text x="10.8272" y="47.1800"
textLength="3.5762" font-size="2.6667" lengthAdjust="spacingAndGlyphs"
text-anchor="start" opacity="0">+</text>
<g class="stroked-text"><desc>+</desc>
<path d="M11.6323 46.1473
L13.1561 46.1473
" />
<path d="M12.3942 46.9092
L12.3942 45.3854
" />
</g><path style="fill:#000000; fill-opacity:1.0000; stroke:none;fill-rule:evenodd;"
d="M 21.3834,34.2175
21.4672,34.2008
21.5381,34.1534
21.5855,34.0825
21.6022,33.9988
21.6022,33.5613
21.5855,33.4775
21.5381,33.4066
21.4672,33.3592
21.3834,33.3425
20.8710,33.3425
20.7872,33.3592
20.7163,33.4066
20.6689,33.4775
20.6522,33.5613
20.6522,33.9988
20.6689,34.0825
20.7163,34.1534
20.7872,34.2008
20.8710,34.2175
Z" /> 
<path style="fill:#000000; fill-opacity:1.0000; stroke:none;fill-rule:evenodd;"
d="M 21.3834,36.1175
21.4672,36.1008
21.5381,36.0534
21.5855,35.9825
21.6022,35.8987
21.6022,35.4612
21.5855,35.3775
21.5381,35.3066
21.4672,35.2592
21.3834,35.2425
20.8710,35.2425
20.7872,35.2592
20.7163,35.3066
20.6689,35.3775
20.6522,35.4612
20.6522,35.8987
20.6689,35.9825
20.7163,36.0534
20.7872,36.1008
20.8710,36.1175
Z" /> 
<path style="fill:#000000; fill-opacity:1.0000; stroke:none;fill-rule:evenodd;"
d="M 20.6709,37.0425
20.5872,37.0592
20.5163,37.1066
20.4689,37.1775
20.4522,37.2612
20.4522,37.6987
20.4689,37.7825
20.5163,37.8534
20.5872,37.9008
20.6709,37.9175
21.1835,37.9175
21.2672,37.9008
21.3381,37.8534
21.3855,37.7825
21.4022,37.6987
21.4022,37.2612
21.3855,37.1775
21.3381,37.1066
21.2672,37.0592
21.1835,37.0425
Z" /> 
<path style="fill:#000000; fill-opacity:1.0000; stroke:none;fill-rule:evenodd;"
d="M 20.7709,38.7425
20.6872,38.7592
20.6163,38.8066
20.5689,38.8775
20.5522,38.9612
20.5522,39.3987
20.5689,39.4825
20.6163,39.5534
20.6872,39.6008
20.7709,39.6175
21.2834,39.6175
21.3672,39.6008
21.4381,39.5534
21.4855,39.4825
21.5022,39.3987
21.5022,38.9612
21.4855,38.8775
21.4381,38.8066
21.3672,38.7592
21.2834,38.7425
Z" /> 
<path style="fill:#000000; fill-opacity:1.0000; stroke:none;fill-rule:evenodd;"
d="M 5.3709,39.6425
5.2872,39.6592
5.2163,39.7066
5.1689,39.7775
5.1522,39.8612
5.1522,40.2987
5.1689,40.3825
5.2163,40.4534
5.2872,40.5008
5.3709,40.5175
5.8834,40.5175
5.9672,40.5008
6.0381,40.4534
6.0855,40.3825
6.1022,40.2987
6.1022,39.8612
6.0855,39.7775
6.0381,39.7066
5.9672,39.6592
5.8834,39.6425
Z" /> 
<path style="fill:#000000; fill-opacity:1.0000; stroke:none;fill-rule:evenodd;"
d="M 5.8834,36.4175
5.9672,36.4008
6.0381,36.3534
6.0855,36.2825
6.1022,36.1987
6.1022,35.7612
6.0855,35.6775
6.0381,35.6066
5.9672,35.5592
5.8834,35.5425
5.3709,35.5425
5.2872,35.5592
5.2163,35.6066
5.1689,35.6775
5.1522,35.7612
5.1522,36.1987
5.1689,36.2825
5.2163,36.3534
5.2872,36.4008
5.3709,36.4175
Z" /> 
<path style="fill:#000000; fill-opacity:1.0000; stroke:none;fill-rule:evenodd;"
d="M 5.8834,34.5175
5.9672,34.5008
6.0381,34.4534
6.0855,34.3825
6.1022,34.2987
6.1022,33.8612
6.0855,33.7775
6.0381,33.7066
5.9672,33.6592
5.8834,33.6425
5.3709,33.6425
5.2872,33.6592
5.2163,33.7066
5.1689,33.7775
5.1522,33.8612
5.1522,34.2987
5.1689,34.3825
5.2163,34.4534
5.2872,34.5008
5.3709,34.5175
Z" /> 
<path style="fill:#000000; fill-opacity:1.0000; stroke:none;fill-rule:evenodd;"
d="M 11.4272,37.9200
12.9272,37.9200
12.9272,36.4200
11.4272,36.4200
Z" /> 
</g>
<g style="fill:#000000; fill-opacity:1.0000; stroke:none;">
<circle cx="14.7172" cy="37.1700" r="0.7500" /> 
<path style="fill:#000000; fill-opacity:1.0000; stroke:none;fill-rule:evenodd;"
d="M 20.2334,36.1950
20.3172,36.1783
20.3881,36.1309
20.4355,36.0600
20.4522,35.9763
20.4522,35.5388
20.4355,35.4550
20.3881,35.3841
20.3172,35.3367
20.2334,35.3200
19.7209,35.3200
19.6372,35.3367
19.5663,35.3841
19.5189,35.4550
19.5022,35.5388
19.5022,35.9763
19.5189,36.0600
19.5663,36.1309
19.6372,36.1783
19.7209,36.1950
Z" /> 
<path style="fill:#000000; fill-opacity:1.0000; stroke:none;fill-rule:evenodd;"
d="M 20.2334,34.6200
20.3172,34.6033
20.3881,34.5559
20.4355,34.4850
20.4522,34.4012
20.4522,33.9637
20.4355,33.8800
20.3881,33.8091
20.3172,33.7617
20.2334,33.7450
19.7209,33.7450
19.6372,33.7617
19.5663,33.8091
19.5189,33.8800
19.5022,33.9637
19.5022,34.4012
19.5189,34.4850
19.5663,34.5559
19.6372,34.6033
19.7209,34.6200
Z" /> 
<path style="fill:#000000; fill-opacity:1.0000; stroke:none;fill-rule:evenodd;"
d="M 19.5235,39.0625
19.4397,39.0792
19.3688,39.1266
19.3214,39.1975
19.3047,39.2812
19.3047,39.7188
19.3214,39.8025
19.3688,39.8734
19.4397,39.9208
19.5235,39.9375
20.0359,39.9375
20.1197,39.9208
20.1906,39.8734
20.2380,39.8025
20.2547,39.7188
20.2547,39.2812
20.2380,39.1975
20.1906,39.1266
20.1197,39.0792
20.0359,39.0625
Z" /> 
<path style="fill:#000000; fill-opacity:1.0000; stroke:none;fill-rule:evenodd;"
d="M 19.5235,37.4875
19.4397,37.5042
19.3688,37.5516
19.3214,37.6225
19.3047,37.7062
19.3047,38.1437
19.3214,38.2275
19.3688,38.2984
19.4397,38.3458
19.5235,38.3625
20.0359,38.3625
20.1197,38.3458
20.1906,38.2984
20.2380,38.2275
20.2547,38.1437
20.2547,37.7062
20.2380,37.6225
20.1906,37.5516
20.1197,37.5042
20.0359,37.4875
Z" /> 
<path style="fill:#000000; fill-opacity:1.0000; stroke:none;fill-rule:evenodd;"
d="M 6.6410,39.2400
6.5572,39.2567
6.4863,39.3041
6.4389,39.3750
6.4222,39.4587
6.4222,39.8962
6.4389,39.9800
6.4863,40.0509
6.5572,40.0983
6.6410,40.1150
7.1534,40.1150
7.2372,40.0983
7.3081,40.0509
7.3555,39.9800
7.3722,39.8962
7.3722,39.4587
7.3555,39.3750
7.3081,39.3041
7.2372,39.2567
7.1534,39.2400
Z" /> 
<path style="fill:#000000; fill-opacity:1.0000; stroke:none;fill-rule:evenodd;"
d="M 5.3709,37.4425
5.2872,37.4592
5.2163,37.5066
5.1689,37.5775
5.1522,37.6612
5.1522,38.0987
5.1689,38.1825
5.2163,38.2534
5.2872,38.3008
5.3709,38.3175
5.8834,38.3175
5.9672,38.3008
6.0381,38.2534
6.0855,38.1825
6.1022,38.0987
6.1022,37.6612
6.0855,37.5775
6.0381,37.5066
5.9672,37.4592
5.8834,37.4425
Z" /> 
<path style="fill:#000000; fill-opacity:1.0000; stroke:none;fill-rule:evenodd;"
d="M 8.9734,36.3075
9.0572,36.2908
9.1281,36.2434
9.1755,36.1725
9.1922,36.0887
9.1922,35.6512
9.1755,35.5675
9.1281,35.4966
9.0572,35.4492
8.9734,35.4325
8.4610,35.4325
8.3772,35.4492
8.3063,35.4966
8.2589,35.5675
8.2422,35.6512
8.2422,36.0887
8.2589,36.1725
8.3063,36.2434
8.3772,36.2908
8.4610,36.3075
Z" /> 
<path style="fill:#000000; fill-opacity:1.0000; stroke:none;fill-rule:evenodd;"
d="M 8.9734,34.7325
9.0572,34.7158
9.1281,34.6684
9.1755,34.5975
9.1922,34.5138
9.1922,34.0763
9.1755,33.9925
9.1281,33.9216
9.0572,33.8742
8.9734,33.8575
8.4610,33.8575
8.3772,33.8742
8.3063,33.9216
8.2589,33.9925
8.2422,34.0763
8.2422,34.5138
8.2589,34.5975
8.3063,34.6684
8.3772,34.7158
8.4610,34.7325
Z" /> 
<circle cx="7.4372" cy="20.1400" r="0.7500" /> 
</g>
<g style="fill:#000000; fill-opacity:1.0000; stroke:none;">
<circle cx="7.4372" cy="17.6000" r="0.7500" /> 
</g>
<g style="fill:#000000; fill-opacity:1.0000; stroke:none;">
<circle cx="7.4372" cy="15.0600" r="0.7500" /> 
</g>
<g style="fill:#000000; fill-opacity:1.0000; stroke:none;">
<circle cx="7.4372" cy="12.5200" r="0.7500" /> 
</g>
<g style="fill:#000000; fill-opacity:1.0000; stroke:none;">
<circle cx="7.4372" cy="9.9800" r="0.7500" /> 
</g>
<g style="fill:#000000; fill-opacity:1.0000; stroke:none;">
<circle cx="7.4372" cy="7.4400" r="0.7500" /> 
</g>
<g style="fill:#000000; fill-opacity:1.0000; stroke:none;">
<circle cx="7.4372" cy="4.9000" r="0.7500" /> 
</g>
<g style="fill:#000000; fill-opacity:1.0000; stroke:none;">
<circle cx="7.4372" cy="2.3600" r="0.7500" /> 
<path style="fill:#000000; fill-opacity:1.0000; stroke:none;fill-rule:evenodd;"
d="M 25.8272,3.5800
25.8272,2.0800
24.3272,2.0800
24.3272,3.5800
Z" /> 
</g>
<g style="fill:#000000; fill-opacity:1.0000; stroke:none;">
<circle cx="25.0772" cy="5.3700" r="0.7500" /> 
<circle cx="25.0772" cy="7.9100" r="0.7500" /> 
<circle cx="25.0772" cy="10.4500" r="0.7500" /> 
<circle cx="25.0772" cy="12.9900" r="0.7500" /> 
<circle cx="25.0772" cy="15.5300" r="0.7500" /> 
<circle cx="25.0772" cy="18.0700" r="0.7500" /> 
<circle cx="25.0772" cy="20.6100" r="0.7500" /> 
<circle cx="25.0772" cy="23.1500" r="0.7500" /> 
<circle cx="25.0772" cy="25.6900" r="0.7500" /> 
<circle cx="25.0772" cy="28.2300" r="0.7500" /> 
<circle cx="25.0772" cy="30.7700" r="0.7500" /> 
<circle cx="25.0772" cy="33.3100" r="0.7500" /> 
<circle cx="25.0772" cy="35.8500" r="0.7500" /> 
<circle cx="25.0772" cy="38.3900" r="0.7500" /> 
<circle cx="25.0772" cy="40.9300" r="0.7500" /> 
<circle cx="25.0772" cy="43.4700" r="0.7500" /> 
<circle cx="25.0772" cy="46.0100" r="0.7500" /> 
<path style="fill:#000000; fill-opacity:1.0000; stroke:none;fill-rule:evenodd;"
d="M 2.7272,3.5600
2.7272,2.0600
1.2272,2.0600
1.2272,3.5600
Z" /> 
<circle cx="1.9772" cy="5.3500" r="0.7500" /> 
<circle cx="1.9772" cy="7.8900" r="0.7500" /> 
<circle cx="1.9772" cy="10.4300" r="0.7500" /> 
<circle cx="1.9772" cy="12.9700" r="0.7500" /> 
<circle cx="1.9772" cy="15.5100" r="0.7500" /> 
<circle cx="1.9772" cy="18.0500" r="0.7500" /> 
<circle cx="1.9772" cy="20.5900" r="0.7500" /> 
<circle cx="1.9772" cy="23.1300" r="0.7500" /> 
<circle cx="1.9772" cy="25.6700" r="0.7500" /> 
<circle cx="1.9772" cy="28.2100" r="0.7500" /> 
<circle cx="1.9772" cy="30.7500" r="0.7500" /> 
<circle cx="1.9772" cy="33.2900" r="0.7500" /> 
<circle cx="1.9772" cy="35.8300" r="0.7500" /> 
<circle cx="1.9772" cy="38.3700" r="0.7500" /> 
<circle cx="1.9772" cy="40.9100" r="0.7500" /> 
<circle cx="1.9772" cy="43.4500" r="0.7500" /> 
<circle cx="1.9772" cy="45.9900" r="0.7500" /> 
<path style="fill:#000000; fill-opacity:1.0000; stroke:none;fill-rule:evenodd;"
d="M 6.8272,41.5400
7.6272,41.5400
7.6272,40.6400
6.8272,40.6400
Z" /> 
<path style="fill:#000000; fill-opacity:1.0000; stroke:none;fill-rule:evenodd;"
d="M 5.8772,43.8400
6.6772,43.8400
6.6772,42.9400
5.8772,42.9400
Z" /> 
<path style="fill:#000000; fill-opacity:1.0000; stroke:none;fill-rule:evenodd;"
d="M 7.7772,43.8400
8.5772,43.8400
8.5772,42.9400
7.7772,42.9400
Z" /> 
<path style="fill:#000000; fill-opacity:1.0000; stroke:none;fill-rule:evenodd;"
d="M 17.6285,37.6075
17.5486,37.6234
17.4808,37.6686
17.4356,37.7364
17.4197,37.8162
17.4197,38.2338
17.4356,38.3136
17.4808,38.3814
17.5486,38.4266
17.6285,38.4425
18.4909,38.4425
18.5708,38.4266
18.6386,38.3814
18.6838,38.3136
18.6997,38.2338
18.6997,37.8162
18.6838,37.7364
18.6386,37.6686
18.5708,37.6234
18.4909,37.6075
Z" /> 
<path style="fill:#000000; fill-opacity:1.0000; stroke:none;fill-rule:evenodd;"
d="M 17.6285,38.8625
17.5486,38.8784
17.4808,38.9236
17.4356,38.9914
17.4197,39.0712
17.4197,39.4887
17.4356,39.5686
17.4808,39.6364
17.5486,39.6816
17.6285,39.6975
18.4909,39.6975
18.5708,39.6816
18.6386,39.6364
18.6838,39.5686
18.6997,39.4887
18.6997,39.0712
18.6838,38.9914
18.6386,38.9236
18.5708,38.8784
18.4909,38.8625
Z" /> 
<path style="fill:#000000; fill-opacity:1.0000; stroke:none;fill-rule:evenodd;"
d="M 8.9734,36.3075
9.0572,36.2908
9.1281,36.2434
9.1755,36.1725
9.1922,36.0887
9.1922,35.6512
9.1755,35.5675
9.1281,35.4966
9.0572,35.4492
8.9734,35.4325
8.4610,35.4325
8.3772,35.4492
8.3063,35.4966
8.2589,35.5675
8.2422,35.6512
8.2422,36.0887
8.2589,36.1725
8.3063,36.2434
8.3772,36.2908
8.4610,36.3075
Z" /> 
<path style="fill:#000000; fill-opacity:1.0000; stroke:none;fill-rule:evenodd;"
d="M 8.9734,34.7325
9.0572,34.7158
9.1281,34.6684
9.1755,34.5975
9.1922,34.5138
9.1922,34.0763
9.1755,33.9925
9.1281,33.9216
9.0572,33.8742
8.9734,33.8575
8.4610,33.8575
8.3772,33.8742
8.3063,33.9216
8.2589,33.9925
8.2422,34.0763
8.2422,34.5138
8.2589,34.5975
8.3063,34.6684
8.3772,34.7158
8.4610,34.7325
Z" /> 
<path style="fill:#000000; fill-opacity:1.0000; stroke:none;fill-rule:evenodd;"
d="M 17.0522,45.1225
17.0674,45.1990
17.1108,45.2639
17.1757,45.3073
17.2522,45.3225
17.6522,45.3225
17.7287,45.3073
17.7936,45.2639
17.8370,45.1990
17.8522,45.1225
17.8522,44.5725
17.8370,44.4960
17.7936,44.4311
17.7287,44.3877
17.6522,44.3725
17.2522,44.3725
17.1757,44.3877
17.1108,44.4311
17.0674,44.4960
17.0522,44.5725
Z" /> 
<path style="fill:#000000; fill-opacity:1.0000; stroke:none;fill-rule:evenodd;"
d="M 18.7022,45.1225
18.7174,45.1990
18.7608,45.2639
18.8257,45.3073
18.9022,45.3225
19.3022,45.3225
19.3787,45.3073
19.4436,45.2639
19.4870,45.1990
19.5022,45.1225
19.5022,44.5725
19.4870,44.4960
19.4436,44.4311
19.3787,44.3877
19.3022,44.3725
18.9022,44.3725
18.8257,44.3877
18.7608,44.4311
18.7174,44.4960
18.7022,44.5725
Z" /> 
<path style="fill:#000000; fill-opacity:1.0000; stroke:none;fill-rule:evenodd;"
d="M 19.5235,37.4875
19.4397,37.5042
19.3688,37.5516
19.3214,37.6225
19.3047,37.7062
19.3047,38.1437
19.3214,38.2275
19.3688,38.2984
19.4397,38.3458
19.5235,38.3625
20.0359,38.3625
20.1197,38.3458
20.1906,38.2984
20.2380,38.2275
20.2547,38.1437
20.2547,37.7062
20.2380,37.6225
20.1906,37.5516
20.1197,37.5042
20.0359,37.4875
Z" /> 
<path style="fill:#000000; fill-opacity:1.0000; stroke:none;fill-rule:evenodd;"
d="M 19.5235,39.0625
19.4397,39.0792
19.3688,39.1266
19.3214,39.1975
19.3047,39.2812
19.3047,39.7188
19.3214,39.8025
19.3688,39.8734
19.4397,39.9208
19.5235,39.9375
20.0359,39.9375
20.1197,39.9208
20.1906,39.8734
20.2380,39.8025
20.2547,39.7188
20.2547,39.2812
20.2380,39.1975
20.1906,39.1266
20.1197,39.0792
20.0359,39.0625
Z" /> 
<path style="fill:#000000; fill-opacity:1.0000; stroke:none;fill-rule:evenodd;"
d="M 9.8022,28.8050
9.7870,28.7285
9.7436,28.6636
9.6787,28.6202
9.6022,28.6050
9.2022,28.6050
9.1257,28.6202
9.0608,28.6636
9.0174,28.7285
9.0022,28.8050
9.0022,29.3550
9.0174,29.4315
9.0608,29.4964
9.1257,29.5398
9.2022,29.5550
9.6022,29.5550
9.6787,29.5398
9.7436,29.4964
9.7870,29.4315
9.8022,29.3550
Z" /> 
<path style="fill:#000000; fill-opacity:1.0000; stroke:none;fill-rule:evenodd;"
d="M 8.1522,28.8050
8.1370,28.7285
8.0936,28.6636
8.0287,28.6202
7.9522,28.6050
7.5522,28.6050
7.4757,28.6202
7.4108,28.6636
7.3674,28.7285
7.3522,28.8050
7.3522,29.3550
7.3674,29.4315
7.4108,29.4964
7.4757,29.5398
7.5522,29.5550
7.9522,29.5550
8.0287,29.5398
8.0936,29.4964
8.1370,29.4315
8.1522,29.3550
Z" /> 
<path style="fill:#000000; fill-opacity:1.0000; stroke:none;fill-rule:evenodd;"
d="M 7.5084,36.1075
7.5883,36.0916
7.6561,36.0464
7.7013,35.9786
7.7172,35.8987
7.7172,35.4812
7.7013,35.4014
7.6561,35.3336
7.5883,35.2884
7.5084,35.2725
6.6460,35.2725
6.5661,35.2884
6.4983,35.3336
6.4531,35.4014
6.4372,35.4812
6.4372,35.8987
6.4531,35.9786
6.4983,36.0464
6.5661,36.0916
6.6460,36.1075
Z" /> 
<path style="fill:#000000; fill-opacity:1.0000; stroke:none;fill-rule:evenodd;"
d="M 7.5084,34.8525
7.5883,34.8366
7.6561,34.7914
7.7013,34.7236
7.7172,34.6437
7.7172,34.2263
7.7013,34.1464
7.6561,34.0786
7.5883,34.0334
7.5084,34.0175
6.6460,34.0175
6.5661,34.0334
6.4983,34.0786
6.4531,34.1464
6.4372,34.2263
6.4372,34.6437
6.4531,34.7236
6.4983,34.7914
6.5661,34.8366
6.6460,34.8525
Z" /> 
<path style="fill:#000000; fill-opacity:1.0000; stroke:none;fill-rule:evenodd;"
d="M 12.2922,12.2450
12.2770,12.1685
12.2336,12.1036
12.1687,12.0602
12.0922,12.0450
11.6922,12.0450
11.6157,12.0602
11.5508,12.1036
11.5074,12.1685
11.4922,12.2450
11.4922,12.7950
11.5074,12.8715
11.5508,12.9364
11.6157,12.9798
11.6922,12.9950
12.0922,12.9950
12.1687,12.9798
12.2336,12.9364
12.2770,12.8715
12.2922,12.7950
Z" /> 
<path style="fill:#000000; fill-opacity:1.0000; stroke:none;fill-rule:evenodd;"
d="M 10.6422,12.2450
10.6270,12.1685
10.5836,12.1036
10.5187,12.0602
10.4422,12.0450
10.0422,12.0450
9.9657,12.0602
9.9008,12.1036
9.8574,12.1685
9.8422,12.2450
9.8422,12.7950
9.8574,12.8715
9.9008,12.9364
9.9657,12.9798
10.0422,12.9950
10.4422,12.9950
10.5187,12.9798
10.5836,12.9364
10.6270,12.8715
10.6422,12.7950
Z" /> 
<path style="fill:#000000; fill-opacity:1.0000; stroke:none;fill-rule:evenodd;"
d="M 9.0272,32.4300
8.2272,32.4300
8.2272,33.3300
9.0272,33.3300
Z" /> 
<path style="fill:#000000; fill-opacity:1.0000; stroke:none;fill-rule:evenodd;"
d="M 9.9772,30.1300
9.1772,30.1300
9.1772,31.0300
9.9772,31.0300
Z" /> 
<path style="fill:#000000; fill-opacity:1.0000; stroke:none;fill-rule:evenodd;"
d="M 8.0772,30.1300
7.2772,30.1300
7.2772,31.0300
8.0772,31.0300
Z" /> 
<path style="fill:#000000; fill-opacity:1.0000; stroke:none;fill-rule:evenodd;"
d="M 17.8272,41.5300
18.6272,41.5300
18.6272,40.6300
17.8272,40.6300
Z" /> 
<path style="fill:#000000; fill-opacity:1.0000; stroke:none;fill-rule:evenodd;"
d="M 16.8772,43.8300
17.6772,43.8300
17.6772,42.9300
16.8772,42.9300
Z" /> 
<path style="fill:#000000; fill-opacity:1.0000; stroke:none;fill-rule:evenodd;"
d="M 18.7772,43.8300
19.5772,43.8300
19.5772,42.9300
18.7772,42.9300
Z" /> 
<path style="fill:#000000; fill-opacity:1.0000; stroke:none;fill-rule:evenodd;"
d="M 19.4272,32.4675
18.6272,32.4675
18.6272,33.3675
19.4272,33.3675
Z" /> 
<path style="fill:#000000; fill-opacity:1.0000; stroke:none;fill-rule:evenodd;"
d="M 20.3772,30.1675
19.5772,30.1675
19.5772,31.0675
20.3772,31.0675
Z" /> 
<path style="fill:#000000; fill-opacity:1.0000; stroke:none;fill-rule:evenodd;"
d="M 18.4772,30.1675
17.6772,30.1675
17.6772,31.0675
18.4772,31.0675
Z" /> 
<path style="fill:#000000; fill-opacity:1.0000; stroke:none;fill-rule:evenodd;"
d="M 12.5622,34.8312
12.5781,34.9111
12.6233,34.9789
12.6911,35.0241
12.7709,35.0400
13.1884,35.0400
13.2683,35.0241
13.3361,34.9789
13.3813,34.9111
13.3972,34.8312
13.3972,33.9688
13.3813,33.8889
13.3361,33.8211
13.2683,33.7759
13.1884,33.7600
12.7709,33.7600
12.6911,33.7759
12.6233,33.8211
12.5781,33.8889
12.5622,33.9688
Z" /> 
<path style="fill:#000000; fill-opacity:1.0000; stroke:none;fill-rule:evenodd;"
d="M 13.8172,34.8312
13.8331,34.9111
13.8783,34.9789
13.9461,35.0241
14.0259,35.0400
14.4434,35.0400
14.5233,35.0241
14.5911,34.9789
14.6363,34.9111
14.6522,34.8312
14.6522,33.9688
14.6363,33.8889
14.5911,33.8211
14.5233,33.7759
14.4434,33.7600
14.0259,33.7600
13.9461,33.7759
13.8783,33.8211
13.8331,33.8889
13.8172,33.9688
Z" /> 
<path style="fill:#000000; fill-opacity:1.0000; stroke:none;fill-rule:evenodd;"
d="M 8.1359,37.8550
8.0561,37.8709
7.9883,37.9161
7.9431,37.9839
7.9272,38.0637
7.9272,38.4812
7.9431,38.5611
7.9883,38.6289
8.0561,38.6741
8.1359,38.6900
8.9985,38.6900
9.0783,38.6741
9.1461,38.6289
9.1913,38.5611
9.2072,38.4812
9.2072,38.0637
9.1913,37.9839
9.1461,37.9161
9.0783,37.8709
8.9985,37.8550
Z" /> 
<path style="fill:#000000; fill-opacity:1.0000; stroke:none;fill-rule:evenodd;"
d="M 8.1359,39.1100
8.0561,39.1259
7.9883,39.1711
7.9431,39.2389
7.9272,39.3188
7.9272,39.7362
7.9431,39.8161
7.9883,39.8839
8.0561,39.9291
8.1359,39.9450
8.9985,39.9450
9.0783,39.9291
9.1461,39.8839
9.1913,39.8161
9.2072,39.7362
9.2072,39.3188
9.1913,39.2389
9.1461,39.1711
9.0783,39.1259
8.9985,39.1100
Z" /> 
<path style="fill:#000000; fill-opacity:1.0000; stroke:none;fill-rule:evenodd;"
d="M 12.3822,14.7750
12.3670,14.6985
12.3236,14.6336
12.2587,14.5902
12.1822,14.5750
11.7822,14.5750
11.7057,14.5902
11.6408,14.6336
11.5974,14.6985
11.5822,14.7750
11.5822,15.3250
11.5974,15.4015
11.6408,15.4664
11.7057,15.5098
11.7822,15.5250
12.1822,15.5250
12.2587,15.5098
12.3236,15.4664
12.3670,15.4015
12.3822,15.3250
Z" /> 
<path style="fill:#000000; fill-opacity:1.0000; stroke:none;fill-rule:evenodd;"
d="M 10.7322,14.7750
10.7170,14.6985
10.6736,14.6336
10.6087,14.5902
10.5322,14.5750
10.1322,14.5750
10.0557,14.5902
9.9908,14.6336
9.9474,14.6985
9.9322,14.7750
9.9322,15.3250
9.9474,15.4015
9.9908,15.4664
10.0557,15.5098
10.1322,15.5250
10.5322,15.5250
10.6087,15.5098
10.6736,15.4664
10.7170,15.4015
10.7322,15.3250
Z" /> 
<path style="fill:#000000; fill-opacity:1.0000; stroke:none;fill-rule:evenodd;"
d="M 20.2334,36.1950
20.3172,36.1783
20.3881,36.1309
20.4355,36.0600
20.4522,35.9763
20.4522,35.5388
20.4355,35.4550
20.3881,35.3841
20.3172,35.3367
20.2334,35.3200
19.7209,35.3200
19.6372,35.3367
19.5663,35.3841
19.5189,35.4550
19.5022,35.5388
19.5022,35.9763
19.5189,36.0600
19.5663,36.1309
19.6372,36.1783
19.7209,36.1950
Z" /> 
<path style="fill:#000000; fill-opacity:1.0000; stroke:none;fill-rule:evenodd;"
d="M 20.2334,34.6200
20.3172,34.6033
20.3881,34.5559
20.4355,34.4850
20.4522,34.4012
20.4522,33.9637
20.4355,33.8800
20.3881,33.8091
20.3172,33.7617
20.2334,33.7450
19.7209,33.7450
19.6372,33.7617
19.5663,33.8091
19.5189,33.8800
19.5022,33.9637
19.5022,34.4012
19.5189,34.4850
19.5663,34.5559
19.6372,34.6033
19.7209,34.6200
Z" /> 
<path style="fill:#000000; fill-opacity:1.0000; stroke:none;fill-rule:evenodd;"
d="M 5.8222,45.1450
5.8374,45.2215
5.8808,45.2864
5.9457,45.3298
6.0222,45.3450
6.4222,45.3450
6.4987,45.3298
6.5636,45.2864
6.6070,45.2215
6.6222,45.1450
6.6222,44.5950
6.6070,44.5185
6.5636,44.4536
6.4987,44.4102
6.4222,44.3950
6.0222,44.3950
5.9457,44.4102
5.8808,44.4536
5.8374,44.5185
5.8222,44.5950
Z" /> 
<path style="fill:#000000; fill-opacity:1.0000; stroke:none;fill-rule:evenodd;"
d="M 7.4722,45.1450
7.4874,45.2215
7.5308,45.2864
7.5957,45.3298
7.6722,45.3450
8.0722,45.3450
8.1487,45.3298
8.2136,45.2864
8.2570,45.2215
8.2722,45.1450
8.2722,44.5950
8.2570,44.5185
8.2136,44.4536
8.1487,44.4102
8.0722,44.3950
7.6722,44.3950
7.5957,44.4102
7.5308,44.4536
7.4874,44.5185
7.4722,44.5950
Z" /> 
<path style="fill:#000000; fill-opacity:1.0000; stroke:none;fill-rule:evenodd;"
d="M 20.4822,28.7850
20.4670,28.7085
20.4236,28.6436
20.3587,28.6002
20.2822,28.5850
19.8822,28.5850
19.8057,28.6002
19.7408,28.6436
19.6974,28.7085
19.6822,28.7850
19.6822,29.3350
19.6974,29.4115
19.7408,29.4764
19.8057,29.5198
19.8822,29.5350
20.2822,29.5350
20.3587,29.5198
20.4236,29.4764
20.4670,29.4115
20.4822,29.3350
Z" /> 
<path style="fill:#000000; fill-opacity:1.0000; stroke:none;fill-rule:evenodd;"
d="M 18.8322,28.7850
18.8170,28.7085
18.7736,28.6436
18.7087,28.6002
18.6322,28.5850
18.2322,28.5850
18.1557,28.6002
18.0908,28.6436
18.0474,28.7085
18.0322,28.7850
18.0322,29.3350
18.0474,29.4115
18.0908,29.4764
18.1557,29.5198
18.2322,29.5350
18.6322,29.5350
18.7087,29.5198
18.7736,29.4764
18.8170,29.4115
18.8322,29.3350
Z" /> 
<path style="fill:#000000; fill-opacity:1.0000; stroke:none;fill-rule:evenodd;"
d="M 18.6485,35.9850
18.7283,35.9691
18.7961,35.9239
18.8413,35.8561
18.8572,35.7762
18.8572,35.3588
18.8413,35.2789
18.7961,35.2111
18.7283,35.1659
18.6485,35.1500
17.7859,35.1500
17.7061,35.1659
17.6383,35.2111
17.5931,35.2789
17.5772,35.3588
17.5772,35.7762
17.5931,35.8561
17.6383,35.9239
17.7061,35.9691
17.7859,35.9850
Z" /> 
<path style="fill:#000000; fill-opacity:1.0000; stroke:none;fill-rule:evenodd;"
d="M 18.6485,34.7300
18.7283,34.7141
18.7961,34.6689
18.8413,34.6011
18.8572,34.5213
18.8572,34.1037
18.8413,34.0239
18.7961,33.9561
18.7283,33.9109
18.6485,33.8950
17.7859,33.8950
17.7061,33.9109
17.6383,33.9561
17.5931,34.0239
17.5772,34.1037
17.5772,34.5213
17.5931,34.6011
17.6383,34.6689
17.7061,34.7141
17.7859,34.7300
Z" /> 
<path style="fill:#000000; fill-opacity:1.0000; stroke:none;fill-rule:evenodd;"
d="M 6.6410,37.6650
6.5572,37.6817
6.4863,37.7291
6.4389,37.8000
6.4222,37.8837
6.4222,38.3212
6.4389,38.4050
6.4863,38.4759
6.5572,38.5233
6.6410,38.5400
7.1534,38.5400
7.2372,38.5233
7.3081,38.4759
7.3555,38.4050
7.3722,38.3212
7.3722,37.8837
7.3555,37.8000
7.3081,37.7291
7.2372,37.6817
7.1534,37.6650
Z" /> 
<path style="fill:#000000; fill-opacity:1.0000; stroke:none;fill-rule:evenodd;"
d="M 6.6410,39.2400
6.5572,39.2567
6.4863,39.3041
6.4389,39.3750
6.4222,39.4587
6.4222,39.8962
6.4389,39.9800
6.4863,40.0509
6.5572,40.0983
6.6410,40.1150
7.1534,40.1150
7.2372,40.0983
7.3081,40.0509
7.3555,39.9800
7.3722,39.8962
7.3722,39.4587
7.3555,39.3750
7.3081,39.3041
7.2372,39.2567
7.1534,39.2400
Z" /> 
<circle cx="10.2072" cy="17.6000" r="0.7500" /> 
</g>
<g style="fill:#000000; fill-opacity:1.0000; stroke:none;">
<circle cx="20.5372" cy="44.9600" r="0.7500" /> 
</g>
<g style="fill:#000000; fill-opacity:1.0000; stroke:none;">
<circle cx="10.0272" cy="44.8800" r="0.7500" /> 
</g>
<g style="fill:#000000; fill-opacity:1.0000; stroke:none;">
<circle cx="7.6572" cy="26.4900" r="0.7500" /> 
</g>
<g style="fill:#000000; fill-opacity:1.0000; stroke:none;">
<circle cx="12.3272" cy="23.7800" r="0.7500" /> 
</g>
<g style="fill:#000000; fill-opacity:1.0000; stroke:none;">
<circle cx="4.8272" cy="43.8800" r="0.7500" /> 
</g>
<g style="fill:#000000; fill-opacity:1.0000; stroke:none;">
<circle cx="22.7372" cy="42.2500" r="0.7500" /> 
</g>
<g style="fill:#000000; fill-opacity:1.0000; stroke:none;">
<circle cx="11.9822" cy="16.7900" r="0.7500" /> 
</g>
<g style="fill:none; 
stroke:#000000; stroke-width:0.7000; stroke-opacity:1; 
stroke-linecap:round; stroke-linejoin:round;">
<path d="M7.4372 12.5200
L6.3765 12.5200
" />
<path d="M6.3765 12.5200
L3.9272 14.9693
" />
<path d="M3.9272 14.9693
L3.9272 19.4400
" />
<path d="M3.9272 19.4400
L2.7772 20.5900
" />
<path d="M2.7772 20.5900
L1.9772 20.5900
" />
<path d="M7.4372 15.0600
L6.3765 15.0600
" />
<path d="M6.3765 15.0600
L5.4772 15.9593
" />
<path d="M5.4772 15.9593
L5.4772 22.3170
" />
<path d="M5.4772 22.3170
L2.1242 25.6700
" />
<path d="M2.1242 25.6700
L1.9772 25.6700
" />
</g>
<g style="fill:none; 
stroke:#000000; stroke-width:0.8000; stroke-opacity:1; 
stroke-linecap:round; stroke-linejoin:round;">
<path d="M25.0772 23.1500
L24.0165 23.1500
" />
<path d="M22.8272 24.3393
L22.8272 39.8800
" />
<path d="M24.0165 23.1500
L22.8272 24.3393
" />
<path d="M21.8472 46.9700
L17.8272 46.9700
" />
<path d="M22.8272 39.8800
L21.0272 41.6800
" />
<path d="M21.0272 41.6800
L21.0272 42.9300
" />
<path d="M21.0272 42.9300
L22.3872 44.2900
" />
<path d="M22.3872 44.2900
L22.3872 46.4300
" />
<path d="M22.3872 46.4300
L21.8472 46.9700
" />
<path d="M17.8272 46.9700
L17.4522 46.5950
" />
<path d="M17.4522 46.5950
L17.4522 44.8475
" />
<path d="M21.0272 39.1800
L20.6447 39.5625
" />
<path d="M20.6447 39.5625
L19.7797 39.5625
" />
<path d="M21.1272 33.7800
L20.3172 33.7800
" />
<path d="M20.3172 33.7800
L19.9772 34.1200
" />
<path d="M21.1272 35.6800
L20.9872 35.8200
" />
<path d="M20.9872 35.8200
L19.9772 35.8200
" />
<path d="M20.9272 37.4800
L20.1622 37.4800
" />
<path d="M20.1622 37.4800
L19.7797 37.8625
" />
<path d="M5.6272 40.0800
L6.9872 40.0800
" />
<path d="M6.9872 40.0800
L7.2272 39.8400
" />
<path d="M5.6272 37.8800
L6.7372 37.8800
" />
<path d="M6.7372 37.8800
L6.8972 38.0400
" />
<path d="M5.6272 34.0800
L5.6347 34.0725
" />
<path d="M5.6347 34.0725
L7.0772 34.0725
" />
<path d="M7.7522 26.5850
L7.6572 26.4900
" />
<path d="M7.7522 29.0800
L7.7522 26.5850
" />
<path d="M8.1772 43.3900
L8.1772 44.5650
" />
<path d="M19.1772 43.3800
L19.1772 44.7725
" />
<path d="M18.4772 30.4100
L18.4772 29.1050
" />
</g>
<g style="fill:none; 
stroke:#000000; stroke-width:0.7000; stroke-opacity:1; 
stroke-linecap:round; stroke-linejoin:round;">
<path d="M7.6772 30.5800
L7.6772 29.1550
" />
</g>
<g style="fill:none; 
stroke:#000000; stroke-width:0.8000; stroke-opacity:1; 
stroke-linecap:round; stroke-linejoin:round;">
<path d="M9.4272 45.4800
L9.4272 47.8800
" />
<path d="M17.5697 30.6175
L18.0772 30.6175
" />
<path d="M14.7272 37.1700
L14.7272 33.4600
" />
<path d="M6.9172 46.7400
L2.7272 46.7400
" />
</g>
<g style="fill:none; 
stroke:#000000; stroke-width:0.7000; stroke-opacity:1; 
stroke-linecap:round; stroke-linejoin:round;">
<path d="M7.6772 29.1550
L7.7522 29.0800
" />
</g>
<g style="fill:none; 
stroke:#000000; stroke-width:0.8000; stroke-opacity:1; 
stroke-linecap:round; stroke-linejoin:round;">
<path d="M14.7272 33.4600
L17.5697 30.6175
" />
<path d="M20.5372 44.9600
L19.2147 44.9600
" />
<path d="M18.4772 29.1050
L18.4322 29.0600
" />
<path d="M10.0272 44.8800
L10.0172 44.8700
" />
<path d="M18.0772 30.6175
L18.2697 30.6175
" />
<path d="M19.0372 44.7825
L19.1022 44.8475
" />
<path d="M19.1772 44.7725
L19.1022 44.8475
" />
<path d="M19.2147 44.9600
L19.1022 44.8475
" />
<path d="M8.1772 44.5650
L7.8722 44.8700
" />
<path d="M7.8722 45.7850
L6.9172 46.7400
" />
<path d="M14.7272 37.1700
L14.7272 34.8925
" />
<path d="M10.0172 44.8700
L7.8722 44.8700
" />
<path d="M2.7272 46.7400
L1.9772 45.9900
" />
<path d="M18.0397 30.5800
L18.0772 30.6175
" />
<path d="M14.7272 34.8925
L14.2347 34.4000
" />
<path d="M10.2072 17.6000
L7.4372 17.6000
" />
<path d="M18.2697 30.6175
L18.4772 30.4100
" />
<path d="M7.8722 45.7850
L7.8722 44.8700
" />
<path d="M10.0272 44.8800
L9.4272 45.4800
" />
</g>
<g style="fill:none; 
stroke:#000000; stroke-width:0.7000; stroke-opacity:1; 
stroke-linecap:round; stroke-linejoin:round;">
<path d="M8.6272 34.2050
L8.7172 34.2950
" />
<path d="M8.6272 32.8800
L8.6272 34.2050
" />
</g>
<g style="fill:none; 
stroke:#000000; stroke-width:0.8000; stroke-opacity:1; 
stroke-linecap:round; stroke-linejoin:round;">
<path d="M8.7172 34.2950
L7.2172 34.2950
" />
<path d="M7.2172 34.2950
L7.0772 34.4350
" />
<path d="M6.8972 39.6775
L8.4172 39.6775
" />
<path d="M7.1272 39.7400
L6.8972 39.7400
" />
<path d="M7.2272 41.0900
L7.2272 39.8400
" />
<path d="M7.2272 39.8400
L7.1272 39.7400
" />
<path d="M8.4172 39.6775
L8.5672 39.5275
" />
<path d="M18.0597 40.9125
L18.2272 41.0800
" />
<path d="M19.8272 39.5475
L19.7797 39.5000
" />
<path d="M18.0597 39.2800
L18.0597 40.9125
" />
<path d="M18.0597 39.2800
L19.5597 39.2800
" />
<path d="M19.5597 39.2800
L19.7797 39.5000
" />
<path d="M19.0272 32.9175
L19.0272 33.9500
" />
<path d="M18.3472 34.1825
L18.2172 34.3125
" />
<path d="M19.4272 34.1825
L18.3472 34.1825
" />
<path d="M19.9772 34.1825
L19.4272 34.1825
" />
<path d="M19.5272 34.0825
L19.4272 34.1825
" />
<path d="M18.0272 34.1225
L18.2172 34.3125
" />
<path d="M19.9772 35.7575
L18.4072 35.7575
" />
<path d="M18.0597 38.0250
L18.8272 38.0250
" />
<path d="M15.1272 39.5800
L16.6822 38.0250
" />
</g>
<g style="fill:none; 
stroke:#000000; stroke-width:1.2000; stroke-opacity:1; 
stroke-linecap:round; stroke-linejoin:round;">
<path d="M13.0472 39.5800
L14.8272 39.5800
" />
<path d="M12.1872 37.1700
L9.6697 37.1700
" />
</g>
<g style="fill:none; 
stroke:#000000; stroke-width:0.8000; stroke-opacity:1; 
stroke-linecap:round; stroke-linejoin:round;">
<path d="M6.8972 38.1025
L8.3972 38.1025
" />
<path d="M8.7172 35.8700
L7.2572 35.8700
" />
<path d="M5.5047 38.1025
L4.1272 39.4800
" />
<path d="M18.4072 35.7575
L18.2172 35.5675
" />
<path d="M7.2572 35.8700
L7.0772 35.6900
" />
<path d="M4.1272 39.4800
L4.1272 42.1800
" />
</g>
<g style="fill:none; 
stroke:#000000; stroke-width:1.2000; stroke-opacity:1; 
stroke-linecap:round; stroke-linejoin:round;">
<path d="M12.1872 38.7200
L13.0472 39.5800
" />
</g>
<g style="fill:none; 
stroke:#000000; stroke-width:0.8000; stroke-opacity:1; 
stroke-linecap:round; stroke-linejoin:round;">
<path d="M9.6697 37.1700
L8.5672 38.2725
" />
<path d="M16.6822 38.0250
L18.0597 38.0250
" />
<path d="M4.1272 42.1800
L2.8572 43.4500
" />
<path d="M18.8272 38.0250
L18.8272 35.9300
" />
<path d="M12.1872 35.1925
L12.9797 34.4000
" />
<path d="M6.8972 38.1025
L5.5047 38.1025
" />
</g>
<g style="fill:none; 
stroke:#000000; stroke-width:1.2000; stroke-opacity:1; 
stroke-linecap:round; stroke-linejoin:round;">
<path d="M12.1872 37.1700
L12.1872 38.7200
" />
</g>
<g style="fill:none; 
stroke:#000000; stroke-width:0.8000; stroke-opacity:1; 
stroke-linecap:round; stroke-linejoin:round;">
<path d="M2.8572 43.4500
L1.9772 43.4500
" />
</g>
<g style="fill:none; 
stroke:#000000; stroke-width:1.2000; stroke-opacity:1; 
stroke-linecap:round; stroke-linejoin:round;">
<path d="M12.1872 37.1700
L12.1872 35.1925
" />
</g>
<g style="fill:none; 
stroke:#000000; stroke-width:0.8000; stroke-opacity:1; 
stroke-linecap:round; stroke-linejoin:round;">
<path d="M18.2197 35.5700
L18.2172 35.5675
" />
<path d="M14.8272 39.5800
L15.1272 39.5800
" />
<path d="M19.6797 38.0250
L19.7797 37.9250
" />
<path d="M8.3972 38.1025
L8.5672 38.2725
" />
<path d="M18.8272 38.0250
L19.6797 38.0250
" />
</g>
<g style="fill:none; 
stroke:#000000; stroke-width:0.7000; stroke-opacity:1; 
stroke-linecap:round; stroke-linejoin:round;">
<path d="M9.5772 29.2550
L9.4022 29.0800
" />
<path d="M9.5772 30.5800
L9.5772 29.2550
" />
</g>
<g style="fill:none; 
stroke:#000000; stroke-width:0.8000; stroke-opacity:1; 
stroke-linecap:round; stroke-linejoin:round;">
<path d="M16.1272 10.2300
L16.1272 16.9800
" />
<path d="M16.1272 16.9800
L9.4022 23.7050
" />
<path d="M23.5272 2.8300
L16.1272 10.2300
" />
<path d="M25.0772 2.8300
L23.5272 2.8300
" />
<path d="M9.4022 23.7050
L9.4022 29.0800
" />
<path d="M25.0772 20.6100
L24.0165 20.6100
" />
<path d="M19.9772 30.6175
L19.9772 29.7250
" />
<path d="M20.0822 29.0600
L20.0822 29.6200
" />
<path d="M20.0822 24.5250
L20.0822 29.0600
" />
<path d="M20.5822 24.0443
L20.5629 24.0443
" />
<path d="M20.5629 24.0443
L20.0822 24.5250
" />
<path d="M19.9772 29.7250
L20.0822 29.6200
" />
<path d="M24.0165 20.6100
L20.5822 24.0443
" />
<path d="M18.1372 18.0700
L25.0772 18.0700
" />
<path d="M5.1272 44.1800
L6.2222 44.1800
" />
<path d="M12.3272 23.7800
L12.4272 23.7800
" />
<path d="M12.4272 23.7800
L18.1372 18.0700
" />
<path d="M4.8272 43.8800
L5.1272 44.1800
" />
<path d="M6.2772 43.3900
L6.2222 43.4450
" />
<path d="M6.2222 44.1800
L6.2222 44.8700
" />
<path d="M6.2222 43.4450
L6.2222 44.1800
" />
<path d="M17.2772 44.6725
L17.4522 44.8475
" />
<path d="M17.2772 43.3800
L17.2772 44.6725
" />
</g>
<g style="fill:none; 
stroke:#000000; stroke-width:0.7000; stroke-opacity:1; 
stroke-linecap:round; stroke-linejoin:round;">
<path d="M11.9822 18.5550
L10.3972 20.1400
" />
<path d="M11.9822 16.7900
L11.9822 18.5550
" />
<path d="M11.9822 12.6100
L11.8922 12.5200
" />
<path d="M11.9822 15.0500
L11.9822 12.6100
" />
</g>
<g style="fill:none; 
stroke:#000000; stroke-width:0.8000; stroke-opacity:1; 
stroke-linecap:round; stroke-linejoin:round;">
<path d="M23.9572 43.4700
L25.0772 43.4700
" />
</g>
<g style="fill:none; 
stroke:#000000; stroke-width:0.7000; stroke-opacity:1; 
stroke-linecap:round; stroke-linejoin:round;">
<path d="M10.3972 20.1400
L7.4372 20.1400
" />
</g>
<g style="fill:none; 
stroke:#000000; stroke-width:0.8000; stroke-opacity:1; 
stroke-linecap:round; stroke-linejoin:round;">
<path d="M22.7372 42.2500
L23.9572 43.4700
" />
</g>
<g style="fill:none; 
stroke:#000000; stroke-width:0.7000; stroke-opacity:1; 
stroke-linecap:round; stroke-linejoin:round;">
<path d="M11.9822 16.7900
L11.9822 15.0500
" />
<path d="M7.4372 15.0600
L10.3222 15.0600
" />
<path d="M10.3222 15.0600
L10.3322 15.0500
" />
<path d="M7.4372 12.5200
L10.2422 12.5200
" />
<path d="M6.3765 2.3600
L4.9072 3.8293
" />
<path d="M4.9072 9.1200
L3.5972 10.4300
" />
<path d="M7.4372 2.3600
L6.3765 2.3600
" />
<path d="M4.9072 3.8293
L4.9072 9.1200
" />
<path d="M3.5972 10.4300
L1.9772 10.4300
" />
</g>
<g style="fill:none; 
stroke:#000000; stroke-width:0.8000; stroke-opacity:1; 
stroke-linecap:round; stroke-linejoin:round;">
<path d="M9.6697 37.1700
L9.6697 36.8225
" />
<path d="M9.6697 36.8225
L8.7172 35.8700
" />
<path d="M5.6997 36.0525
L7.0772 36.0525
" />
<path d="M5.6272 35.9800
L5.6997 36.0525
" />
<path style="fill:#000000; fill-opacity:1.0000; stroke:none;fill-rule:evenodd;"
d="M 26.7299,46.2402
26.6502,46.2788
26.5951,46.3482
26.5811,46.3877
26.5564,46.4906
26.5564,46.4906
26.4630,46.7161
26.4630,46.7161
26.3355,46.9242
26.1770,47.1098
25.9914,47.2683
25.7833,47.3958
25.7833,47.3958
25.5578,47.4892
25.5578,47.4892
25.5578,47.4892
25.4137,47.5238
25.3205,47.5461
25.3205,47.5461
25.3205,47.5461
25.0772,47.5653
24.8339,47.5461
24.8339,47.5461
24.8339,47.5461
24.7915,47.5360
24.5966,47.4892
24.5133,47.4547
24.3711,47.3958
24.3711,47.3958
24.1630,47.2683
23.9774,47.1098
23.8189,46.9242
23.8189,46.9242
23.8143,46.9179
23.8127,46.9191
23.7591,46.8643
23.6759,46.8341
23.5878,46.8430
23.5122,46.8893
23.4741,46.9412
23.4140,47.0592
23.4140,47.0592
23.3029,47.2121
22.6847,47.8303
22.6376,47.9053
22.6276,47.9933
22.6569,48.0769
22.7195,48.1395
22.8031,48.1687
22.8254,48.1700
26.7778,48.1700
26.8641,48.1503
26.9334,48.0951
26.9718,48.0153
26.9768,47.9706
26.9744,46.8341
26.9736,46.4337
26.9537,46.3474
26.8983,46.2783
26.8185,46.2401
Z" /> 
<path style="fill:#000000; fill-opacity:1.0000; stroke:none;fill-rule:evenodd;"
d="M 14.3243,47.2225
14.2551,47.2778
14.2166,47.3576
14.2116,47.4018
14.2116,47.9710
14.2314,48.0573
14.2866,48.1266
14.3664,48.1650
14.4106,48.1700
16.8490,48.1700
16.9353,48.1503
17.0046,48.0951
17.0430,48.0153
17.0430,47.9267
17.0046,47.8469
16.9897,47.8303
16.5365,47.3771
16.5365,47.3771
16.4695,47.2849
16.4028,47.2266
16.3175,47.2030
16.3085,47.2028
14.4106,47.2028
Z" /> 
<path style="fill:#000000; fill-opacity:1.0000; stroke:none;fill-rule:evenodd;"
d="M 10.0873,38.5902
10.0180,38.6454
9.9832,38.7117
9.9436,38.8422
9.9374,38.9306
9.9436,38.9578
9.9931,39.1209
10.0077,39.2692
10.0077,39.7858
10.0077,39.7858
9.9931,39.9341
9.9931,39.9341
9.9683,40.0158
9.9573,40.0522
9.9354,40.1243
9.8417,40.2997
9.7156,40.4534
9.5619,40.5795
9.4672,40.6301
9.3865,40.6732
9.1963,40.7309
9.0480,40.7455
9.0132,40.7455
8.9269,40.7652
8.9229,40.7672
8.8780,40.7900
8.8780,40.7900
8.8780,40.7900
8.8190,40.8092
8.6983,40.8484
8.5956,40.8647
8.5134,40.8977
8.4536,40.9631
8.4282,41.0479
8.4277,41.0613
8.4277,41.5850
8.4126,41.7193
8.4126,41.7193
8.4126,41.7193
8.3530,41.8895
8.3530,41.8895
8.3530,41.8895
8.2633,42.0323
8.2570,42.0423
8.1295,42.1698
8.1295,42.1698
8.1295,42.1698
7.9767,42.2658
7.8065,42.3254
7.6722,42.3405
7.5960,42.3405
7.5096,42.3602
7.4404,42.4154
7.4020,42.4952
7.4020,42.5838
7.4081,42.6052
7.4626,42.7607
7.4777,42.8950
7.4777,43.8850
7.4626,44.0193
7.4626,44.0193
7.4339,44.1013
7.4227,44.1670
7.4227,45.2030
7.4121,45.3224
7.3561,45.5180
7.3561,45.5180
7.3561,45.5180
7.2619,45.6984
7.1333,45.8561
6.9756,45.9847
6.7952,46.0789
6.5996,46.1349
6.4802,46.1455
5.9642,46.1455
5.8448,46.1349
5.6492,46.0789
5.4688,45.9847
5.3111,45.8561
5.1825,45.6984
5.1325,45.6027
5.0973,45.5354
5.0399,45.4680
4.9589,45.4322
4.9054,45.4291
4.8272,45.4353
4.5839,45.4161
4.5839,45.4161
4.5839,45.4161
4.5415,45.4060
4.3466,45.3592
4.2132,45.3039
4.1211,45.2658
4.1211,45.2658
3.9130,45.1383
3.7274,44.9798
3.7144,44.9645
3.5689,44.7942
3.5689,44.7942
3.5689,44.7942
3.4909,44.6668
3.4290,44.6035
3.3457,44.5733
3.2597,44.5815
3.1383,44.6209
3.0161,44.6403
2.9339,44.6733
2.9180,44.6855
2.8914,44.7083
2.8914,44.7083
2.6833,44.8358
2.6833,44.8358
2.4578,44.9292
2.4578,44.9292
2.4578,44.9292
2.3137,44.9638
2.2205,44.9861
2.2205,44.9861
2.2205,44.9861
1.9772,45.0053
1.7339,44.9861
1.7339,44.9861
1.7339,44.9861
1.6915,44.9760
1.4966,44.9292
1.4052,44.8913
1.2711,44.8358
1.2711,44.8358
1.2655,44.8323
1.0630,44.7083
0.8774,44.5498
0.7189,44.3642
0.5914,44.1561
0.5014,43.9387
0.4501,43.8665
0.3726,43.8237
0.2842,43.8187
0.2024,43.8526
0.1434,43.9186
0.1189,44.0037
0.1185,44.0153
0.1268,47.9714
0.1467,48.0577
0.2020,48.1268
0.2819,48.1651
0.3258,48.1700
10.3778,48.1700
10.4642,48.1503
10.5334,48.0951
10.5718,48.0153
10.5768,47.9710
10.5768,44.3299
14.2116,44.3299
14.2116,44.8928
14.2314,44.9792
14.2866,45.0484
14.3664,45.0868
14.4106,45.0918
15.8952,45.0918
15.9815,45.0721
16.0507,45.0169
16.0892,44.9371
16.0917,44.8617
16.0767,44.7670
16.0767,42.8850
16.0767,42.8850
16.0918,42.7507
16.1514,42.5805
16.2474,42.4277
16.2474,42.4277
16.2474,42.4277
16.3749,42.3002
16.3749,42.3002
16.3749,42.3002
16.5277,42.2042
16.5277,42.2042
16.5277,42.2042
16.6979,42.1446
16.6979,42.1446
16.6979,42.1446
16.8322,42.1295
16.8322,42.1295
16.9084,42.1295
16.9948,42.1098
17.0640,42.0546
17.1024,41.9748
17.1024,41.8862
17.0963,41.8648
17.0418,41.7093
17.0267,41.5750
17.0267,41.5749
17.0264,41.5694
17.0249,41.5695
17.0070,41.4909
17.0050,41.4869
16.9662,41.4106
16.9472,41.3733
16.8888,41.1936
16.8592,41.0070
16.8592,40.8180
16.8592,40.2135
16.8395,40.1272
16.8140,40.0873
16.7852,40.0522
16.7852,40.0522
16.7611,40.0070
16.7030,39.9401
16.6217,39.9051
16.5332,39.9088
16.4551,39.9506
16.4449,39.9601
15.9093,40.4957
15.8592,40.5321
15.8355,40.5523
15.7396,40.6482
15.5612,40.7778
15.3648,40.8779
15.3648,40.8779
15.3648,40.8779
15.1552,40.9460
15.1552,40.9460
15.1552,40.9460
14.9374,40.9805
13.1657,40.9805
13.1656,40.9805
13.1574,40.9805
12.9370,40.9805
12.9370,40.9805
12.7192,40.9460
12.5096,40.8779
12.3132,40.7778
12.3011,40.7690
12.2928,40.7630
12.1692,40.6732
12.1348,40.6482
11.9790,40.4924
11.9790,40.4924
11.9676,40.4810
11.9676,40.4810
11.2862,39.7996
11.2862,39.7996
11.2748,39.7882
11.2748,39.7882
11.1190,39.6324
10.9894,39.4540
10.8893,39.2576
10.8212,39.0480
10.8084,38.9675
10.7867,38.8302
10.7867,38.7695
10.7670,38.6832
10.7118,38.6139
10.6320,38.5755
10.5877,38.5705
10.1736,38.5705
Z" /> 
<path style="fill:#000000; fill-opacity:1.0000; stroke:none;fill-rule:evenodd;"
d="M 26.7246,43.7221
26.6449,43.7607
26.5899,43.8301
26.5758,43.8696
26.5564,43.9506
26.5564,43.9506
26.4630,44.1761
26.4630,44.1761
26.3355,44.3842
26.1770,44.5698
26.1548,44.5887
26.1019,44.6597
26.0852,44.7467
26.1078,44.8323
26.1548,44.8913
26.1770,44.9102
26.3355,45.0958
26.4630,45.3039
26.4630,45.3039
26.5564,45.5294
26.5564,45.5294
26.5793,45.6249
26.6186,45.7042
26.6885,45.7587
26.7750,45.7774
26.8611,45.7567
26.9298,45.7007
26.9673,45.6205
26.9718,45.5780
26.9683,43.9156
26.9484,43.8293
26.8931,43.7602
26.8132,43.7219
Z" /> 
<path style="fill:#000000; fill-opacity:1.0000; stroke:none;fill-rule:evenodd;"
d="M 19.5695,40.7646
19.4924,40.8083
19.4420,40.8811
19.4277,40.9552
19.4277,41.5750
19.4126,41.7093
19.4126,41.7093
19.4126,41.7093
19.3530,41.8795
19.3530,41.8795
19.3467,41.8895
19.2586,42.0298
19.2570,42.0323
19.1295,42.1598
19.1295,42.1598
19.1295,42.1598
18.9767,42.2558
18.8065,42.3154
18.6722,42.3305
18.5960,42.3305
18.5096,42.3502
18.4404,42.4054
18.4020,42.4852
18.4020,42.5738
18.4081,42.5952
18.4626,42.7507
18.4777,42.8850
18.4777,42.8850
18.4777,43.9431
18.4974,44.0294
18.5003,44.0352
18.5739,44.1761
18.5861,44.1995
18.6421,44.3951
18.6527,44.5145
18.6527,45.5705
18.6724,45.6568
18.7276,45.7261
18.8074,45.7645
18.8517,45.7695
20.9877,45.7695
21.0740,45.7498
21.1433,45.6946
21.1817,45.6148
21.1867,45.5705
21.1867,44.8697
21.1670,44.7833
21.1284,44.7290
20.1115,43.7121
20.1115,43.7121
20.0004,43.5592
19.9147,43.3908
19.8563,43.2111
19.8417,43.1191
19.8363,43.0849
19.8267,43.0245
19.8267,41.5855
19.8544,41.4106
19.8563,41.3989
19.9147,41.2192
19.9997,41.0523
20.0213,40.9665
20.0035,40.8797
19.9499,40.8092
19.8710,40.7690
19.8223,40.7630
19.6852,40.7630
19.6578,40.7587
Z" /> 
<path style="fill:#000000; fill-opacity:1.0000; stroke:none;fill-rule:evenodd;"
d="M 26.7194,41.2040
26.6397,41.2426
26.5846,41.3119
26.5706,41.3514
26.5564,41.4106
26.5564,41.4106
26.4630,41.6361
26.4630,41.6361
26.3355,41.8442
26.1770,42.0298
26.1548,42.0487
26.1019,42.1197
26.0852,42.2067
26.1078,42.2923
26.1548,42.3513
26.1770,42.3702
26.3355,42.5558
26.4630,42.7639
26.4630,42.7639
26.5564,42.9894
26.5564,42.9894
26.5740,43.0626
26.6133,43.1420
26.6831,43.1964
26.7697,43.2151
26.8558,43.1945
26.9244,43.1385
26.9619,43.0583
26.9665,43.0157
26.9631,41.3975
26.9432,41.3112
26.8878,41.2421
26.8080,41.2038
Z" /> 
<path style="fill:#000000; fill-opacity:1.0000; stroke:none;fill-rule:evenodd;"
d="M 0.1971,41.2997
0.1380,41.3658
0.1135,41.4509
0.1132,41.4624
0.1162,42.8912
0.1361,42.9775
0.1914,43.0466
0.2713,43.0849
0.3599,43.0847
0.4396,43.0461
0.4947,42.9767
0.4990,42.9669
0.5914,42.7439
0.5914,42.7439
0.6895,42.5838
0.7189,42.5358
0.7189,42.5358
0.7189,42.5358
0.8774,42.3502
0.8775,42.3502
0.8996,42.3313
0.9524,42.2603
0.9692,42.1733
0.9466,42.0877
0.8996,42.0287
0.8774,42.0098
0.7189,41.8242
0.5914,41.6161
0.4980,41.3906
0.4980,41.3906
0.4961,41.3859
0.4448,41.3136
0.3673,41.2708
0.2789,41.2658
Z" /> 
<path style="fill:#000000; fill-opacity:1.0000; stroke:none;fill-rule:evenodd;"
d="M 26.7141,38.6858
26.6344,38.7244
26.5794,38.7938
26.5653,38.8333
26.5564,38.8706
26.5564,38.8706
26.4630,39.0961
26.4630,39.0961
26.3355,39.3042
26.1770,39.4898
26.1548,39.5087
26.1019,39.5797
26.0852,39.6667
26.1078,39.7523
26.1548,39.8113
26.1770,39.8302
26.3355,40.0158
26.4630,40.2239
26.4630,40.2239
26.5564,40.4494
26.5564,40.4494
26.5686,40.5004
26.6079,40.5797
26.6778,40.6342
26.7643,40.6529
26.8505,40.6322
26.9191,40.5762
26.9566,40.4960
26.9611,40.4535
26.9578,38.8793
26.9379,38.7931
26.8826,38.7239
26.8027,38.6857
Z" /> 
<path style="fill:#000000; fill-opacity:1.0000; stroke:none;fill-rule:evenodd;"
d="M 0.2048,38.7355
0.1408,38.7967
0.1097,38.8796
0.1079,38.9067
0.1109,40.3647
0.1308,40.4510
0.1862,40.5202
0.2660,40.5584
0.3546,40.5582
0.4343,40.5197
0.4894,40.4503
0.4949,40.4366
0.4950,40.4366
0.5914,40.2039
0.5914,40.2039
0.7189,39.9958
0.8774,39.8102
0.8899,39.7996
0.8996,39.7913
0.9524,39.7203
0.9692,39.6333
0.9466,39.5477
0.8996,39.4887
0.8774,39.4698
0.7189,39.2842
0.5914,39.0761
0.4980,38.8506
0.4980,38.8506
0.4961,38.8448
0.4507,38.7688
0.3768,38.7200
0.2891,38.7081
Z" /> 
<path style="fill:#000000; fill-opacity:1.0000; stroke:none;fill-rule:evenodd;"
d="M 18.6305,19.2902
18.5762,19.3288
13.8972,24.0077
13.8501,24.0827
13.8445,24.1020
13.8064,24.2606
13.8064,24.2606
13.7130,24.4861
13.7130,24.4861
13.5855,24.6942
13.4270,24.8798
13.2414,25.0383
13.0333,25.1658
13.0333,25.1658
12.8078,25.2592
12.8078,25.2592
12.8078,25.2592
12.6637,25.2938
12.5705,25.3161
12.5705,25.3161
12.5705,25.3161
12.3272,25.3353
12.0839,25.3161
12.0839,25.3161
12.0839,25.3161
12.0169,25.3001
11.8466,25.2592
11.6781,25.1894
11.6211,25.1658
11.6211,25.1658
11.4130,25.0383
11.2274,24.8798
11.0689,24.6942
11.0172,24.6098
10.9714,24.5350
10.9095,24.4716
10.8262,24.4415
10.7381,24.4504
10.6626,24.4967
10.6146,24.5711
10.6027,24.6389
10.6027,28.6857
10.6224,28.7720
10.6244,28.7760
10.6434,28.8134
10.6833,28.9361
10.6994,28.9856
10.7277,29.1644
10.7277,29.3538
10.7277,29.3538
10.7277,29.8173
10.7389,29.8830
10.7626,29.9507
10.7626,29.9507
10.7626,29.9507
10.7777,30.0850
10.7777,31.0750
10.7626,31.2093
10.7626,31.2093
10.7626,31.2093
10.7030,31.3795
10.7030,31.3795
10.6794,31.4170
10.6423,31.4761
10.6070,31.5323
10.4795,31.6598
10.4795,31.6598
10.4795,31.6598
10.3267,31.7558
10.1565,31.8154
10.0222,31.8305
9.9460,31.8305
9.8596,31.8502
9.7904,31.9054
9.7520,31.9852
9.7520,32.0738
9.7581,32.0952
9.8126,32.2507
9.8277,32.3850
9.8277,32.3850
9.8277,33.3750
9.8219,33.4268
9.8318,33.5148
9.8441,33.5429
9.9197,33.6843
9.9197,33.6843
9.9197,33.6843
9.9208,33.6882
9.9780,33.8764
9.9927,34.0262
9.9927,34.5638
9.9780,34.7136
9.9197,34.9057
9.8753,34.9887
9.8520,35.0741
9.8680,35.1612
9.8753,35.1763
9.9197,35.2593
9.9554,35.3773
9.9994,35.4542
10.0052,35.4602
10.2562,35.7112
10.3312,35.7583
10.3969,35.7695
10.5877,35.7695
10.6740,35.7498
10.7433,35.6946
10.7817,35.6148
10.7867,35.5705
10.7867,35.0823
10.8001,34.9978
10.8212,34.8645
10.8893,34.6549
10.9894,34.4585
11.1190,34.2801
11.2748,34.1243
11.4532,33.9947
11.6496,33.8946
11.6496,33.8946
11.6496,33.8946
11.6497,33.8946
11.6498,33.8945
11.6568,33.8916
11.6564,33.8906
11.7258,33.8491
11.7746,33.7752
11.7787,33.7631
11.8340,33.5807
11.8593,33.5333
11.9277,33.4053
12.0538,33.2516
12.2075,33.1255
12.3829,33.0318
12.3829,33.0318
12.3829,33.0318
12.4877,33.0000
12.5731,32.9741
12.7214,32.9595
13.2380,32.9595
13.2380,32.9595
13.3863,32.9741
13.3863,32.9741
13.5765,33.0318
13.7519,33.1255
13.9056,33.2516
14.0317,33.4053
14.1254,33.5807
14.1831,33.7709
14.1977,33.9192
14.1977,34.8808
14.1977,34.8808
14.1831,35.0291
14.1831,35.0291
14.1686,35.0770
14.1384,35.1763
14.1254,35.2193
14.0317,35.3947
13.9056,35.5483
13.8246,35.6148
13.7519,35.6745
13.6929,35.7060
13.6260,35.7641
13.5910,35.8454
13.5877,35.8815
13.5877,35.9092
13.6074,35.9956
13.6182,36.0151
13.6530,36.0705
13.6530,36.0705
13.7126,36.2407
13.7126,36.2407
13.7227,36.3306
13.7277,36.3750
13.7277,37.9649
13.7275,37.9694
13.7423,38.0567
13.7935,38.1289
13.8711,38.1717
13.9261,38.1795
14.7475,38.1795
14.8339,38.1598
14.8882,38.1212
15.9001,37.1093
15.9291,37.0883
16.0530,36.9982
16.0639,36.9927
16.2214,36.9125
16.2214,36.9125
16.4011,36.8541
16.4011,36.8541
16.5877,36.8245
16.9199,36.8245
17.0062,36.8048
17.0755,36.7496
17.1139,36.6698
17.1139,36.5812
17.0755,36.5014
17.0737,36.4993
16.9911,36.3986
16.9427,36.3397
16.8490,36.1643
16.7913,35.9741
16.7767,35.8258
16.7767,35.3092
16.7913,35.1609
16.8408,34.9978
16.8470,34.9094
16.8408,34.8822
16.8404,34.8808
16.7913,34.7191
16.7767,34.5708
16.7767,34.0542
16.7913,33.9059
16.8490,33.7157
16.9427,33.5403
17.0688,33.3866
17.0689,33.3866
17.0689,33.3866
17.0716,33.3844
17.1063,33.3475
17.1115,33.3404
17.2451,33.2068
17.2704,33.1884
17.3980,33.0957
17.4550,33.0667
17.5664,33.0100
17.5664,33.0100
17.6892,32.9700
17.7652,32.9246
17.8140,32.8507
17.8267,32.7808
17.8267,32.4225
17.8289,32.4028
17.8418,32.2882
17.9014,32.1180
17.9974,31.9652
17.9974,31.9652
17.9974,31.9652
18.1249,31.8377
18.1249,31.8377
18.1249,31.8377
18.2777,31.7417
18.2777,31.7417
18.2777,31.7417
18.4479,31.6821
18.4479,31.6821
18.4479,31.6821
18.5822,31.6670
18.5822,31.6670
18.6584,31.6670
18.7448,31.6473
18.8140,31.5921
18.8524,31.5123
18.8524,31.4237
18.8463,31.4023
18.7918,31.2468
18.7767,31.1125
18.7767,30.1225
18.7767,29.6305
18.8063,29.4439
18.8647,29.2642
18.8647,29.2642
18.8647,29.2642
18.8666,29.2596
18.8817,29.1834
18.8817,24.4305
18.9113,24.2439
18.9113,24.2439
18.9697,24.0642
19.0554,23.8958
19.1665,23.7429
19.3001,23.6093
19.7808,23.1287
19.7808,23.1286
19.7808,23.1286
19.8388,23.0865
19.8626,23.0662
23.2345,19.6943
23.3223,19.6305
23.3806,19.5638
23.4041,19.4784
23.3883,19.3913
23.3363,19.3196
23.2583,19.2777
23.2053,19.2705
18.7169,19.2705
Z" /> 
<path style="fill:#000000; fill-opacity:1.0000; stroke:none;fill-rule:evenodd;"
d="M 8.4646,21.3102
8.4217,21.3382
8.3514,21.3983
8.1433,21.5258
8.1433,21.5258
7.9178,21.6192
7.9178,21.6192
7.9178,21.6192
7.7737,21.6538
7.6805,21.6761
7.6805,21.6761
7.6805,21.6761
7.4372,21.6953
7.1939,21.6761
7.1939,21.6761
7.1939,21.6761
7.1515,21.6660
6.9566,21.6192
6.7629,21.5389
6.6755,21.5241
6.5904,21.5486
6.5244,21.6076
6.4905,21.6894
6.4877,21.7228
6.4877,22.3594
6.4877,22.3594
6.4877,22.5476
6.4594,22.7264
6.4594,22.7264
6.4526,22.7472
6.4034,22.8986
6.4034,22.8987
6.3212,23.0600
6.3212,23.0600
6.3212,23.0600
6.2148,23.2065
6.0869,23.3344
6.0798,23.3415
6.0797,23.3415
3.5547,25.8665
3.5076,25.9415
3.5019,25.9608
3.4564,26.1506
3.4564,26.1506
3.3630,26.3761
3.3630,26.3761
3.2355,26.5842
3.0770,26.7698
3.0548,26.7887
3.0019,26.8597
2.9852,26.9467
3.0078,27.0323
3.0548,27.0913
3.0770,27.1102
3.2355,27.2958
3.3630,27.5039
3.3630,27.5039
3.4564,27.7294
3.4564,27.7294
3.5133,27.9667
3.5325,28.2100
3.5133,28.4533
3.4564,28.6906
3.4564,28.6906
3.3630,28.9161
3.3630,28.9161
3.2355,29.1242
3.0770,29.3098
3.0548,29.3287
3.0019,29.3997
2.9852,29.4867
3.0078,29.5723
3.0548,29.6313
3.0770,29.6502
3.2355,29.8358
3.3630,30.0439
3.3630,30.0439
3.4564,30.2694
3.4564,30.2694
3.5133,30.5067
3.5325,30.7500
3.5133,30.9933
3.4564,31.2306
3.4564,31.2306
3.3630,31.4561
3.3630,31.4561
3.2355,31.6642
3.0770,31.8498
3.0548,31.8687
3.0019,31.9397
2.9852,32.0267
3.0078,32.1123
3.0548,32.1713
3.0770,32.1902
3.2355,32.3758
3.3630,32.5839
3.3630,32.5839
3.4564,32.8094
3.4564,32.8094
3.5133,33.0467
3.5325,33.2900
3.5133,33.5333
3.4564,33.7706
3.4564,33.7706
3.3630,33.9961
3.3630,33.9961
3.2355,34.2042
3.0770,34.3898
3.0548,34.4087
3.0019,34.4797
2.9852,34.5667
3.0078,34.6523
3.0548,34.7113
3.0770,34.7302
3.2355,34.9158
3.3630,35.1239
3.3630,35.1239
3.4564,35.3494
3.4564,35.3494
3.5133,35.5867
3.5325,35.8300
3.5133,36.0733
3.4564,36.3106
3.4564,36.3106
3.3630,36.5361
3.3630,36.5361
3.2355,36.7442
3.0770,36.9298
3.0548,36.9487
3.0019,37.0197
2.9852,37.1067
3.0078,37.1923
3.0548,37.2513
3.0770,37.2702
3.2355,37.4558
3.3630,37.6639
3.3630,37.6639
3.4564,37.8894
3.4564,37.8894
3.4825,37.9984
3.5219,38.0778
3.5917,38.1322
3.6783,38.1509
3.7644,38.1303
3.8168,38.0927
4.3072,37.6022
4.3543,37.5273
4.3645,37.4810
4.3664,37.4614
4.3664,37.4614
4.3664,37.4614
4.4247,37.2693
4.4247,37.2693
4.4247,37.2693
4.5194,37.0922
4.5489,37.0562
4.5885,36.9770
4.5897,36.8884
4.5524,36.8081
4.5489,36.8038
4.5220,36.7709
4.5194,36.7678
4.4247,36.5907
4.3664,36.3986
4.3517,36.2488
4.3517,35.7112
4.3664,35.5614
4.4247,35.3693
4.4247,35.3693
4.4247,35.3693
4.5194,35.1922
4.5489,35.1562
4.5885,35.0770
4.5897,34.9884
4.5524,34.9081
4.5489,34.9038
4.5313,34.8822
4.5194,34.8678
4.4247,34.6907
4.3664,34.4986
4.3517,34.3488
4.3517,33.8112
4.3664,33.6614
4.4247,33.4693
4.4247,33.4693
4.4247,33.4693
4.5194,33.2922
4.5387,33.2686
4.6467,33.1370
4.7750,33.0318
4.8019,33.0097
4.9790,32.9150
5.1711,32.8567
5.3209,32.8420
5.3209,32.8420
5.9335,32.8420
5.9335,32.8420
6.0833,32.8567
6.0833,32.8567
6.1001,32.8619
6.1053,32.8634
6.1631,32.8720
7.1717,32.8720
7.1966,32.8759
7.2849,32.8700
7.3620,32.8263
7.4124,32.7535
7.4267,32.6794
7.4267,32.3850
7.4267,32.3850
7.4418,32.2507
7.5014,32.0805
7.5974,31.9277
7.5974,31.9277
7.5974,31.9277
7.7249,31.8002
7.7249,31.8002
7.7249,31.8002
7.8777,31.7042
7.8777,31.7042
7.8777,31.7042
8.0479,31.6446
8.0479,31.6446
8.0479,31.6446
8.1822,31.6295
8.1822,31.6295
8.2584,31.6295
8.3448,31.6098
8.4140,31.5546
8.4524,31.4748
8.4524,31.3862
8.4463,31.3648
8.3918,31.2093
8.3767,31.0750
8.3767,30.0850
8.3837,30.0226
8.3738,29.9346
8.3624,29.9082
8.2683,29.7280
8.2123,29.5324
8.2017,29.4130
8.2017,29.0958
8.2017,23.6105
8.2313,23.4239
8.2897,23.2442
8.3754,23.0758
8.3869,23.0600
8.4320,22.9979
8.4865,22.9229
8.4865,22.9229
9.7792,21.6302
9.8263,21.5552
9.8363,21.4672
9.8070,21.3836
9.7444,21.3210
9.6608,21.2918
9.6385,21.2905
8.5510,21.2905
Z" /> 
<path style="fill:#000000; fill-opacity:1.0000; stroke:none;fill-rule:evenodd;"
d="M 26.7089,36.1677
26.6292,36.2063
26.5741,36.2757
26.5601,36.3152
26.5564,36.3306
26.5564,36.3306
26.5564,36.3306
26.4630,36.5561
26.4630,36.5561
26.3355,36.7642
26.1770,36.9498
26.1548,36.9687
26.1019,37.0397
26.0852,37.1267
26.1078,37.2123
26.1548,37.2713
26.1770,37.2902
26.3355,37.4758
26.4630,37.6839
26.4630,37.6839
26.5564,37.9094
26.5564,37.9094
26.5633,37.9381
26.6026,38.0175
26.6724,38.0719
26.7590,38.0906
26.8451,38.0700
26.9137,38.0140
26.9513,37.9337
26.9558,37.8912
26.9526,36.3612
26.9327,36.2749
26.8773,36.2058
26.7975,36.1675
Z" /> 
<path style="fill:#000000; fill-opacity:1.0000; stroke:none;fill-rule:evenodd;"
d="M 0.2132,36.1663
0.1446,36.2223
0.1071,36.3025
0.1025,36.3451
0.1057,37.8428
0.1256,37.9291
0.1809,37.9982
0.2608,38.0364
0.3494,38.0363
0.4291,37.9977
0.4841,37.9283
0.4954,37.8967
0.4956,37.8968
0.4980,37.8894
0.5914,37.6639
0.5914,37.6639
0.7155,37.4614
0.7189,37.4558
0.7189,37.4558
0.7189,37.4558
0.8774,37.2702
0.8785,37.2693
0.8996,37.2513
0.9524,37.1803
0.9692,37.0933
0.9466,37.0077
0.8996,36.9487
0.8774,36.9298
0.7189,36.7442
0.5914,36.5361
0.4980,36.3106
0.4950,36.2982
0.4557,36.2188
0.3859,36.1644
0.2993,36.1457
Z" /> 
<path style="fill:#000000; fill-opacity:1.0000; stroke:none;fill-rule:evenodd;"
d="M 26.7036,33.6496
26.6239,33.6882
26.5689,33.7575
26.5596,33.7835
26.5588,33.7832
26.5564,33.7906
26.4630,34.0161
26.4630,34.0161
26.3355,34.2242
26.1770,34.4098
26.1548,34.4287
26.1019,34.4997
26.0852,34.5867
26.1078,34.6723
26.1548,34.7313
26.1770,34.7502
26.3355,34.9358
26.4630,35.1439
26.4630,35.1439
26.5564,35.3694
26.5564,35.3694
26.5579,35.3759
26.5972,35.4552
26.6671,35.5097
26.7537,35.5284
26.8398,35.5077
26.9084,35.4517
26.9459,35.3715
26.9504,35.3290
26.9473,33.8431
26.9274,33.7568
26.8721,33.6877
26.7922,33.6494
Z" /> 
<path style="fill:#000000; fill-opacity:1.0000; stroke:none;fill-rule:evenodd;"
d="M 0.2079,33.6041
0.1392,33.6601
0.1017,33.7403
0.0972,33.7828
0.1004,35.3246
0.1203,35.4109
0.1757,35.4801
0.2555,35.5183
0.3441,35.5181
0.4238,35.4795
0.4789,35.4102
0.4929,35.3707
0.4980,35.3494
0.5065,35.3290
0.5914,35.1239
0.5914,35.1239
0.7189,34.9158
0.8774,34.7302
0.8905,34.7191
0.8996,34.7113
0.9524,34.6403
0.9692,34.5533
0.9466,34.4677
0.8996,34.4087
0.8774,34.3898
0.7189,34.2042
0.5914,33.9961
0.4980,33.7706
0.4897,33.7359
0.4504,33.6566
0.3805,33.6021
0.2940,33.5834
Z" /> 
<path style="fill:#000000; fill-opacity:1.0000; stroke:none;fill-rule:evenodd;"
d="M 0.2025,31.0418
0.1339,31.0978
0.0964,31.1780
0.0919,31.2206
0.0952,32.8065
0.1151,32.8928
0.1704,32.9619
0.2503,33.0002
0.3389,33.0000
0.4186,32.9614
0.4736,32.8921
0.4877,32.8525
0.4980,32.8094
0.5099,32.7808
0.5914,32.5839
0.5914,32.5839
0.7189,32.3758
0.8774,32.1902
0.8774,32.1902
0.8996,32.1713
0.9524,32.1003
0.9692,32.0133
0.9466,31.9277
0.8996,31.8687
0.8774,31.8498
0.7189,31.6642
0.5914,31.4561
0.5780,31.4237
0.5047,31.2468
0.4980,31.2306
0.4844,31.1737
0.4450,31.0943
0.3752,31.0399
0.2886,31.0212
Z" /> 
<path style="fill:#000000; fill-opacity:1.0000; stroke:none;fill-rule:evenodd;"
d="M 26.6984,31.1260
26.6187,31.1646
26.5636,31.2339
26.5592,31.2438
26.5564,31.2506
26.4874,31.4170
26.4630,31.4761
26.4630,31.4761
26.3355,31.6842
26.1770,31.8698
26.1548,31.8887
26.1019,31.9597
26.0852,32.0467
26.1078,32.1323
26.1548,32.1913
26.1770,32.2102
26.3355,32.3958
26.4630,32.6039
26.4630,32.6039
26.5564,32.8294
26.5568,32.8308
26.5572,32.8315
26.5594,32.8366
26.5601,32.8363
26.6023,32.9068
26.6762,32.9556
26.7639,32.9675
26.8482,32.9401
26.9122,32.8789
26.9433,32.7960
26.9451,32.7689
26.9421,31.3195
26.9222,31.2332
26.8668,31.1641
26.7869,31.1258
Z" /> 
<path style="fill:#000000; fill-opacity:1.0000; stroke:none;fill-rule:evenodd;"
d="M 0.1972,28.4796
0.1285,28.5356
0.0910,28.6158
0.0865,28.6583
0.0899,30.2884
0.1098,30.3747
0.1652,30.4438
0.2450,30.4821
0.3336,30.4819
0.4133,30.4433
0.4684,30.3739
0.4824,30.3344
0.4980,30.2694
0.5161,30.2257
0.5914,30.0439
0.5914,30.0439
0.6853,29.8907
0.7189,29.8358
0.7189,29.8358
0.7189,29.8358
0.8774,29.6502
0.8774,29.6502
0.8996,29.6313
0.9524,29.5603
0.9692,29.4733
0.9466,29.3877
0.8996,29.3287
0.8774,29.3098
0.7189,29.1242
0.5914,28.9161
0.4980,28.6906
0.4790,28.6114
0.4397,28.5321
0.3698,28.4776
0.2833,28.4589
Z" /> 
<path style="fill:#000000; fill-opacity:1.0000; stroke:none;fill-rule:evenodd;"
d="M 26.6931,28.5987
26.6134,28.6373
26.5583,28.7067
26.5539,28.7165
26.4630,28.9361
26.4630,28.9361
26.3355,29.1442
26.1770,29.3298
26.1548,29.3487
26.1019,29.4197
26.0852,29.5067
26.1078,29.5923
26.1548,29.6513
26.1770,29.6702
26.3355,29.8558
26.4630,30.0639
26.4630,30.0639
26.5569,30.2907
26.6082,30.3629
26.6857,30.4058
26.7741,30.4107
26.8559,30.3768
26.9149,30.3108
26.9394,30.2257
26.9398,30.2141
26.9395,30.0854
26.9368,28.7922
26.9169,28.7059
26.8615,28.6368
26.7817,28.5985
Z" /> 
<path style="fill:#000000; fill-opacity:1.0000; stroke:none;fill-rule:evenodd;"
d="M 0.1918,25.9173
0.1232,25.9733
0.0857,26.0535
0.0812,26.0960
0.0847,27.7702
0.1046,27.8565
0.1599,27.9257
0.2398,27.9639
0.3284,27.9637
0.4081,27.9251
0.4631,27.8558
0.4772,27.8163
0.4980,27.7294
0.5215,27.6728
0.5914,27.5039
0.5914,27.5039
0.7189,27.2958
0.8774,27.1102
0.8774,27.1102
0.8996,27.0913
0.9524,27.0203
0.9692,26.9333
0.9466,26.8477
0.8996,26.7887
0.8774,26.7698
0.7189,26.5842
0.5914,26.3761
0.4980,26.1506
0.4737,26.0492
0.4344,25.9698
0.3645,25.9154
0.2779,25.8966
Z" /> 
<path style="fill:#000000; fill-opacity:1.0000; stroke:none;fill-rule:evenodd;"
d="M 26.6878,26.0714
26.6081,26.1100
26.5531,26.1794
26.5487,26.1892
26.4630,26.3961
26.4630,26.3961
26.3355,26.6042
26.1770,26.7898
26.1548,26.8087
26.1019,26.8797
26.0852,26.9667
26.1078,27.0523
26.1548,27.1113
26.1770,27.1302
26.3355,27.3158
26.4630,27.5239
26.4630,27.5239
26.5516,27.7378
26.6028,27.8101
26.6803,27.8529
26.7688,27.8579
26.8506,27.8240
26.9096,27.7579
26.9341,27.6728
26.9344,27.6613
26.9315,26.2649
26.9116,26.1786
26.8563,26.1095
26.7764,26.0712
Z" /> 
<path style="fill:#000000; fill-opacity:1.0000; stroke:none;fill-rule:evenodd;"
d="M 0.1865,23.3551
0.1179,23.4111
0.0803,23.4913
0.0758,23.5338
0.0794,25.2521
0.0993,25.3384
0.1547,25.4075
0.2345,25.4458
0.3231,25.4456
0.4028,25.4070
0.4579,25.3377
0.4719,25.2982
0.4980,25.1894
0.4980,25.1894
0.5914,24.9639
0.5914,24.9639
0.7189,24.7558
0.8774,24.5702
0.8774,24.5702
0.8996,24.5513
0.9524,24.4803
0.9692,24.3933
0.9466,24.3077
0.8996,24.2487
0.8774,24.2298
0.7189,24.0442
0.5914,23.8361
0.4980,23.6106
0.4683,23.4869
0.4290,23.4076
0.3592,23.3531
0.2726,23.3344
Z" /> 
<path style="fill:#000000; fill-opacity:1.0000; stroke:none;fill-rule:evenodd;"
d="M 26.6826,23.5442
26.6029,23.5827
26.5478,23.6521
26.5434,23.6619
26.5120,23.7377
26.4630,23.8561
26.4630,23.8561
26.3355,24.0642
26.1770,24.2498
26.1548,24.2687
26.1019,24.3397
26.0852,24.4267
26.1078,24.5123
26.1548,24.5713
26.1770,24.5902
26.3355,24.7758
26.4630,24.9839
26.4630,24.9839
26.5463,25.1850
26.5975,25.2572
26.6750,25.3001
26.7634,25.3050
26.8453,25.2711
26.9043,25.2051
26.9288,25.1200
26.9291,25.1084
26.9286,24.8798
26.9263,23.7377
26.9064,23.6514
26.8510,23.5822
26.7711,23.5440
Z" /> 
<path style="fill:#000000; fill-opacity:1.0000; stroke:none;fill-rule:evenodd;"
d="M 0.1811,20.7928
0.1125,20.8488
0.0750,20.9290
0.0705,20.9715
0.0742,22.7340
0.0941,22.8203
0.1494,22.8894
0.2293,22.9277
0.3179,22.9275
0.3976,22.8889
0.4526,22.8195
0.4667,22.7800
0.4980,22.6494
0.4980,22.6494
0.5914,22.4239
0.5914,22.4239
0.7189,22.2158
0.8774,22.0302
0.8854,22.0235
0.8996,22.0113
0.9524,21.9403
0.9692,21.8533
0.9466,21.7677
0.8996,21.7087
0.8774,21.6898
0.7189,21.5042
0.5914,21.2961
0.5881,21.2880
0.4980,21.0706
0.4980,21.0706
0.4980,21.0706
0.4630,20.9247
0.4237,20.8453
0.3538,20.7909
0.2673,20.7721
Z" /> 
<path style="fill:#000000; fill-opacity:1.0000; stroke:none;fill-rule:evenodd;"
d="M 26.6773,21.0169
26.5976,21.0555
26.5425,21.1248
26.5381,21.1346
26.4630,21.3161
26.4630,21.3161
26.3355,21.5242
26.1770,21.7098
26.1548,21.7287
26.1019,21.7997
26.0852,21.8867
26.1078,21.9723
26.1548,22.0313
26.1770,22.0502
26.3355,22.2358
26.4630,22.4439
26.4630,22.4439
26.5409,22.6321
26.5922,22.7044
26.6697,22.7472
26.7581,22.7522
26.8399,22.7183
26.8990,22.6522
26.9235,22.5671
26.9238,22.5556
26.9210,21.2104
26.9011,21.1241
26.8457,21.0549
26.7659,21.0167
Z" /> 
<path style="fill:#000000; fill-opacity:1.0000; stroke:none;fill-rule:evenodd;"
d="M 0.1758,18.2306
0.1072,18.2866
0.0697,18.3668
0.0651,18.4093
0.0689,20.2158
0.0888,20.3021
0.1442,20.3713
0.2240,20.4095
0.3126,20.4094
0.3923,20.3708
0.4474,20.3014
0.4614,20.2619
0.4980,20.1094
0.4980,20.1094
0.4980,20.1094
0.5914,19.8839
0.5914,19.8839
0.7189,19.6758
0.8774,19.4902
0.8774,19.4902
0.8996,19.4713
0.9524,19.4003
0.9692,19.3133
0.9466,19.2277
0.8996,19.1687
0.8774,19.1498
0.7189,18.9642
0.5914,18.7561
0.5894,18.7512
0.4980,18.5306
0.4980,18.5306
0.4980,18.5306
0.4689,18.4093
0.4576,18.3624
0.4183,18.2831
0.3485,18.2286
0.2619,18.2099
Z" /> 
<path style="fill:#000000; fill-opacity:1.0000; stroke:none;fill-rule:evenodd;"
d="M 26.6720,18.4896
26.5923,18.5282
26.5372,18.5975
26.5329,18.6074
26.4630,18.7761
26.4630,18.7761
26.3355,18.9842
26.1770,19.1698
26.1548,19.1887
26.1019,19.2597
26.0852,19.3467
26.1078,19.4323
26.1548,19.4913
26.1770,19.5102
26.3355,19.6958
26.4630,19.9039
26.4630,19.9039
26.5356,20.0793
26.5869,20.1515
26.6644,20.1944
26.7528,20.1993
26.8346,20.1654
26.8936,20.0994
26.9182,20.0143
26.9185,20.0027
26.9157,18.6831
26.8958,18.5968
26.8405,18.5277
26.7606,18.4894
Z" /> 
<path style="fill:#000000; fill-opacity:1.0000; stroke:none;fill-rule:evenodd;"
d="M 8.4646,16.2302
8.4217,16.2582
8.3514,16.3183
8.3514,16.3183
8.3514,16.3183
8.2965,16.3519
8.1433,16.4458
8.1433,16.4458
7.9178,16.5392
7.9178,16.5392
7.9178,16.5392
7.7737,16.5738
7.6805,16.5961
7.6805,16.5961
7.6805,16.5961
7.4372,16.6153
7.1939,16.5961
7.1939,16.5961
7.1939,16.5961
7.1515,16.5860
6.9566,16.5392
6.7738,16.4635
6.6865,16.4486
6.6014,16.4732
6.5570,16.5066
6.5460,16.5176
6.4989,16.5926
6.4877,16.6583
6.4877,18.5572
6.5074,18.6436
6.5626,18.7128
6.6424,18.7512
6.7310,18.7512
6.7629,18.7411
6.7932,18.7285
6.9566,18.6608
6.9566,18.6608
7.1939,18.6039
7.4372,18.5847
7.6805,18.6039
7.9178,18.6608
7.9178,18.6608
8.1433,18.7542
8.1433,18.7542
8.3514,18.8817
8.4217,18.9418
8.5002,18.9829
8.5510,18.9895
9.8382,18.9895
9.9246,18.9698
9.9789,18.9312
10.7734,18.1367
10.8205,18.0617
10.8317,17.9960
10.8317,17.9038
10.8120,17.8174
10.7840,17.7745
10.7239,17.7042
10.5964,17.4961
10.5030,17.2706
10.4461,17.0333
10.4269,16.7900
10.4461,16.5467
10.4461,16.5467
10.4466,16.5401
10.4337,16.4525
10.3841,16.3791
10.3076,16.3346
10.2482,16.3255
10.0742,16.3255
10.0742,16.3255
9.9548,16.3149
9.7592,16.2589
9.7098,16.2331
9.6241,16.2106
9.6176,16.2105
8.5510,16.2105
Z" /> 
<path style="fill:#000000; fill-opacity:1.0000; stroke:none;fill-rule:evenodd;"
d="M 0.1705,15.6683
0.1018,15.7243
0.0643,15.8045
0.0598,15.8470
0.0637,17.6977
0.0836,17.7840
0.1389,17.8531
0.2188,17.8914
0.3074,17.8912
0.3871,17.8526
0.4421,17.7833
0.4562,17.7438
0.4980,17.5694
0.5158,17.5264
0.5914,17.3439
0.5914,17.3439
0.7189,17.1358
0.8774,16.9502
0.8774,16.9502
0.8996,16.9313
0.9524,16.8603
0.9692,16.7733
0.9466,16.6877
0.8996,16.6287
0.8774,16.6098
0.7189,16.4242
0.5914,16.2161
0.4980,15.9906
0.4523,15.8002
0.4130,15.7208
0.3431,15.6664
0.2566,15.6476
Z" /> 
<path style="fill:#000000; fill-opacity:1.0000; stroke:none;fill-rule:evenodd;"
d="M 0.1403,0.2297
0.0710,0.2849
0.0326,0.3647
0.0276,0.4094
0.0309,1.9848
0.0508,2.0711
0.1062,2.1402
0.1860,2.1784
0.2746,2.1783
0.3543,2.1397
0.4094,2.0703
0.4276,2.0066
0.4418,1.8807
0.5014,1.7105
0.5974,1.5577
0.5974,1.5577
0.5974,1.5577
0.7249,1.4302
0.7249,1.4302
0.7249,1.4302
0.8777,1.3342
0.8777,1.3342
0.8777,1.3342
1.0479,1.2746
1.0479,1.2746
1.0479,1.2746
1.1822,1.2595
2.7722,1.2595
2.9065,1.2746
2.9065,1.2746
2.9065,1.2746
3.0767,1.3342
3.0767,1.3342
3.2295,1.4302
3.3570,1.5577
3.4530,1.7105
3.4530,1.7105
3.5121,1.8794
3.5126,1.8807
3.5277,2.0150
3.5277,2.0150
3.5277,3.1737
3.5474,3.2600
3.6026,3.3293
3.6824,3.3677
3.7710,3.3677
3.8508,3.3293
3.9040,3.2640
3.9175,3.2376
3.9175,3.2376
3.9232,3.2263
3.9232,3.2263
3.9232,3.2263
4.0296,3.0798
4.0296,3.0798
4.1627,2.9468
4.1627,2.9468
5.4920,1.6175
5.4920,1.6174
5.5518,1.5577
5.6270,1.4824
5.7735,1.3760
5.7735,1.3760
5.7736,1.3760
5.9349,1.2938
5.9349,1.2938
5.9939,1.2746
6.1071,1.2378
6.1071,1.2378
6.1071,1.2378
6.2860,1.2095
6.2860,1.2095
6.3234,1.2095
6.4098,1.1898
6.4527,1.1618
6.5230,1.1017
6.7311,0.9742
6.7311,0.9742
6.9566,0.8808
6.9566,0.8808
6.9566,0.8808
7.1939,0.8239
7.4372,0.8047
7.6805,0.8239
7.9178,0.8808
7.9178,0.8808
8.1433,0.9742
8.1433,0.9742
8.3514,1.1017
8.5370,1.2602
8.6955,1.4458
8.8230,1.6539
8.8230,1.6539
8.9164,1.8794
8.9164,1.8794
8.9733,2.1167
8.9925,2.3600
8.9733,2.6033
8.9164,2.8406
8.9164,2.8406
8.8230,3.0661
8.8230,3.0661
8.6955,3.2742
8.5370,3.4598
8.5148,3.4787
8.4619,3.5497
8.4452,3.6367
8.4678,3.7223
8.5148,3.7813
8.5370,3.8002
8.6955,3.9858
8.8230,4.1939
8.8230,4.1939
8.9164,4.4194
8.9164,4.4194
8.9733,4.6567
8.9925,4.9000
8.9733,5.1433
8.9164,5.3806
8.9164,5.3806
8.8230,5.6061
8.8230,5.6061
8.6955,5.8142
8.5370,5.9998
8.5148,6.0187
8.4619,6.0897
8.4452,6.1767
8.4678,6.2623
8.5148,6.3213
8.5370,6.3402
8.6955,6.5258
8.8230,6.7339
8.8230,6.7339
8.9164,6.9594
8.9164,6.9594
8.9733,7.1967
8.9925,7.4400
8.9733,7.6833
8.9164,7.9206
8.9164,7.9206
8.8230,8.1461
8.8230,8.1461
8.6955,8.3542
8.5370,8.5398
8.5148,8.5587
8.4619,8.6297
8.4452,8.7167
8.4678,8.8023
8.5148,8.8613
8.5370,8.8802
8.6955,9.0658
8.8230,9.2739
8.8230,9.2739
8.9164,9.4994
8.9164,9.4994
8.9733,9.7367
8.9925,9.9800
8.9733,10.2233
8.9164,10.4606
8.9164,10.4606
8.8230,10.6861
8.8230,10.6861
8.6955,10.8942
8.5698,11.0413
8.5288,11.1197
8.5258,11.2082
8.5615,11.2893
8.6288,11.3468
8.7145,11.3694
8.7212,11.3695
9.5085,11.3695
9.5948,11.3498
9.6006,11.3469
9.6692,11.3111
9.6692,11.3111
9.6692,11.3111
9.8648,11.2551
9.8648,11.2551
9.9842,11.2445
10.5002,11.2445
10.5003,11.2445
10.6196,11.2551
10.8152,11.3111
10.9751,11.3946
11.0607,11.4171
11.1477,11.4002
11.1593,11.3946
11.3192,11.3111
11.5148,11.2551
11.5148,11.2551
11.6342,11.2445
12.1502,11.2445
12.1503,11.2445
12.2696,11.2551
12.4652,11.3111
12.6456,11.4053
12.8033,11.5339
12.9319,11.6916
13.0261,11.8720
13.0821,12.0676
13.0927,12.1870
13.0927,12.2732
13.1024,12.3346
13.1044,12.3406
13.1327,12.5194
13.1327,12.7088
13.1327,12.7088
13.1327,14.4320
13.1404,14.4868
13.1721,14.5976
13.1721,14.5976
13.1827,14.7170
13.1827,15.3830
13.1827,15.3831
13.1721,15.5024
13.1404,15.6132
13.1327,15.6680
13.1327,15.6762
13.1524,15.7626
13.1804,15.8055
13.2405,15.8758
13.3680,16.0839
13.3680,16.0839
13.4614,16.3094
13.4614,16.3094
13.5183,16.5467
13.5375,16.7900
13.5183,17.0333
13.4614,17.2706
13.4614,17.2706
13.3652,17.5028
13.3504,17.5901
13.3749,17.6752
13.4339,17.7413
13.5157,17.7752
13.6041,17.7702
13.6816,17.7273
13.6898,17.7197
14.8684,16.5410
14.9155,16.4660
14.9267,16.4003
14.9267,10.1355
14.9509,9.9829
14.9563,9.9489
15.0147,9.7692
15.1004,9.6008
15.1609,9.5176
15.2115,9.4479
18.8453,5.8142
22.7451,1.9143
22.7704,1.8959
22.8980,1.8032
22.9040,1.8002
23.0664,1.7175
23.0664,1.7175
23.2461,1.6591
23.2461,1.6591
23.4327,1.6295
23.5632,1.6295
23.6495,1.6098
23.7039,1.5712
23.8249,1.4502
23.8249,1.4502
23.8249,1.4502
23.9777,1.3542
23.9777,1.3542
23.9777,1.3542
24.1479,1.2946
24.1479,1.2946
24.1479,1.2946
24.2822,1.2795
25.8722,1.2795
26.0065,1.2946
26.0065,1.2946
26.0065,1.2946
26.1767,1.3542
26.1767,1.3542
26.3295,1.4502
26.4570,1.5777
26.5125,1.6661
26.5751,1.7287
26.6587,1.7579
26.7467,1.7480
26.8217,1.7009
26.8688,1.6259
26.8800,1.5598
26.8776,0.4086
26.8577,0.3223
26.8024,0.2532
26.7225,0.2149
26.6786,0.2100
0.2266,0.2100
Z" /> 
<path style="fill:#000000; fill-opacity:1.0000; stroke:none;fill-rule:evenodd;"
d="M 26.6668,15.9623
26.5870,16.0009
26.5320,16.0703
26.5276,16.0801
26.4630,16.2361
26.4630,16.2361
26.3355,16.4442
26.1770,16.6298
26.1548,16.6487
26.1019,16.7197
26.0852,16.8067
26.1078,16.8923
26.1548,16.9513
26.1770,16.9702
26.3355,17.1558
26.4630,17.3639
26.4630,17.3639
26.5303,17.5264
26.5815,17.5987
26.6591,17.6415
26.7475,17.6465
26.8293,17.6126
26.8883,17.5465
26.9128,17.4614
26.9131,17.4499
26.9104,16.1558
26.8906,16.0695
26.8352,16.0004
26.7553,15.9621
Z" /> 
<path style="fill:#000000; fill-opacity:1.0000; stroke:none;fill-rule:evenodd;"
d="M 0.1651,13.1061
0.0965,13.1621
0.0590,13.2423
0.0545,13.2848
0.0584,15.1796
0.0783,15.2659
0.1337,15.3350
0.2135,15.3733
0.3021,15.3731
0.3818,15.3345
0.4369,15.2651
0.4509,15.2256
0.4980,15.0294
0.4980,15.0294
0.5481,14.9086
0.5914,14.8039
0.5914,14.8039
0.7189,14.5958
0.8774,14.4102
0.8774,14.4102
0.8996,14.3913
0.9524,14.3203
0.9692,14.2333
0.9466,14.1477
0.8996,14.0887
0.8774,14.0698
0.7189,13.8842
0.5914,13.6761
0.4980,13.4506
0.4470,13.2379
0.4076,13.1586
0.3378,13.1041
0.2512,13.0854
Z" /> 
<path style="fill:#000000; fill-opacity:1.0000; stroke:none;fill-rule:evenodd;"
d="M 26.6615,13.4350
26.5818,13.4736
26.5267,13.5430
26.5223,13.5528
26.4630,13.6961
26.4630,13.6961
26.3355,13.9042
26.1770,14.0898
26.1548,14.1087
26.1019,14.1797
26.0852,14.2667
26.1078,14.3523
26.1548,14.4113
26.1770,14.4302
26.3355,14.6158
26.4630,14.8239
26.4630,14.8239
26.5250,14.9736
26.5762,15.0458
26.6537,15.0886
26.7422,15.0936
26.8240,15.0597
26.8830,14.9937
26.9075,14.9086
26.9078,14.8970
26.9052,13.6285
26.8853,13.5422
26.8299,13.4731
26.7501,13.4349
Z" /> 
<path style="fill:#000000; fill-opacity:1.0000; stroke:none;fill-rule:evenodd;"
d="M 0.1598,10.5438
0.0912,10.5998
0.0536,10.6800
0.0491,10.7225
0.0532,12.6615
0.0731,12.7478
0.1284,12.8169
0.2083,12.8551
0.2968,12.8550
0.3766,12.8164
0.4316,12.7470
0.4457,12.7075
0.4980,12.4894
0.5831,12.2839
0.5914,12.2639
0.5914,12.2639
0.7117,12.0676
0.7189,12.0558
0.7189,12.0558
0.7189,12.0558
0.8774,11.8702
0.8774,11.8702
0.8996,11.8513
0.9524,11.7803
0.9692,11.6933
0.9466,11.6077
0.8996,11.5487
0.8774,11.5298
0.7189,11.3442
0.5914,11.1361
0.5681,11.0798
0.4980,10.9106
0.4980,10.9106
0.4980,10.9106
0.4416,10.6757
0.4023,10.5963
0.3324,10.5419
0.2459,10.5231
Z" /> 
<path style="fill:#000000; fill-opacity:1.0000; stroke:none;fill-rule:evenodd;"
d="M 26.6562,10.9078
26.5765,10.9464
26.5214,11.0157
26.5171,11.0255
26.4630,11.1561
26.4630,11.1561
26.3355,11.3642
26.1770,11.5498
26.1548,11.5687
26.1019,11.6397
26.0852,11.7267
26.1078,11.8123
26.1548,11.8713
26.1770,11.8902
26.3355,12.0758
26.4630,12.2839
26.4630,12.2839
26.5196,12.4207
26.5709,12.4930
26.6484,12.5358
26.7368,12.5408
26.8187,12.5069
26.8777,12.4408
26.9022,12.3557
26.9025,12.3442
26.8999,11.1013
26.8800,11.0150
26.8247,10.9458
26.7448,10.9076
Z" /> 
<path style="fill:#000000; fill-opacity:1.0000; stroke:none;fill-rule:evenodd;"
d="M 0.1834,7.9601
0.1069,8.0047
0.0572,8.0780
0.0438,8.1505
0.0479,10.1433
0.0678,10.2296
0.1232,10.2988
0.2030,10.3370
0.2916,10.3368
0.3713,10.2982
0.4264,10.2289
0.4404,10.1894
0.4932,9.9694
0.4980,9.9494
0.4980,9.9494
0.5914,9.7239
0.5914,9.7239
0.7067,9.5358
0.7189,9.5158
0.7189,9.5158
0.7189,9.5158
0.8774,9.3302
0.8774,9.3302
0.8996,9.3113
0.9524,9.2403
0.9692,9.1533
0.9466,9.0677
0.8996,9.0087
0.8774,8.9898
0.7189,8.8042
0.5914,8.5961
0.5681,8.5398
0.5021,8.3805
0.4980,8.3706
0.4411,8.1333
0.4411,8.1333
0.4398,8.1256
0.4384,8.1258
0.4147,8.0499
0.3543,7.9852
0.2717,7.9532
Z" /> 
<path style="fill:#000000; fill-opacity:1.0000; stroke:none;fill-rule:evenodd;"
d="M 26.6510,8.3805
26.5712,8.4191
26.5162,8.4884
26.5118,8.4982
26.4630,8.6161
26.4630,8.6161
26.3355,8.8242
26.1770,9.0098
26.1548,9.0287
26.1019,9.0997
26.0852,9.1867
26.1078,9.2723
26.1548,9.3313
26.1770,9.3502
26.3355,9.5358
26.4630,9.7439
26.4630,9.7439
26.5143,9.8679
26.5656,9.9401
26.6431,9.9829
26.7315,9.9879
26.8133,9.9540
26.8723,9.8880
26.8969,9.8029
26.8972,9.7913
26.8970,9.7239
26.8946,8.5740
26.8748,8.4877
26.8194,8.4186
26.7395,8.3803
Z" /> 
<path style="fill:#000000; fill-opacity:1.0000; stroke:none;fill-rule:evenodd;"
d="M 0.1677,3.4790
0.0927,3.5261
0.0456,3.6011
0.0344,3.6672
0.0375,5.1693
0.0574,5.2557
0.1128,5.3248
0.1732,5.3537
0.1014,5.3955
0.0518,5.4689
0.0383,5.5413
0.0427,7.6438
0.0626,7.7301
0.1179,7.7992
0.1978,7.8375
0.2864,7.8373
0.3661,7.7987
0.4212,7.7293
0.4401,7.6590
0.4411,7.6467
0.4980,7.4094
0.4980,7.4094
0.5914,7.1839
0.5914,7.1839
0.7189,6.9758
0.8774,6.7902
0.8774,6.7902
0.8996,6.7713
0.9524,6.7003
0.9692,6.6133
0.9466,6.5277
0.8996,6.4687
0.8774,6.4498
0.7189,6.2642
0.5914,6.0561
0.5681,5.9998
0.4980,5.8306
0.4980,5.8306
0.4980,5.8306
0.4411,5.5933
0.4357,5.5253
0.4093,5.4408
0.3488,5.3761
0.2961,5.3556
0.3609,5.3243
0.4160,5.2549
0.4349,5.1845
0.4411,5.1067
0.4980,4.8694
0.4980,4.8694
0.5914,4.6439
0.5914,4.6439
0.7189,4.4358
0.7235,4.4295
0.7217,4.4281
0.7567,4.3613
0.7596,4.2728
0.7239,4.1918
0.7050,4.1698
0.5974,4.0623
0.5014,3.9095
0.4418,3.7393
0.4312,3.6445
0.4019,3.5609
0.3393,3.4983
0.2557,3.4690
Z" /> 
<path style="fill:#000000; fill-opacity:1.0000; stroke:none;fill-rule:evenodd;"
d="M 26.6457,5.8532
26.5660,5.8918
26.5109,5.9612
26.5065,5.9710
26.4630,6.0761
26.4630,6.0761
26.3355,6.2842
26.1770,6.4698
26.1548,6.4887
26.1019,6.5597
26.0852,6.6467
26.1078,6.7323
26.1548,6.7913
26.1770,6.8102
26.3355,6.9958
26.4630,7.2039
26.4630,7.2039
26.5090,7.3150
26.5603,7.3873
26.6378,7.4301
26.7262,7.4351
26.8080,7.4012
26.8670,7.3351
26.8915,7.2500
26.8919,7.2385
26.8903,6.4887
26.8894,6.0467
26.8695,5.9604
26.8141,5.8913
26.7342,5.8530
Z" /> 
<path style="fill:#000000; fill-opacity:1.0000; stroke:none;fill-rule:evenodd;"
d="M 26.6416,3.8975
26.5619,3.9361
26.5178,3.9855
26.4570,4.0823
26.3494,4.1898
26.3023,4.2648
26.2924,4.3528
26.3217,4.4364
26.3311,4.4493
26.3309,4.4495
26.3355,4.4558
26.4630,4.6639
26.4630,4.6639
26.5037,4.7622
26.5549,4.8344
26.6324,4.8772
26.7209,4.8822
26.8027,4.8483
26.8617,4.7823
26.8862,4.6972
26.8865,4.6856
26.8860,4.4495
26.8853,4.0910
26.8654,4.0047
26.8100,3.9356
26.7302,3.8973
Z" /> 
</g>
<g style="fill:#FFFFFF; fill-opacity:1.0000; stroke:none;">
<circle cx="10.2072" cy="17.6000" r="0.6000" /> 
</g>
<g style="fill:#FFFFFF; fill-opacity:1.0000; stroke:none;">
<circle cx="20.5372" cy="44.9600" r="0.6000" /> 
</g>
<g style="fill:#FFFFFF; fill-opacity:1.0000; stroke:none;">
<circle cx="10.0272" cy="44.8800" r="0.6000" /> 
</g>
<g style="fill:#FFFFFF; fill-opacity:1.0000; stroke:none;">
<circle cx="7.6572" cy="26.4900" r="0.6000" /> 
</g>
<g style="fill:#FFFFFF; fill-opacity:1.0000; stroke:none;">
<circle cx="12.3272" cy="23.7800" r="0.6000" /> 
</g>
<g style="fill:#FFFFFF; fill-opacity:1.0000; stroke:none;">
<circle cx="4.8272" cy="43.8800" r="0.6000" /> 
</g>
<g style="fill:#FFFFFF; fill-opacity:1.0000; stroke:none;">
<circle cx="22.7372" cy="42.2500" r="0.6000" /> 
</g>
<g style="fill:#FFFFFF; fill-opacity:1.0000; stroke:none;">
<circle cx="11.9822" cy="16.7900" r="0.6000" /> 
</g>
<g style="fill:#FFFFFF; fill-opacity:1.0000; stroke:none;">
<circle cx="12.1772" cy="37.1700" r="0.6000" /> 
</g>
<g style="fill:#FFFFFF; fill-opacity:1.0000; stroke:none;">
<circle cx="14.7172" cy="37.1700" r="0.6000" /> 
</g>
<g style="fill:#FFFFFF; fill-opacity:1.0000; stroke:none;">
<circle cx="7.4372" cy="20.1400" r="0.6000" /> 
</g>
<g style="fill:#FFFFFF; fill-opacity:1.0000; stroke:none;">
<circle cx="7.4372" cy="17.6000" r="0.6000" /> 
</g>
<g style="fill:#FFFFFF; fill-opacity:1.0000; stroke:none;">
<circle cx="7.4372" cy="15.0600" r="0.6000" /> 
</g>
<g style="fill:#FFFFFF; fill-opacity:1.0000; stroke:none;">
<circle cx="7.4372" cy="12.5200" r="0.6000" /> 
</g>
<g style="fill:#FFFFFF; fill-opacity:1.0000; stroke:none;">
<circle cx="7.4372" cy="9.9800" r="0.6000" /> 
</g>
<g style="fill:#FFFFFF; fill-opacity:1.0000; stroke:none;">
<circle cx="7.4372" cy="7.4400" r="0.6000" /> 
</g>
<g style="fill:#FFFFFF; fill-opacity:1.0000; stroke:none;">
<circle cx="7.4372" cy="4.9000" r="0.6000" /> 
</g>
<g style="fill:#FFFFFF; fill-opacity:1.0000; stroke:none;">
<circle cx="7.4372" cy="2.3600" r="0.6000" /> 
</g>
<g style="fill:#FFFFFF; fill-opacity:1.0000; stroke:none;">
<circle cx="25.0772" cy="2.8300" r="0.6000" /> 
</g>
<g style="fill:#FFFFFF; fill-opacity:1.0000; stroke:none;">
<circle cx="25.0772" cy="5.3700" r="0.6000" /> 
</g>
<g style="fill:#FFFFFF; fill-opacity:1.0000; stroke:none;">
<circle cx="25.0772" cy="7.9100" r="0.6000" /> 
</g>
<g style="fill:#FFFFFF; fill-opacity:1.0000; stroke:none;">
<circle cx="25.0772" cy="10.4500" r="0.6000" /> 
</g>
<g style="fill:#FFFFFF; fill-opacity:1.0000; stroke:none;">
<circle cx="25.0772" cy="12.9900" r="0.6000" /> 
</g>
<g style="fill:#FFFFFF; fill-opacity:1.0000; stroke:none;">
<circle cx="25.0772" cy="15.5300" r="0.6000" /> 
</g>
<g style="fill:#FFFFFF; fill-opacity:1.0000; stroke:none;">
<circle cx="25.0772" cy="18.0700" r="0.6000" /> 
</g>
<g style="fill:#FFFFFF; fill-opacity:1.0000; stroke:none;">
<circle cx="25.0772" cy="20.6100" r="0.6000" /> 
</g>
<g style="fill:#FFFFFF; fill-opacity:1.0000; stroke:none;">
<circle cx="25.0772" cy="23.1500" r="0.6000" /> 
</g>
<g style="fill:#FFFFFF; fill-opacity:1.0000; stroke:none;">
<circle cx="25.0772" cy="25.6900" r="0.6000" /> 
</g>
<g style="fill:#FFFFFF; fill-opacity:1.0000; stroke:none;">
<circle cx="25.0772" cy="28.2300" r="0.6000" /> 
</g>
<g style="fill:#FFFFFF; fill-opacity:1.0000; stroke:none;">
<circle cx="25.0772" cy="30.7700" r="0.6000" /> 
</g>
<g style="fill:#FFFFFF; fill-opacity:1.0000; stroke:none;">
<circle cx="25.0772" cy="33.3100" r="0.6000" /> 
</g>
<g style="fill:#FFFFFF; fill-opacity:1.0000; stroke:none;">
<circle cx="25.0772" cy="35.8500" r="0.6000" /> 
</g>
<g style="fill:#FFFFFF; fill-opacity:1.0000; stroke:none;">
<circle cx="25.0772" cy="38.3900" r="0.6000" /> 
</g>
<g style="fill:#FFFFFF; fill-opacity:1.0000; stroke:none;">
<circle cx="25.0772" cy="40.9300" r="0.6000" /> 
</g>
<g style="fill:#FFFFFF; fill-opacity:1.0000; stroke:none;">
<circle cx="25.0772" cy="43.4700" r="0.6000" /> 
</g>
<g style="fill:#FFFFFF; fill-opacity:1.0000; stroke:none;">
<circle cx="25.0772" cy="46.0100" r="0.6000" /> 
</g>
<g style="fill:#FFFFFF; fill-opacity:1.0000; stroke:none;">
<circle cx="1.9772" cy="2.8100" r="0.6000" /> 
</g>
<g style="fill:#FFFFFF; fill-opacity:1.0000; stroke:none;">
<circle cx="1.9772" cy="5.3500" r="0.6000" /> 
</g>
<g style="fill:#FFFFFF; fill-opacity:1.0000; stroke:none;">
<circle cx="1.9772" cy="7.8900" r="0.6000" /> 
</g>
<g style="fill:#FFFFFF; fill-opacity:1.0000; stroke:none;">
<circle cx="1.9772" cy="10.4300" r="0.6000" /> 
</g>
<g style="fill:#FFFFFF; fill-opacity:1.0000; stroke:none;">
<circle cx="1.9772" cy="12.9700" r="0.6000" /> 
</g>
<g style="fill:#FFFFFF; fill-opacity:1.0000; stroke:none;">
<circle cx="1.9772" cy="15.5100" r="0.6000" /> 
</g>
<g style="fill:#FFFFFF; fill-opacity:1.0000; stroke:none;">
<circle cx="1.9772" cy="18.0500" r="0.6000" /> 
</g>
<g style="fill:#FFFFFF; fill-opacity:1.0000; stroke:none;">
<circle cx="1.9772" cy="20.5900" r="0.6000" /> 
</g>
<g style="fill:#FFFFFF; fill-opacity:1.0000; stroke:none;">
<circle cx="1.9772" cy="23.1300" r="0.6000" /> 
</g>
<g style="fill:#FFFFFF; fill-opacity:1.0000; stroke:none;">
<circle cx="1.9772" cy="25.6700" r="0.6000" /> 
</g>
<g style="fill:#FFFFFF; fill-opacity:1.0000; stroke:none;">
<circle cx="1.9772" cy="28.2100" r="0.6000" /> 
</g>
<g style="fill:#FFFFFF; fill-opacity:1.0000; stroke:none;">
<circle cx="1.9772" cy="30.7500" r="0.6000" /> 
</g>
<g style="fill:#FFFFFF; fill-opacity:1.0000; stroke:none;">
<circle cx="1.9772" cy="33.2900" r="0.6000" /> 
</g>
<g style="fill:#FFFFFF; fill-opacity:1.0000; stroke:none;">
<circle cx="1.9772" cy="35.8300" r="0.6000" /> 
</g>
<g style="fill:#FFFFFF; fill-opacity:1.0000; stroke:none;">
<circle cx="1.9772" cy="38.3700" r="0.6000" /> 
</g>
<g style="fill:#FFFFFF; fill-opacity:1.0000; stroke:none;">
<circle cx="1.9772" cy="40.9100" r="0.6000" /> 
</g>
<g style="fill:#FFFFFF; fill-opacity:1.0000; stroke:none;">
<circle cx="1.9772" cy="43.4500" r="0.6000" /> 
</g>
<g style="fill:#FFFFFF; fill-opacity:1.0000; stroke:none;">
<circle cx="1.9772" cy="45.9900" r="0.6000" /> 
</g> 
</svg>
