<?xml version="1.0" standalone="no"?>
 <!DOCTYPE svg PUBLIC "-//W3C//DTD SVG 1.1//EN" 
 "http://www.w3.org/Graphics/SVG/1.1/DTD/svg11.dtd"> 
<svg
  xmlns:svg="http://www.w3.org/2000/svg"
  xmlns="http://www.w3.org/2000/svg"
  xmlns:xlink="http://www.w3.org/1999/xlink"
  version="1.1"
  width="27.1272mm" height="48.3362mm" viewBox="0.0000 0.0000 27.1272 48.3362">
<title>SVG Image created as d_SMD-F_Cu.svg date 2024/06/09 22:50:31 </title>
  <desc>Image generated by PCBNEW </desc>
<g style="fill:#000000; fill-opacity:1.0000;stroke:#000000; stroke-opacity:1.0000;
stroke-linecap:round; stroke-linejoin:round;"
 transform="translate(0 0) scale(1 1)">
<path style="fill:none; 
stroke:#000000; stroke-width:0.4000; stroke-opacity:1; 
stroke-linecap:round; stroke-linejoin:round;fill:none"
d="M 0.2000,0.2000
26.9500,0.2000
26.9500,48.1400
0.2000,48.1400
Z" /> 
</g>
<g style="fill:none; 
stroke:#000000; stroke-width:0.5000; stroke-opacity:1; 
stroke-linecap:round; stroke-linejoin:round;">
<text x="16.3000" y="47.1800"
transform="scale(-1 1) translate(-32.600000 0)"
textLength="3.5762" font-size="2.6667" lengthAdjust="spacingAndGlyphs"
text-anchor="start" opacity="0">+</text>
<g class="stroked-text"><desc>+</desc>
<path d="M15.4949 46.1473
L13.9711 46.1473
" />
<path d="M14.7330 46.9092
L14.7330 45.3854
" />
</g><text x="13.9000" y="47.1800"
transform="scale(-1 1) translate(-27.800000 0)"
textLength="3.5762" font-size="2.6667" lengthAdjust="spacingAndGlyphs"
text-anchor="start" opacity="0">-</text>
<g class="stroked-text"><desc>-</desc>
<path d="M13.0949 46.1473
L11.5711 46.1473
" />
</g><path style="fill:#000000; fill-opacity:1.0000; stroke:none;fill-rule:evenodd;"
d="M 15.7000,37.9200
14.2000,37.9200
14.2000,36.4200
15.7000,36.4200
Z" /> 
</g>
<g style="fill:#000000; fill-opacity:1.0000; stroke:none;">
<circle cx="12.4100" cy="37.1700" r="0.7500" /> 
<circle cx="19.6900" cy="20.1400" r="0.7500" /> 
</g>
<g style="fill:#000000; fill-opacity:1.0000; stroke:none;">
<circle cx="19.6900" cy="17.6000" r="0.7500" /> 
</g>
<g style="fill:#000000; fill-opacity:1.0000; stroke:none;">
<circle cx="19.6900" cy="15.0600" r="0.7500" /> 
</g>
<g style="fill:#000000; fill-opacity:1.0000; stroke:none;">
<circle cx="19.6900" cy="12.5200" r="0.7500" /> 
</g>
<g style="fill:#000000; fill-opacity:1.0000; stroke:none;">
<circle cx="19.6900" cy="9.9800" r="0.7500" /> 
</g>
<g style="fill:#000000; fill-opacity:1.0000; stroke:none;">
<circle cx="19.6900" cy="7.4400" r="0.7500" /> 
</g>
<g style="fill:#000000; fill-opacity:1.0000; stroke:none;">
<circle cx="19.6900" cy="4.9000" r="0.7500" /> 
</g>
<g style="fill:#000000; fill-opacity:1.0000; stroke:none;">
<circle cx="19.6900" cy="2.3600" r="0.7500" /> 
<path style="fill:#000000; fill-opacity:1.0000; stroke:none;fill-rule:evenodd;"
d="M 1.3000,3.5800
1.3000,2.0800
2.8000,2.0800
2.8000,3.5800
Z" /> 
</g>
<g style="fill:#000000; fill-opacity:1.0000; stroke:none;">
<circle cx="2.0500" cy="5.3700" r="0.7500" /> 
<circle cx="2.0500" cy="7.9100" r="0.7500" /> 
<circle cx="2.0500" cy="10.4500" r="0.7500" /> 
<circle cx="2.0500" cy="12.9900" r="0.7500" /> 
<circle cx="2.0500" cy="15.5300" r="0.7500" /> 
<circle cx="2.0500" cy="18.0700" r="0.7500" /> 
<circle cx="2.0500" cy="20.6100" r="0.7500" /> 
<circle cx="2.0500" cy="23.1500" r="0.7500" /> 
<circle cx="2.0500" cy="25.6900" r="0.7500" /> 
<circle cx="2.0500" cy="28.2300" r="0.7500" /> 
<circle cx="2.0500" cy="30.7700" r="0.7500" /> 
<circle cx="2.0500" cy="33.3100" r="0.7500" /> 
<circle cx="2.0500" cy="35.8500" r="0.7500" /> 
<circle cx="2.0500" cy="38.3900" r="0.7500" /> 
<circle cx="2.0500" cy="40.9300" r="0.7500" /> 
<circle cx="2.0500" cy="43.4700" r="0.7500" /> 
<circle cx="2.0500" cy="46.0100" r="0.7500" /> 
<path style="fill:#000000; fill-opacity:1.0000; stroke:none;fill-rule:evenodd;"
d="M 24.4000,3.5600
24.4000,2.0600
25.9000,2.0600
25.9000,3.5600
Z" /> 
<circle cx="25.1500" cy="5.3500" r="0.7500" /> 
<circle cx="25.1500" cy="7.8900" r="0.7500" /> 
<circle cx="25.1500" cy="10.4300" r="0.7500" /> 
<circle cx="25.1500" cy="12.9700" r="0.7500" /> 
<circle cx="25.1500" cy="15.5100" r="0.7500" /> 
<circle cx="25.1500" cy="18.0500" r="0.7500" /> 
<circle cx="25.1500" cy="20.5900" r="0.7500" /> 
<circle cx="25.1500" cy="23.1300" r="0.7500" /> 
<circle cx="25.1500" cy="25.6700" r="0.7500" /> 
<circle cx="25.1500" cy="28.2100" r="0.7500" /> 
<circle cx="25.1500" cy="30.7500" r="0.7500" /> 
<circle cx="25.1500" cy="33.2900" r="0.7500" /> 
<circle cx="25.1500" cy="35.8300" r="0.7500" /> 
<circle cx="25.1500" cy="38.3700" r="0.7500" /> 
<circle cx="25.1500" cy="40.9100" r="0.7500" /> 
<circle cx="25.1500" cy="43.4500" r="0.7500" /> 
<circle cx="25.1500" cy="45.9900" r="0.7500" /> 
<circle cx="16.9200" cy="17.6000" r="0.7500" /> 
</g>
<g style="fill:#000000; fill-opacity:1.0000; stroke:none;">
<circle cx="6.5900" cy="44.9600" r="0.7500" /> 
</g>
<g style="fill:#000000; fill-opacity:1.0000; stroke:none;">
<circle cx="17.1000" cy="44.8800" r="0.7500" /> 
</g>
<g style="fill:#000000; fill-opacity:1.0000; stroke:none;">
<circle cx="19.4700" cy="26.4900" r="0.7500" /> 
</g>
<g style="fill:#000000; fill-opacity:1.0000; stroke:none;">
<circle cx="14.8000" cy="23.7800" r="0.7500" /> 
</g>
<g style="fill:#000000; fill-opacity:1.0000; stroke:none;">
<circle cx="22.3000" cy="43.8800" r="0.7500" /> 
</g>
<g style="fill:#000000; fill-opacity:1.0000; stroke:none;">
<circle cx="4.3900" cy="42.2500" r="0.7500" /> 
</g>
<g style="fill:#000000; fill-opacity:1.0000; stroke:none;">
<circle cx="15.1450" cy="16.7900" r="0.7500" /> 
</g>
<g style="fill:none; 
stroke:#000000; stroke-width:0.8000; stroke-opacity:1; 
stroke-linecap:round; stroke-linejoin:round;">
<path d="M12.4000 26.6000
L12.4000 37.1700
" />
<path d="M15.9000 43.6800
L13.9500 43.6800
" />
<path d="M12.4000 37.1700
L12.4000 43.4400
" />
<path d="M16.9200 17.6000
L16.5800 17.6000
" />
<path d="M13.9500 43.6800
L12.4000 42.1300
" />
<path d="M16.5800 17.6000
L12.4000 21.7800
" />
<path d="M19.4700 26.4900
L12.5100 26.4900
" />
<path d="M12.5100 26.4900
L12.4000 26.6000
" />
<path d="M12.4000 42.1300
L12.4000 37.1700
" />
<path d="M17.1000 44.8800
L15.9000 43.6800
" />
<path d="M17.7000 45.4800
L17.7000 47.8800
" />
<path d="M10.8600 44.9800
L10.8400 44.9600
" />
<path d="M10.8400 44.9600
L6.5900 44.9600
" />
<path d="M12.4000 21.7800
L12.4000 26.6000
" />
<path d="M12.4000 43.4400
L10.8600 44.9800
" />
<path d="M17.1000 44.8800
L17.7000 45.4800
" />
</g>
<g style="fill:none; 
stroke:#000000; stroke-width:0.7000; stroke-opacity:1; 
stroke-linecap:round; stroke-linejoin:round;">
<path d="M4.6000 27.3350
L4.6000 42.0400
" />
<path d="M15.1450 16.7900
L4.6000 27.3350
" />
<path d="M4.6000 42.0400
L4.3900 42.2500
" />
</g>
<g style="fill:none; 
stroke:#000000; stroke-width:0.8000; stroke-opacity:1; 
stroke-linecap:round; stroke-linejoin:round;">
<path d="M22.3000 43.8800
L22.3000 26.0800
" />
<path d="M22.3000 26.0800
L20.0000 23.7800
" />
<path d="M20.0000 23.7800
L14.8000 23.7800
" />
<path style="fill:#000000; fill-opacity:1.0000; stroke:none;fill-rule:evenodd;"
d="M 26.9869,0.2297
27.0562,0.2849
27.0946,0.3647
27.0996,0.4094
27.0963,1.9848
27.0764,2.0711
27.0210,2.1402
26.9412,2.1784
26.8526,2.1783
26.7729,2.1397
26.7178,2.0703
26.6996,2.0066
26.6854,1.8807
26.6258,1.7105
26.5298,1.5577
26.5298,1.5577
26.5298,1.5577
26.4023,1.4302
26.4023,1.4302
26.4023,1.4302
26.2495,1.3342
26.2495,1.3342
26.2495,1.3342
26.0793,1.2746
26.0793,1.2746
26.0793,1.2746
25.9450,1.2595
24.3550,1.2595
24.2207,1.2746
24.2207,1.2746
24.2207,1.2746
24.0505,1.3342
24.0505,1.3342
23.8977,1.4302
23.7702,1.5577
23.6742,1.7105
23.6742,1.7105
23.6151,1.8794
23.6146,1.8807
23.5995,2.0150
23.5995,3.6050
23.6146,3.7393
23.6146,3.7393
23.6146,3.7393
23.6742,3.9095
23.6742,3.9095
23.7702,4.0623
23.8777,4.1698
23.9249,4.2448
23.9348,4.3328
23.9055,4.4164
23.8961,4.4293
23.8963,4.4295
23.8917,4.4358
23.7642,4.6439
23.7642,4.6439
23.6708,4.8694
23.6708,4.8694
23.6139,5.1067
23.5947,5.3500
23.6139,5.5933
23.6708,5.8306
23.6708,5.8306
23.7642,6.0561
23.7642,6.0561
23.8917,6.2642
24.0545,6.4547
24.0956,6.5332
24.1022,6.5839
24.1022,6.6559
24.0825,6.7423
24.0545,6.7852
23.8917,6.9758
23.7642,7.1839
23.7642,7.1839
23.6708,7.4094
23.6708,7.4094
23.6139,7.6467
23.5947,7.8900
23.6139,8.1333
23.6708,8.3706
23.6708,8.3706
23.7642,8.5961
23.7642,8.5961
23.8917,8.8042
24.0553,8.9957
24.0532,8.9975
24.0921,9.0595
24.1033,9.1251
24.1033,9.1947
24.0836,9.2810
24.0539,9.3231
24.0553,9.3243
24.0502,9.3302
24.0502,9.3302
24.0157,9.3707
23.8917,9.5158
23.7642,9.7239
23.7642,9.7239
23.6708,9.9494
23.6708,9.9494
23.6139,10.1867
23.5947,10.4300
23.6139,10.6733
23.6708,10.9106
23.6708,10.9106
23.7642,11.1361
23.7642,11.1361
23.8917,11.3442
24.0553,11.5357
24.0534,11.5373
24.0932,11.6006
24.1044,11.6663
24.1044,11.7335
24.0848,11.8199
24.0540,11.8632
24.0553,11.8643
24.0502,11.8702
24.0502,11.8702
24.0157,11.9107
23.8917,12.0558
23.7642,12.2639
23.7642,12.2639
23.6708,12.4894
23.6708,12.4894
23.6139,12.7267
23.5947,12.9700
23.6139,13.2133
23.6708,13.4506
23.6708,13.4506
23.7642,13.6761
23.7642,13.6761
23.8917,13.8842
23.9244,13.9224
24.0404,14.0582
24.0553,14.0757
24.0537,14.0771
24.0944,14.1417
24.1055,14.2074
24.1055,14.2724
24.0859,14.3588
24.0542,14.4034
24.0553,14.4043
24.0502,14.4102
24.0502,14.4102
24.0222,14.4430
23.8917,14.5958
23.7642,14.8039
23.7642,14.8039
23.6708,15.0294
23.6708,15.0294
23.6139,15.2667
23.5947,15.5100
23.6139,15.7533
23.6708,15.9906
23.6708,15.9906
23.7642,16.2161
23.7642,16.2161
23.8917,16.4242
24.0553,16.6157
24.0540,16.6168
24.0955,16.6829
24.1066,16.7485
24.1067,16.8113
24.0870,16.8977
24.0544,16.9436
24.0553,16.9443
24.0502,16.9502
24.0502,16.9502
24.0317,16.9719
23.8917,17.1358
23.7642,17.3439
23.7642,17.3439
23.6708,17.5694
23.6708,17.5694
23.6139,17.8067
23.5947,18.0500
23.6139,18.2933
23.6708,18.5306
23.6708,18.5306
23.7642,18.7561
23.7642,18.7561
23.8917,18.9642
24.0553,19.1557
24.0543,19.1566
24.0966,19.2240
24.1078,19.2896
24.1078,19.3502
24.0881,19.4365
24.0546,19.4837
24.0553,19.4843
24.0502,19.4902
24.0502,19.4902
24.0157,19.5307
23.8917,19.6758
23.7642,19.8839
23.7642,19.8839
23.6708,20.1094
23.6708,20.1094
23.6139,20.3467
23.5947,20.5900
23.6139,20.8333
23.6708,21.0706
23.6708,21.0706
23.7642,21.2961
23.7642,21.2961
23.8917,21.5042
23.9897,21.6189
24.0386,21.6761
24.0502,21.6898
24.0506,21.6901
24.0507,21.6903
24.0553,21.6957
24.0545,21.6964
24.0977,21.7651
24.1089,21.8307
24.1089,21.8891
24.0892,21.9754
24.0549,22.0239
24.0553,22.0243
24.0509,22.0295
24.0506,22.0299
24.0502,22.0302
23.8917,22.2158
23.7642,22.4239
23.7642,22.4239
23.6708,22.6494
23.6708,22.6494
23.6139,22.8867
23.5947,23.1300
23.6139,23.3733
23.6708,23.6106
23.6708,23.6106
23.7642,23.8361
23.7642,23.8361
23.8917,24.0442
24.0502,24.2298
24.0517,24.2312
24.0523,24.2322
24.0553,24.2357
24.0548,24.2361
24.0988,24.3062
24.1100,24.3719
24.1100,24.4279
24.0903,24.5143
24.0551,24.5641
24.0553,24.5643
24.0528,24.5672
24.0518,24.5687
24.0503,24.5702
23.8917,24.7558
23.7642,24.9639
23.7642,24.9639
23.6708,25.1894
23.6708,25.1894
23.6390,25.3221
23.5996,25.4014
23.5298,25.4559
23.4432,25.4746
23.3571,25.4539
23.2885,25.3979
23.2845,25.3926
23.2428,25.3353
23.2157,25.2979
22.0856,24.1679
20.7821,22.8643
20.7568,22.8459
20.6292,22.7532
20.5914,22.7340
20.4608,22.6675
20.4608,22.6675
20.2811,22.6091
20.2811,22.6091
20.0945,22.5795
15.8552,22.5795
15.7689,22.5598
15.7260,22.5318
15.7142,22.5217
15.7142,22.5217
15.5872,22.4439
15.5061,22.3942
15.5061,22.3942
15.2806,22.3008
15.2806,22.3008
15.2806,22.3008
15.0433,22.2439
14.8000,22.2247
14.5567,22.2439
14.3194,22.3008
14.3194,22.3008
14.0939,22.3942
14.0939,22.3942
13.8858,22.5217
13.7002,22.6802
13.5417,22.8658
13.4142,23.0739
13.4142,23.0739
13.3208,23.2994
13.3208,23.2994
13.2639,23.5367
13.2447,23.7800
13.2639,24.0233
13.3208,24.2606
13.3208,24.2606
13.4142,24.4861
13.4142,24.4861
13.5417,24.6942
13.7002,24.8798
13.8858,25.0383
14.0939,25.1658
14.0939,25.1658
14.3194,25.2592
14.3194,25.2592
14.3194,25.2592
14.4635,25.2938
14.5567,25.3161
14.5567,25.3161
14.5567,25.3161
14.8000,25.3353
15.0433,25.3161
15.0433,25.3161
15.0433,25.3161
15.1103,25.3001
15.2806,25.2592
15.4491,25.1894
15.5061,25.1658
15.5061,25.1658
15.7142,25.0383
15.7220,25.0316
15.7260,25.0282
15.8044,24.9871
15.8552,24.9805
19.4203,24.9805
19.5067,25.0002
19.5610,25.0388
21.0412,26.5190
21.0883,26.5940
21.0995,26.6597
21.0995,42.8248
21.0798,42.9111
21.0518,42.9540
21.0417,42.9658
21.0417,42.9658
20.9142,43.1739
20.9142,43.1739
20.8208,43.3994
20.8208,43.3994
20.7639,43.6367
20.7447,43.8800
20.7639,44.1233
20.8208,44.3606
20.8208,44.3606
20.9142,44.5861
20.9142,44.5861
21.0417,44.7942
21.2002,44.9798
21.3858,45.1383
21.5939,45.2658
21.5939,45.2658
21.8194,45.3592
21.8194,45.3592
21.8194,45.3592
21.9635,45.3938
22.0567,45.4161
22.0567,45.4161
22.0567,45.4161
22.3000,45.4353
22.5433,45.4161
22.5433,45.4161
22.5433,45.4161
22.5857,45.4060
22.7806,45.3592
22.9140,45.3039
23.0061,45.2658
23.0061,45.2658
23.2142,45.1383
23.3998,44.9798
23.5583,44.7942
23.6858,44.5861
23.6907,44.5743
23.7419,44.5021
23.8194,44.4592
23.9078,44.4542
23.9897,44.4881
24.0258,44.5212
24.0502,44.5498
24.0558,44.5553
24.0547,44.5563
24.1020,44.6199
24.1190,44.7001
24.1200,47.0800
24.1200,47.0800
24.1200,47.0800
26.2700,47.1100
26.2683,44.6015
26.2880,44.5152
26.3160,44.4722
26.4083,44.3642
26.5358,44.1561
26.6258,43.9387
26.6771,43.8665
26.7546,43.8237
26.8430,43.8187
26.9248,43.8526
26.9838,43.9186
27.0083,44.0037
27.0087,44.0153
27.0004,47.9714
26.9805,48.0577
26.9252,48.1268
26.8453,48.1651
26.8014,48.1700
16.7494,48.1700
16.6630,48.1503
16.5938,48.0951
16.5554,48.0153
16.5504,47.9710
16.5504,44.3299
12.9156,44.3299
12.9156,44.8928
12.8958,44.9792
12.8406,45.0484
12.7608,45.0868
12.7166,45.0918
10.5156,45.0918
10.5156,47.2028
12.7166,47.2028
12.8029,47.2225
12.8721,47.2778
12.9106,47.3576
12.9156,47.4018
12.9156,47.9710
12.8958,48.0573
12.8406,48.1266
12.7608,48.1650
12.7166,48.1700
0.3494,48.1700
0.2631,48.1503
0.1938,48.0951
0.1554,48.0153
0.1504,47.9706
0.1526,46.9242
0.1536,46.4337
0.1735,46.3474
0.2289,46.2783
0.3087,46.2401
0.3973,46.2402
0.4770,46.2788
0.5321,46.3482
0.5461,46.3877
0.5708,46.4906
0.5708,46.4906
0.6642,46.7161
0.6642,46.7161
0.7917,46.9242
0.9502,47.1098
1.1358,47.2683
1.3439,47.3958
1.3439,47.3958
1.5694,47.4892
1.5694,47.4892
1.5694,47.4892
1.7135,47.5238
1.8067,47.5461
1.8067,47.5461
1.8067,47.5461
2.0500,47.5653
2.2933,47.5461
2.2933,47.5461
2.2933,47.5461
2.3357,47.5360
2.5306,47.4892
2.6139,47.4547
2.7561,47.3958
2.7561,47.3958
2.9642,47.2683
3.1498,47.1098
3.3083,46.9242
3.4358,46.7161
3.5292,46.4906
3.5861,46.2533
3.6053,46.0100
3.5861,45.7667
3.5837,45.7567
3.5510,45.6205
3.5292,45.5294
3.5292,45.5294
3.4358,45.3039
3.4358,45.3039
3.3083,45.0958
3.2512,45.0290
3.1498,44.9102
3.1497,44.9102
3.1276,44.8913
3.0747,44.8203
3.0580,44.7333
3.0806,44.6477
3.1276,44.5887
3.1498,44.5698
3.3083,44.3842
3.4358,44.1761
3.5292,43.9506
3.5575,43.8325
3.5968,43.7532
3.6667,43.6987
3.7533,43.6800
3.8272,43.6951
3.9094,43.7292
4.0386,43.7602
4.1467,43.7861
4.1467,43.7861
4.1467,43.7861
4.3900,43.8053
4.6333,43.7861
4.6333,43.7861
4.6333,43.7861
4.6757,43.7760
4.8706,43.7292
4.9894,43.6800
5.0961,43.6358
5.0961,43.6358
5.1835,43.5822
5.3042,43.5083
5.4898,43.3498
5.6483,43.1642
5.7758,42.9561
5.8692,42.7306
5.9261,42.4933
5.9453,42.2500
5.9261,42.0067
5.9221,41.9900
5.8871,41.8442
5.8692,41.7694
5.8393,41.6973
5.7758,41.5439
5.7722,41.5369
5.7746,41.5357
5.7514,41.4652
5.7505,41.4465
5.7505,36.3750
13.3995,36.3750
13.3995,37.9650
13.4146,38.0993
13.4146,38.0993
13.4146,38.0993
13.4742,38.2695
13.4742,38.2695
13.4742,38.2695
13.5499,38.3900
13.5702,38.4223
13.6977,38.5498
13.6977,38.5498
13.6977,38.5498
13.8505,38.6458
14.0207,38.7054
14.1550,38.7205
14.1550,38.7205
15.7450,38.7205
15.7450,38.7205
15.8793,38.7054
16.0495,38.6458
16.2023,38.5498
16.3298,38.4223
16.4258,38.2695
16.4854,38.0993
16.5005,37.9650
16.5005,36.3750
16.4854,36.2407
16.4258,36.0705
16.3298,35.9177
16.3298,35.9177
16.3298,35.9177
16.2023,35.7902
16.2023,35.7902
16.2023,35.7902
16.0495,35.6942
16.0495,35.6942
16.0495,35.6942
15.8793,35.6346
15.8793,35.6346
15.8793,35.6346
15.7450,35.6195
14.1550,35.6195
14.0207,35.6346
14.0207,35.6346
14.0207,35.6346
13.8505,35.6942
13.8505,35.6942
13.6977,35.7902
13.5702,35.9177
13.4742,36.0705
13.4742,36.0705
13.4146,36.2407
13.4146,36.2407
13.3995,36.3750
5.7505,36.3750
5.7505,27.8940
5.7702,27.8076
5.8088,27.7533
15.1710,18.3911
15.2460,18.3440
15.2961,18.3334
15.3883,18.3261
15.3883,18.3261
15.3883,18.3261
15.4418,18.3133
15.6256,18.2692
15.7235,18.2286
15.8511,18.1758
15.8511,18.1758
16.0592,18.0483
16.2448,17.8898
16.4033,17.7042
16.5308,17.4961
16.6242,17.2706
16.6811,17.0333
16.7003,16.7900
16.6811,16.5467
16.6242,16.3094
16.5938,16.2361
16.5308,16.0839
16.5308,16.0839
16.4033,15.8758
16.2448,15.6902
16.0592,15.5317
15.8511,15.4042
15.8511,15.4042
15.6256,15.3108
15.6256,15.3108
15.6256,15.3108
15.3883,15.2539
15.1450,15.2347
14.9017,15.2539
14.6644,15.3108
14.6644,15.3108
14.4389,15.4042
14.4389,15.4042
14.2308,15.5317
14.0452,15.6902
13.8867,15.8758
13.7592,16.0839
13.7592,16.0839
13.6658,16.3094
13.6658,16.3094
13.6089,16.5467
13.6016,16.6389
13.5752,16.7235
13.5439,16.7640
8.6888,21.6192
3.8505,26.4574
3.8505,26.4574
3.8122,26.4957
3.8066,26.5014
3.7316,26.5485
3.6436,26.5584
3.5600,26.5292
3.4973,26.4665
3.4681,26.3830
3.4780,26.2949
3.4820,26.2845
3.5292,26.1706
3.5861,25.9333
3.6053,25.6900
3.5861,25.4467
3.5859,25.4456
3.5521,25.3050
3.5292,25.2094
3.5292,25.2094
3.4358,24.9839
3.4358,24.9839
3.3083,24.7758
3.2385,24.6942
3.1498,24.5902
3.1498,24.5902
3.1449,24.5861
3.0920,24.5150
3.0751,24.4340
3.0752,24.4044
3.0952,24.3182
3.1450,24.2539
3.1498,24.2498
3.3083,24.0642
3.4358,23.8561
3.5292,23.6306
3.5861,23.3933
3.6053,23.1500
3.5861,22.9067
3.5820,22.8894
3.5638,22.8135
3.5292,22.6694
3.5284,22.6675
3.4358,22.4439
3.4358,22.4439
3.3083,22.2358
3.1840,22.0903
3.1498,22.0502
3.1498,22.0502
3.1442,22.0447
3.1460,22.0429
3.1015,21.9831
3.0846,21.9021
3.0848,21.8563
3.1048,21.7700
3.1459,21.7169
3.1442,21.7153
3.1498,21.7098
3.1498,21.7098
3.3083,21.5242
3.4358,21.3161
3.5292,21.0906
3.5861,20.8533
3.6053,20.6100
3.5861,20.3667
3.5813,20.3467
3.5610,20.2619
3.5292,20.1294
3.5209,20.1094
3.4358,19.9039
3.4358,19.9039
3.3083,19.6958
3.2217,19.5944
3.1498,19.5102
3.1498,19.5102
3.1447,19.5043
3.1462,19.5030
3.1052,19.4378
3.0941,19.3714
3.0943,19.3069
3.1143,19.2206
3.1457,19.1766
3.1447,19.1757
3.2520,19.0500
3.3083,18.9842
3.4358,18.7761
3.5292,18.5506
3.5813,18.3334
3.5861,18.3133
3.5861,18.3133
3.5861,18.3133
3.6053,18.0700
3.5861,17.8267
3.5813,17.8067
3.5417,17.6415
3.5292,17.5894
3.5209,17.5694
3.4358,17.3639
3.4358,17.3639
3.3083,17.1558
3.1806,17.0064
3.1512,16.9719
3.1101,16.8935
3.1035,16.8420
3.1039,16.7562
3.1239,16.6699
3.1515,16.6277
3.1618,16.6157
3.3083,16.4442
3.4358,16.2361
3.5292,16.0106
3.5861,15.7733
3.6053,15.5300
3.5861,15.2867
3.5813,15.2667
3.5604,15.1796
3.5292,15.0494
3.5209,15.0294
3.4358,14.8239
3.4358,14.8239
3.3083,14.6158
3.1607,14.4430
3.1196,14.3646
3.1130,14.3131
3.1134,14.2050
3.1334,14.1187
3.1611,14.0765
3.3083,13.9042
3.4358,13.6961
3.5292,13.4706
3.5861,13.2333
3.6053,12.9900
3.5861,12.7467
3.5813,12.7267
3.5638,12.6535
3.5292,12.5094
3.5292,12.5094
3.4358,12.2839
3.4358,12.2839
3.3083,12.0758
3.1702,11.9141
3.1291,11.8357
3.1225,11.7841
3.1230,11.6538
3.1430,11.5675
3.1706,11.5253
3.3083,11.3642
3.4358,11.1561
3.5292,10.9306
3.5861,10.6933
3.6053,10.4500
3.5861,10.2067
3.5813,10.1867
3.5638,10.1135
3.5292,9.9694
3.5292,9.9694
3.4358,9.7439
3.4358,9.7439
3.3083,9.5358
3.1796,9.3852
3.1385,9.3068
3.1320,9.2552
3.1325,9.1026
3.1526,9.0163
3.1802,8.9741
3.1812,8.9730
3.3083,8.8242
3.4358,8.6161
3.4526,8.5754
3.5292,8.3906
3.5292,8.3906
3.5292,8.3906
3.5861,8.1533
3.6053,7.9100
3.5861,7.6667
3.5813,7.6467
3.5638,7.5735
3.5292,7.4294
3.5209,7.4094
3.4358,7.2039
3.4358,7.2039
3.3083,6.9958
3.2480,6.9252
3.1891,6.8563
3.1480,6.7779
3.1414,6.7263
3.1421,6.5514
3.1621,6.4651
3.1898,6.4229
3.3083,6.2842
3.4358,6.0761
3.5292,5.8506
3.5861,5.6133
3.6053,5.3700
3.5861,5.1267
3.5813,5.1067
3.5638,5.0335
3.5292,4.8894
3.5292,4.8894
3.4358,4.6639
3.4358,4.6639
3.3083,4.4558
3.3037,4.4495
3.3055,4.4481
3.2705,4.3813
3.2676,4.2928
3.3033,4.2118
3.3222,4.1898
3.4298,4.0823
3.5258,3.9295
3.5854,3.7593
3.6005,3.6250
3.6005,2.3600
18.1347,2.3600
18.1539,2.6033
18.2108,2.8406
18.2108,2.8406
18.3042,3.0661
18.3042,3.0661
18.4317,3.2742
18.4961,3.3495
18.5372,3.4280
18.5438,3.4783
18.5445,3.7799
18.5250,3.8663
18.4968,3.9096
18.4317,3.9858
18.3042,4.1939
18.3042,4.1939
18.2108,4.4194
18.2108,4.4194
18.1539,4.6567
18.1347,4.9000
18.1539,5.1433
18.2108,5.3806
18.2108,5.3806
18.3042,5.6061
18.3042,5.6061
18.4047,5.7701
18.4317,5.8142
18.5023,5.8968
18.5434,5.9753
18.5500,6.0256
18.5507,6.3126
18.5312,6.3990
18.5030,6.4423
18.4317,6.5258
18.4317,6.5258
18.3042,6.7339
18.3042,6.7339
18.2108,6.9594
18.2108,6.9594
18.1539,7.1967
18.1347,7.4400
18.1539,7.6833
18.2108,7.9206
18.2108,7.9206
18.3042,8.1461
18.3042,8.1461
18.4047,8.3101
18.4317,8.3542
18.4872,8.4191
18.5086,8.4441
18.5497,8.5226
18.5563,8.5729
18.5569,8.8454
18.5374,8.9317
18.5092,8.9751
18.4317,9.0658
18.3042,9.2739
18.3042,9.2739
18.2108,9.4994
18.2108,9.4994
18.1539,9.7367
18.1347,9.9800
18.1539,10.2233
18.2108,10.4606
18.2108,10.4606
18.3042,10.6861
18.3042,10.6861
18.4317,10.8942
18.5148,10.9914
18.5559,11.0699
18.5625,11.1202
18.5631,11.3781
18.5436,11.4645
18.5154,11.5078
18.4317,11.6058
18.3042,11.8139
18.3042,11.8139
18.2108,12.0394
18.2108,12.0394
18.1539,12.2767
18.1347,12.5200
18.1539,12.7633
18.2108,13.0006
18.2108,13.0006
18.3042,13.2261
18.3042,13.2261
18.4317,13.4342
18.5210,13.5387
18.5621,13.6172
18.5687,13.6675
18.5693,13.9108
18.5498,13.9972
18.5216,14.0406
18.4317,14.1458
18.3042,14.3539
18.3042,14.3539
18.2108,14.5794
18.2108,14.5794
18.1539,14.8167
18.1347,15.0600
18.1539,15.3033
18.2108,15.5406
18.2108,15.5406
18.3042,15.7661
18.3042,15.7661
18.4317,15.9742
18.5273,16.0860
18.5684,16.1645
18.5750,16.2148
18.5817,18.9763
18.5622,19.0627
18.5340,19.1060
18.4317,19.2258
18.3042,19.4339
18.3042,19.4339
18.2108,19.6594
18.2108,19.6594
18.1539,19.8967
18.1347,20.1400
18.1539,20.3833
18.2108,20.6206
18.2108,20.6206
18.3042,20.8461
18.3042,20.8461
18.4317,21.0542
18.5398,21.1807
18.5808,21.2591
18.5874,21.3094
18.5880,21.5200
18.5880,21.5200
18.5880,21.5200
18.9085,21.5128
18.9891,21.5279
19.2094,21.6192
19.3535,21.6538
19.4467,21.6761
19.4467,21.6761
19.4467,21.6761
19.6900,21.6953
19.9333,21.6761
19.9333,21.6761
19.9333,21.6761
19.9757,21.6660
20.1706,21.6192
20.3961,21.5258
20.4287,21.5058
20.5126,21.4775
20.5282,21.4765
20.8180,21.4700
20.8169,21.2824
20.8362,21.1960
20.8646,21.1521
20.9483,21.0542
21.0758,20.8461
21.0811,20.8333
21.1692,20.6206
21.1692,20.6206
21.1692,20.6206
21.2261,20.3833
21.2453,20.1400
21.2261,19.8967
21.2231,19.8839
21.2038,19.8035
21.1692,19.6594
21.1232,19.5484
21.0758,19.4339
21.0758,19.4339
20.9483,19.2258
20.8522,19.1133
20.8111,19.0348
20.8045,18.9851
20.8044,18.9763
20.7896,16.2345
20.8088,16.1480
20.8372,16.1042
20.9483,15.9742
21.0758,15.7661
21.0811,15.7533
21.1692,15.5406
21.1692,15.5406
21.1692,15.5406
21.2261,15.3033
21.2453,15.0600
21.2261,14.8167
21.2231,14.8039
21.2038,14.7235
21.1692,14.5794
21.1692,14.5794
21.0758,14.3539
21.0758,14.3539
20.9737,14.1873
20.9483,14.1458
20.9483,14.1458
20.9483,14.1458
20.8244,14.0008
20.7834,13.9224
20.7768,13.8727
20.7759,13.7105
20.7951,13.6241
20.8236,13.5802
20.9483,13.4342
21.0758,13.2261
21.0811,13.2133
21.1692,13.0006
21.1692,13.0006
21.1692,13.0006
21.2261,12.7633
21.2453,12.5200
21.2261,12.2767
21.2231,12.2639
21.2038,12.1835
21.1692,12.0394
21.1008,11.8743
21.0758,11.8139
21.0758,11.8139
20.9490,11.6071
20.9483,11.6058
20.9483,11.6058
20.9483,11.6058
20.8106,11.4446
20.7695,11.3662
20.7629,11.3165
20.7622,11.1865
20.7814,11.1001
20.8099,11.0562
20.9037,10.9464
20.9483,10.8942
21.0758,10.6861
21.0811,10.6733
21.1692,10.4606
21.1692,10.4606
21.1692,10.4606
21.2261,10.2233
21.2453,9.9800
21.2261,9.7367
21.2231,9.7239
21.2038,9.6435
21.1692,9.4994
21.1219,9.3852
21.0758,9.2739
21.0758,9.2739
20.9502,9.0690
20.9483,9.0658
20.9483,9.0658
20.9483,9.0658
20.7967,8.8884
20.7556,8.8099
20.7490,8.7602
20.7485,8.6625
20.7678,8.5761
20.7962,8.5322
20.8252,8.4982
20.9483,8.3542
21.0758,8.1461
21.0811,8.1333
21.1692,7.9206
21.1692,7.9206
21.1692,7.9206
21.2261,7.6833
21.2453,7.4400
21.2261,7.1967
21.2231,7.1839
21.2038,7.1035
21.1692,6.9594
21.1237,6.8495
21.0758,6.7339
21.0758,6.7339
20.9483,6.5258
20.7847,6.3343
20.7865,6.3328
20.7464,6.2690
20.7352,6.2043
20.7348,6.1382
20.7541,6.0517
20.7859,6.0067
20.7847,6.0057
20.9483,5.8142
20.9483,5.8142
21.0758,5.6061
21.0811,5.5933
21.1692,5.3806
21.1692,5.3806
21.1692,5.3806
21.2261,5.1433
21.2453,4.9000
21.2261,4.6567
21.2231,4.6439
21.2038,4.5635
21.1692,4.4194
21.1692,4.4194
21.0758,4.1939
21.0758,4.1939
20.9598,4.0047
20.9483,3.9858
20.9483,3.9858
20.9483,3.9858
20.8727,3.8973
20.7898,3.8002
20.7898,3.8002
20.7842,3.7947
20.7853,3.7936
20.7383,3.7303
20.7213,3.6512
20.7212,3.6250
20.7211,3.6112
20.7404,3.5247
20.7852,3.4662
20.7842,3.4653
20.7898,3.4598
20.7898,3.4598
20.7898,3.4598
20.9483,3.2742
21.0758,3.0661
21.1692,2.8406
21.2261,2.6033
21.2453,2.3600
21.2261,2.1167
21.1692,1.8794
21.1189,1.7579
21.0758,1.6539
21.0758,1.6539
20.9509,1.4502
20.9483,1.4458
20.9483,1.4458
20.9483,1.4458
20.7898,1.2602
20.7898,1.2602
20.7898,1.2602
20.7734,1.2463
20.7597,1.2334
20.6909,1.1624
20.6789,1.1592
20.6426,1.1345
20.6042,1.1017
20.3961,0.9742
20.3961,0.9742
20.1706,0.8808
20.1706,0.8808
20.1706,0.8808
19.9333,0.8239
19.6900,0.8047
19.4467,0.8239
19.2094,0.8808
19.2094,0.8808
18.9839,0.9742
18.9839,0.9742
18.8162,1.0770
18.7323,1.1053
18.7049,1.1062
18.5380,1.1000
18.5380,1.1000
18.5383,1.2471
18.5188,1.3335
18.4906,1.3769
18.4317,1.4458
18.3042,1.6539
18.3042,1.6539
18.2108,1.8794
18.2108,1.8794
18.1539,2.1167
18.1347,2.3600
3.6005,2.3600
3.6005,2.0350
3.5854,1.9007
3.5258,1.7305
3.4298,1.5777
3.4298,1.5777
3.4298,1.5777
3.3023,1.4502
3.3023,1.4502
3.3023,1.4502
3.1495,1.3542
3.1495,1.3542
3.1495,1.3542
2.9793,1.2946
2.9793,1.2946
2.9793,1.2946
2.8450,1.2795
1.2550,1.2795
1.1207,1.2946
1.1207,1.2946
1.1207,1.2946
0.9505,1.3542
0.9505,1.3542
0.7977,1.4502
0.6702,1.5777
0.6147,1.6661
0.5521,1.7287
0.4685,1.7579
0.3805,1.7480
0.3055,1.7009
0.2584,1.6259
0.2472,1.5598
0.2496,0.4086
0.2695,0.3223
0.3248,0.2532
0.4047,0.2149
0.4486,0.2100
26.9006,0.2100
Z" /> 
<path style="fill:#000000; fill-opacity:1.0000; stroke:none;fill-rule:evenodd;"
d="M 0.4026,43.7221
0.4823,43.7607
0.5373,43.8301
0.5514,43.8696
0.5708,43.9506
0.5708,43.9506
0.6642,44.1761
0.6642,44.1761
0.7917,44.3842
0.9502,44.5697
0.9913,44.6482
0.9979,44.6988
0.9980,44.7808
0.9783,44.8671
0.9503,44.9102
0.7917,45.0958
0.6642,45.3039
0.6642,45.3039
0.5708,45.5294
0.5708,45.5294
0.5479,45.6249
0.5086,45.7042
0.4387,45.7587
0.3522,45.7774
0.2661,45.7567
0.1974,45.7007
0.1599,45.6205
0.1554,45.5780
0.1589,43.9156
0.1788,43.8293
0.2341,43.7602
0.3140,43.7219
Z" /> 
<path style="fill:#000000; fill-opacity:1.0000; stroke:none;fill-rule:evenodd;"
d="M 0.4078,41.2040
0.4875,41.2426
0.5426,41.3119
0.5566,41.3514
0.5708,41.4106
0.5708,41.4106
0.6642,41.6361
0.6642,41.6361
0.7917,41.8442
0.8320,41.8913
0.9480,42.0271
0.9891,42.1056
0.9957,42.1562
0.9957,42.2434
0.9761,42.3297
0.9481,42.3728
0.7917,42.5558
0.6642,42.7639
0.6642,42.7639
0.5708,42.9894
0.5708,42.9894
0.5532,43.0626
0.5139,43.1420
0.4441,43.1964
0.3575,43.2151
0.2714,43.1945
0.2028,43.1385
0.1652,43.0583
0.1607,43.0157
0.1641,41.3975
0.1840,41.3112
0.2394,41.2421
0.3192,41.2038
Z" /> 
<path style="fill:#000000; fill-opacity:1.0000; stroke:none;fill-rule:evenodd;"
d="M 26.9301,41.2997
26.9892,41.3658
27.0137,41.4509
27.0140,41.4624
27.0110,42.8912
26.9911,42.9775
26.9358,43.0466
26.8559,43.0849
26.7673,43.0847
26.6876,43.0461
26.6325,42.9767
26.6282,42.9669
26.6277,42.9658
26.5441,42.7639
26.5358,42.7439
26.5358,42.7439
26.4083,42.5358
26.3145,42.4260
26.2734,42.3476
26.2668,42.2969
26.2668,42.2925
26.2667,42.0635
26.2863,41.9772
26.3143,41.9341
26.4083,41.8242
26.5358,41.6161
26.6292,41.3906
26.6292,41.3906
26.6311,41.3859
26.6824,41.3136
26.7599,41.2708
26.8483,41.2658
Z" /> 
<path style="fill:#000000; fill-opacity:1.0000; stroke:none;fill-rule:evenodd;"
d="M 0.4131,38.6858
0.4928,38.7244
0.5478,38.7938
0.5619,38.8333
0.5708,38.8706
0.5708,38.8706
0.6642,39.0961
0.6642,39.0961
0.7917,39.3042
0.9457,39.4845
0.9868,39.5629
0.9934,39.6135
0.9935,39.7060
0.9739,39.7924
0.9458,39.8354
0.7917,40.0158
0.6642,40.2239
0.6642,40.2239
0.5708,40.4494
0.5708,40.4494
0.5586,40.5004
0.5193,40.5797
0.4494,40.6342
0.3629,40.6529
0.2767,40.6322
0.2081,40.5762
0.1706,40.4960
0.1661,40.4535
0.1694,38.8793
0.1893,38.7931
0.2446,38.7239
0.3245,38.6857
Z" /> 
<path style="fill:#000000; fill-opacity:1.0000; stroke:none;fill-rule:evenodd;"
d="M 26.9224,38.7355
26.9864,38.7967
27.0175,38.8796
27.0193,38.9067
27.0163,40.3647
26.9964,40.4510
26.9410,40.5202
26.8612,40.5584
26.7726,40.5582
26.6929,40.5197
26.6378,40.4503
26.6323,40.4366
26.6322,40.4366
26.5358,40.2039
26.5358,40.2039
26.4083,39.9958
26.3128,39.8841
26.2717,39.8056
26.2651,39.7550
26.2651,39.7534
26.2650,39.5255
26.2846,39.4391
26.3127,39.3961
26.4083,39.2842
26.5358,39.0761
26.6292,38.8506
26.6292,38.8506
26.6311,38.8448
26.6765,38.7688
26.7504,38.7200
26.8381,38.7081
Z" /> 
<path style="fill:#000000; fill-opacity:1.0000; stroke:none;fill-rule:evenodd;"
d="M 0.4183,36.1677
0.4980,36.2063
0.5531,36.2757
0.5671,36.3152
0.5708,36.3306
0.5708,36.3306
0.5708,36.3306
0.6642,36.5561
0.6642,36.5561
0.7917,36.7642
0.8320,36.8113
0.9379,36.9353
0.9435,36.9419
0.9846,37.0203
0.9912,37.0709
0.9913,37.1686
0.9716,37.2550
0.9436,37.2980
0.7917,37.4758
0.6642,37.6839
0.6642,37.6839
0.5708,37.9094
0.5708,37.9094
0.5639,37.9381
0.5246,38.0175
0.4548,38.0719
0.3682,38.0906
0.2821,38.0700
0.2135,38.0140
0.1759,37.9337
0.1714,37.8912
0.1746,36.3612
0.1945,36.2749
0.2499,36.2058
0.3297,36.1675
Z" /> 
<path style="fill:#000000; fill-opacity:1.0000; stroke:none;fill-rule:evenodd;"
d="M 26.9140,36.1663
26.9826,36.2223
27.0201,36.3025
27.0247,36.3451
27.0215,37.8428
27.0016,37.9291
26.9463,37.9982
26.8664,38.0364
26.7778,38.0363
26.6981,37.9977
26.6431,37.9283
26.6318,37.8967
26.6316,37.8968
26.6292,37.8894
26.5358,37.6639
26.5358,37.6639
26.4083,37.4558
26.3111,37.3421
26.2701,37.2637
26.2635,37.2130
26.2633,36.9874
26.2830,36.9011
26.3110,36.8581
26.4083,36.7442
26.5358,36.5361
26.6292,36.3106
26.6322,36.2982
26.6715,36.2188
26.7413,36.1644
26.8279,36.1457
Z" /> 
<path style="fill:#000000; fill-opacity:1.0000; stroke:none;fill-rule:evenodd;"
d="M 0.4236,33.6496
0.5033,33.6882
0.5583,33.7575
0.5676,33.7835
0.5684,33.7832
0.5708,33.7906
0.6642,34.0161
0.6642,34.0161
0.7917,34.2242
0.9412,34.3992
0.9823,34.4777
0.9889,34.5283
0.9890,34.6312
0.9694,34.7176
0.9413,34.7607
0.7917,34.9358
0.6642,35.1439
0.6642,35.1439
0.5708,35.3694
0.5708,35.3694
0.5693,35.3759
0.5300,35.4552
0.4601,35.5097
0.3735,35.5284
0.2874,35.5077
0.2188,35.4517
0.1813,35.3715
0.1768,35.3290
0.1799,33.8431
0.1998,33.7568
0.2551,33.6877
0.3350,33.6494
Z" /> 
<path style="fill:#000000; fill-opacity:1.0000; stroke:none;fill-rule:evenodd;"
d="M 26.9193,33.6041
26.9880,33.6601
27.0255,33.7403
27.0300,33.7828
27.0268,35.3246
27.0069,35.4109
26.9515,35.4801
26.8717,35.5183
26.7831,35.5181
26.7034,35.4795
26.6483,35.4102
26.6343,35.3707
26.6292,35.3494
26.6207,35.3290
26.5358,35.1239
26.5358,35.1239
26.4083,34.9158
26.3095,34.8001
26.2684,34.7217
26.2618,34.6710
26.2616,34.4494
26.2813,34.3630
26.3093,34.3200
26.4083,34.2042
26.5358,33.9961
26.6292,33.7706
26.6375,33.7359
26.6768,33.6566
26.7467,33.6021
26.8332,33.5834
Z" /> 
<path style="fill:#000000; fill-opacity:1.0000; stroke:none;fill-rule:evenodd;"
d="M 26.9247,31.0418
26.9933,31.0978
27.0308,31.1780
27.0353,31.2206
27.0320,32.8065
27.0121,32.8928
26.9568,32.9619
26.8769,33.0002
26.7883,33.0000
26.7086,32.9614
26.6536,32.8921
26.6395,32.8525
26.6292,32.8094
26.6236,32.7960
26.5358,32.5839
26.5358,32.5839
26.4083,32.3758
26.3078,32.2582
26.2667,32.1797
26.2601,32.1291
26.2600,31.9114
26.2796,31.8250
26.3076,31.7820
26.4083,31.6642
26.5358,31.4561
26.6292,31.2306
26.6428,31.1737
26.6822,31.0943
26.7520,31.0399
26.8386,31.0212
Z" /> 
<path style="fill:#000000; fill-opacity:1.0000; stroke:none;fill-rule:evenodd;"
d="M 0.4288,31.1260
0.5085,31.1646
0.5636,31.2339
0.5680,31.2438
0.6642,31.4761
0.6642,31.4761
0.7917,31.6842
0.9390,31.8566
0.9801,31.9351
0.9867,31.9857
0.9868,32.0939
0.9671,32.1802
0.9391,32.2233
0.7917,32.3958
0.6642,32.6039
0.6642,32.6039
0.5708,32.8294
0.5704,32.8308
0.5700,32.8315
0.5678,32.8366
0.5671,32.8363
0.5249,32.9068
0.4510,32.9556
0.3633,32.9675
0.2790,32.9401
0.2150,32.8789
0.1839,32.7960
0.1821,32.7689
0.1827,32.5062
0.1851,31.3195
0.2050,31.2332
0.2604,31.1641
0.3403,31.1258
Z" /> 
<path style="fill:#000000; fill-opacity:1.0000; stroke:none;fill-rule:evenodd;"
d="M 26.9300,28.4796
26.9986,28.5356
27.0362,28.6158
27.0407,28.6583
27.0373,30.2884
27.0174,30.3747
26.9620,30.4438
26.8822,30.4821
26.7936,30.4819
26.7139,30.4433
26.6588,30.3739
26.6448,30.3344
26.6292,30.2694
26.6111,30.2257
26.5358,30.0439
26.5358,30.0439
26.4083,29.8358
26.3061,29.7162
26.2650,29.6378
26.2584,29.5871
26.2583,29.4541
26.2583,29.3733
26.2779,29.2870
26.3060,29.2440
26.4083,29.1242
26.5358,28.9161
26.6292,28.6906
26.6482,28.6114
26.6875,28.5321
26.7574,28.4776
26.8439,28.4589
Z" /> 
<path style="fill:#000000; fill-opacity:1.0000; stroke:none;fill-rule:evenodd;"
d="M 0.4341,28.5987
0.5138,28.6373
0.5689,28.7067
0.5733,28.7165
0.6642,28.9361
0.6642,28.9361
0.7917,29.1442
0.9368,29.3140
0.9778,29.3924
0.9844,29.4430
0.9845,29.5565
0.9649,29.6429
0.9369,29.6859
0.7917,29.8558
0.6642,30.0639
0.6642,30.0639
0.5703,30.2907
0.5190,30.3629
0.4415,30.4058
0.3531,30.4107
0.2713,30.3768
0.2123,30.3108
0.1878,30.2257
0.1874,30.2141
0.1882,29.8365
0.1904,28.7922
0.2103,28.7059
0.2657,28.6368
0.3455,28.5985
Z" /> 
<path style="fill:#000000; fill-opacity:1.0000; stroke:none;fill-rule:evenodd;"
d="M 26.9354,25.9173
27.0040,25.9733
27.0415,26.0535
27.0460,26.0960
27.0425,27.7702
27.0226,27.8565
26.9673,27.9257
26.8874,27.9639
26.7988,27.9637
26.7191,27.9251
26.6641,27.8558
26.6500,27.8163
26.6292,27.7294
26.6057,27.6728
26.5358,27.5039
26.5358,27.5039
26.4083,27.2958
26.3044,27.1742
26.2633,27.0958
26.2567,27.0451
26.2567,27.0191
26.2566,26.8353
26.2763,26.7489
26.3043,26.7059
26.4083,26.5842
26.5358,26.3761
26.6292,26.1506
26.6535,26.0492
26.6928,25.9698
26.7627,25.9154
26.8493,25.8966
Z" /> 
<path style="fill:#000000; fill-opacity:1.0000; stroke:none;fill-rule:evenodd;"
d="M 0.4394,26.0714
0.5191,26.1100
0.5741,26.1794
0.5785,26.1892
0.6642,26.3961
0.6642,26.3961
0.7917,26.6042
0.8320,26.6513
0.9332,26.7698
0.9345,26.7713
0.9756,26.8498
0.9822,26.9004
0.9823,27.0191
0.9627,27.1055
0.9346,27.1485
0.7917,27.3158
0.6642,27.5239
0.6642,27.5239
0.5756,27.7378
0.5244,27.8101
0.4469,27.8529
0.3584,27.8579
0.2766,27.8240
0.2176,27.7579
0.1931,27.6728
0.1928,27.6613
0.1957,26.2649
0.2156,26.1786
0.2709,26.1095
0.3508,26.0712
Z" /> 
<path style="fill:#000000; fill-opacity:1.0000; stroke:none;fill-rule:evenodd;"
d="M 26.9407,23.3551
27.0093,23.4111
27.0469,23.4913
27.0514,23.5338
27.0478,25.2521
27.0279,25.3384
26.9725,25.4075
26.8927,25.4458
26.8041,25.4456
26.7244,25.4070
26.6693,25.3377
26.6553,25.2982
26.6292,25.1894
26.6292,25.1894
26.5358,24.9639
26.5358,24.9639
26.4083,24.7558
26.3027,24.6323
26.2617,24.5538
26.2551,24.5032
26.2549,24.2972
26.2746,24.2109
26.3026,24.1679
26.4083,24.0442
26.5358,23.8361
26.6292,23.6106
26.6589,23.4869
26.6982,23.4076
26.7680,23.3531
26.8546,23.3344
Z" /> 
<path style="fill:#000000; fill-opacity:1.0000; stroke:none;fill-rule:evenodd;"
d="M 0.4446,23.5442
0.5243,23.5827
0.5794,23.6521
0.5838,23.6619
0.6152,23.7377
0.6642,23.8561
0.6642,23.8561
0.7917,24.0642
0.9323,24.2287
0.9734,24.3072
0.9800,24.3578
0.9801,24.4817
0.9604,24.5681
0.9324,24.6111
0.7917,24.7758
0.6642,24.9839
0.6642,24.9839
0.5809,25.1850
0.5297,25.2572
0.4522,25.3001
0.3638,25.3050
0.2819,25.2711
0.2229,25.2051
0.1984,25.1200
0.1981,25.1084
0.1986,24.8798
0.2009,23.7377
0.2208,23.6514
0.2762,23.5822
0.3561,23.5440
Z" /> 
<path style="fill:#000000; fill-opacity:1.0000; stroke:none;fill-rule:evenodd;"
d="M 26.9461,20.7928
27.0147,20.8488
27.0522,20.9290
27.0567,20.9715
27.0530,22.7340
27.0331,22.8203
26.9778,22.8894
26.8979,22.9277
26.8093,22.9275
26.7296,22.8889
26.6746,22.8195
26.6605,22.7800
26.6292,22.6494
26.6292,22.6494
26.5358,22.4239
26.5358,22.4239
26.4083,22.2158
26.3011,22.0903
26.2600,22.0119
26.2534,21.9612
26.2534,21.9021
26.2533,21.7592
26.2729,21.6729
26.3009,21.6298
26.4083,21.5042
26.5358,21.2961
26.6292,21.0706
26.6642,20.9247
26.7035,20.8453
26.7734,20.7909
26.8599,20.7721
Z" /> 
<path style="fill:#000000; fill-opacity:1.0000; stroke:none;fill-rule:evenodd;"
d="M 0.4499,21.0169
0.5296,21.0555
0.5847,21.1248
0.5891,21.1346
0.6642,21.3161
0.6642,21.3161
0.7917,21.5242
0.9300,21.6861
0.9711,21.7645
0.9777,21.8152
0.9778,21.9444
0.9582,22.0307
0.9301,22.0738
0.7917,22.2358
0.6642,22.4439
0.6642,22.4439
0.5863,22.6321
0.5350,22.7044
0.4575,22.7472
0.3691,22.7522
0.2873,22.7183
0.2282,22.6522
0.2037,22.5671
0.2034,22.5556
0.2062,21.2104
0.2261,21.1241
0.2815,21.0549
0.3613,21.0167
Z" /> 
<path style="fill:#000000; fill-opacity:1.0000; stroke:none;fill-rule:evenodd;"
d="M 26.9514,18.2306
27.0200,18.2866
27.0575,18.3668
27.0621,18.4093
27.0583,20.2158
27.0384,20.3021
26.9830,20.3713
26.9032,20.4095
26.8146,20.4094
26.7349,20.3708
26.6798,20.3014
26.6658,20.2619
26.6292,20.1094
26.6292,20.1094
26.6292,20.1094
26.5358,19.8839
26.5358,19.8839
26.4083,19.6758
26.2994,19.5484
26.2583,19.4699
26.2517,19.4192
26.2516,19.2212
26.2712,19.1348
26.2993,19.0918
26.4083,18.9642
26.5358,18.7561
26.6292,18.5306
26.6627,18.3911
26.6696,18.3624
26.7089,18.2831
26.7787,18.2286
26.8653,18.2099
Z" /> 
<path style="fill:#000000; fill-opacity:1.0000; stroke:none;fill-rule:evenodd;"
d="M 0.4552,18.4896
0.5349,18.5282
0.5900,18.5975
0.5943,18.6074
0.6642,18.7761
0.6642,18.7761
0.7917,18.9842
0.9278,19.1435
0.9689,19.2219
0.9755,19.2725
0.9756,19.4070
0.9560,19.4933
0.9279,19.5364
0.7917,19.6958
0.6642,19.9039
0.6642,19.9039
0.5916,20.0793
0.5403,20.1515
0.4628,20.1944
0.3744,20.1993
0.2926,20.1654
0.2336,20.0994
0.2090,20.0143
0.2087,20.0027
0.2115,18.6831
0.2314,18.5968
0.2867,18.5277
0.3666,18.4894
Z" /> 
<path style="fill:#000000; fill-opacity:1.0000; stroke:none;fill-rule:evenodd;"
d="M 26.9567,15.6683
27.0254,15.7243
27.0629,15.8045
27.0674,15.8470
27.0635,17.6977
27.0436,17.7840
26.9883,17.8531
26.9084,17.8914
26.8198,17.8912
26.7401,17.8526
26.6851,17.7833
26.6710,17.7438
26.6292,17.5694
26.5845,17.4614
26.5358,17.3439
26.5358,17.3439
26.4083,17.1358
26.2977,17.0064
26.2566,16.9279
26.2500,16.8773
26.2500,16.8420
26.2499,16.6831
26.2696,16.5968
26.2976,16.5538
26.4083,16.4242
26.5358,16.2161
26.5591,16.1598
26.6292,15.9906
26.6292,15.9906
26.6292,15.9906
26.6749,15.8002
26.7142,15.7208
26.7841,15.6664
26.8706,15.6476
Z" /> 
<path style="fill:#000000; fill-opacity:1.0000; stroke:none;fill-rule:evenodd;"
d="M 0.4604,15.9623
0.5402,16.0009
0.5952,16.0703
0.5996,16.0801
0.6642,16.2361
0.6642,16.2361
0.7917,16.4442
0.8768,16.5438
0.8793,16.5467
0.9255,16.6008
0.9666,16.6793
0.9732,16.7299
0.9733,16.8696
0.9537,16.9560
0.9257,16.9990
0.7917,17.1558
0.6642,17.3639
0.6642,17.3639
0.5969,17.5264
0.5457,17.5987
0.4681,17.6415
0.3797,17.6465
0.2979,17.6126
0.2389,17.5465
0.2144,17.4614
0.2141,17.4499
0.2168,16.1558
0.2366,16.0695
0.2920,16.0004
0.3719,15.9621
Z" /> 
<path style="fill:#000000; fill-opacity:1.0000; stroke:none;fill-rule:evenodd;"
d="M 26.9621,13.1061
27.0307,13.1621
27.0682,13.2423
27.0727,13.2848
27.0688,15.1796
27.0489,15.2659
26.9935,15.3350
26.9137,15.3733
26.8251,15.3731
26.7454,15.3345
26.6903,15.2651
26.6763,15.2256
26.6292,15.0294
26.6292,15.0294
26.5791,14.9086
26.5358,14.8039
26.5358,14.8039
26.4083,14.5958
26.2960,14.4644
26.2549,14.3860
26.2484,14.3353
26.2484,14.3322
26.2482,14.1451
26.2679,14.0587
26.2959,14.0157
26.4083,13.8842
26.5358,13.6761
26.5591,13.6198
26.6292,13.4506
26.6292,13.4506
26.6292,13.4506
26.6802,13.2379
26.7196,13.1586
26.7894,13.1041
26.8760,13.0854
Z" /> 
<path style="fill:#000000; fill-opacity:1.0000; stroke:none;fill-rule:evenodd;"
d="M 0.4657,13.4350
0.5454,13.4736
0.6005,13.5430
0.6049,13.5528
0.6362,13.6285
0.6642,13.6961
0.6642,13.6961
0.7917,13.9042
0.9233,14.0582
0.9644,14.1367
0.9710,14.1873
0.9711,14.3322
0.9515,14.4186
0.9234,14.4616
0.7917,14.6158
0.6642,14.8239
0.6642,14.8239
0.6022,14.9736
0.5510,15.0458
0.4735,15.0886
0.3850,15.0936
0.3032,15.0597
0.2442,14.9937
0.2197,14.9086
0.2194,14.8970
0.2220,13.6285
0.2419,13.5422
0.2973,13.4731
0.3771,13.4349
Z" /> 
<path style="fill:#000000; fill-opacity:1.0000; stroke:none;fill-rule:evenodd;"
d="M 26.9674,10.5438
27.0360,10.5998
27.0736,10.6800
27.0781,10.7225
27.0740,12.6615
27.0541,12.7478
26.9988,12.8169
26.9189,12.8551
26.8304,12.8550
26.7506,12.8164
26.6956,12.7470
26.6815,12.7075
26.6292,12.4894
26.5441,12.2839
26.5358,12.2639
26.5358,12.2639
26.4083,12.0558
26.3342,11.9691
26.2944,11.9225
26.2533,11.8440
26.2467,11.7934
26.2466,11.6071
26.2662,11.5207
26.2942,11.4777
26.3055,11.4645
26.4083,11.3442
26.5358,11.1361
26.5492,11.1037
26.6292,10.9106
26.6292,10.9106
26.6292,10.9106
26.6856,10.6757
26.7249,10.5963
26.7948,10.5419
26.8813,10.5231
Z" /> 
<path style="fill:#000000; fill-opacity:1.0000; stroke:none;fill-rule:evenodd;"
d="M 0.4710,10.9078
0.5507,10.9464
0.6058,11.0157
0.6101,11.0255
0.6642,11.1561
0.6642,11.1561
0.7917,11.3642
0.9211,11.5156
0.9621,11.5940
0.9687,11.6447
0.9689,11.7948
0.9492,11.8812
0.9212,11.9243
0.7917,12.0758
0.6642,12.2839
0.6642,12.2839
0.6076,12.4207
0.5563,12.4930
0.4788,12.5358
0.3904,12.5408
0.3085,12.5069
0.2495,12.4408
0.2250,12.3557
0.2247,12.3442
0.2248,12.2767
0.2273,11.1013
0.2472,11.0150
0.3025,10.9458
0.3824,10.9076
Z" /> 
<path style="fill:#000000; fill-opacity:1.0000; stroke:none;fill-rule:evenodd;"
d="M 26.9438,7.9601
27.0203,8.0047
27.0700,8.0780
27.0834,8.1505
27.0793,10.1433
27.0594,10.2296
27.0040,10.2988
26.9242,10.3370
26.8356,10.3368
26.7559,10.2982
26.7008,10.2289
26.6868,10.1894
26.6340,9.9694
26.6292,9.9494
26.6253,9.9401
26.5358,9.7239
26.5358,9.7239
26.4083,9.5158
26.2927,9.3805
26.2516,9.3020
26.2450,9.2514
26.2449,9.0690
26.2645,8.9827
26.2926,8.9397
26.4083,8.8042
26.5358,8.5961
26.5591,8.5398
26.6251,8.3805
26.6292,8.3706
26.6861,8.1333
26.6861,8.1333
26.6874,8.1256
26.6888,8.1258
26.7125,8.0499
26.7729,7.9852
26.8555,7.9532
Z" /> 
<path style="fill:#000000; fill-opacity:1.0000; stroke:none;fill-rule:evenodd;"
d="M 0.4762,8.3805
0.5560,8.4191
0.6110,8.4884
0.6154,8.4982
0.6642,8.6161
0.6642,8.6161
0.7917,8.8242
0.9188,8.9730
0.9599,9.0514
0.9665,9.1020
0.9666,9.2575
0.9470,9.3438
0.9190,9.3869
0.7917,9.5358
0.6642,9.7439
0.6642,9.7439
0.6129,9.8679
0.5616,9.9401
0.4841,9.9829
0.3957,9.9879
0.3139,9.9540
0.2549,9.8880
0.2303,9.8029
0.2300,9.7913
0.2306,9.5358
0.2326,8.5740
0.2524,8.4877
0.3078,8.4186
0.3877,8.3803
Z" /> 
<path style="fill:#000000; fill-opacity:1.0000; stroke:none;fill-rule:evenodd;"
d="M 26.9595,3.4790
27.0345,3.5261
27.0816,3.6011
27.0928,3.6672
27.0897,5.1693
27.0698,5.2557
27.0144,5.3248
26.9540,5.3537
27.0258,5.3955
27.0754,5.4689
27.0889,5.5413
27.0845,7.6438
27.0646,7.7301
27.0092,7.7992
26.9294,7.8375
26.8408,7.8373
26.7611,7.7987
26.7060,7.7293
26.6871,7.6590
26.6861,7.6467
26.6292,7.4094
26.6292,7.4094
26.5358,7.1839
26.5358,7.1839
26.4083,6.9758
26.2910,6.8385
26.2499,6.7601
26.2433,6.7094
26.2433,6.6559
26.2432,6.5310
26.2629,6.4446
26.2909,6.4016
26.4083,6.2642
26.5358,6.0561
26.5395,6.0471
26.6292,5.8306
26.6292,5.8306
26.6292,5.8306
26.6861,5.5933
26.6915,5.5253
26.7179,5.4408
26.7784,5.3761
26.8311,5.3556
26.7663,5.3243
26.7112,5.2549
26.6923,5.1845
26.6861,5.1067
26.6292,4.8694
26.6292,4.8694
26.5358,4.6439
26.5358,4.6439
26.4083,4.4358
26.4037,4.4295
26.4055,4.4281
26.3705,4.3613
26.3676,4.2728
26.4033,4.1918
26.4222,4.1698
26.5298,4.0623
26.6258,3.9095
26.6854,3.7393
26.6960,3.6445
26.7253,3.5609
26.7879,3.4983
26.8715,3.4690
Z" /> 
<path style="fill:#000000; fill-opacity:1.0000; stroke:none;fill-rule:evenodd;"
d="M 0.4815,5.8532
0.5612,5.8918
0.6163,5.9612
0.6207,5.9710
0.6642,6.0761
0.6642,6.0761
0.7917,6.2842
0.8345,6.3343
0.9102,6.4229
0.9166,6.4303
0.9577,6.5088
0.9643,6.5594
0.9644,6.7201
0.9448,6.8064
0.9167,6.8495
0.7917,6.9958
0.6642,7.2039
0.6642,7.2039
0.6182,7.3150
0.5669,7.3873
0.4894,7.4301
0.4010,7.4351
0.3192,7.4012
0.2602,7.3351
0.2357,7.2500
0.2353,7.2385
0.2363,6.7779
0.2378,6.0467
0.2577,5.9604
0.3131,5.8913
0.3930,5.8530
Z" /> 
<path style="fill:#000000; fill-opacity:1.0000; stroke:none;fill-rule:evenodd;"
d="M 0.4856,3.8975
0.5653,3.9361
0.6094,3.9855
0.6702,4.0823
0.7777,4.1898
0.8249,4.2648
0.8348,4.3528
0.8055,4.4364
0.7961,4.4493
0.7963,4.4495
0.7917,4.4558
0.6642,4.6639
0.6642,4.6639
0.6235,4.7622
0.5723,4.8344
0.4948,4.8772
0.4063,4.8822
0.3245,4.8483
0.2655,4.7823
0.2410,4.6972
0.2407,4.6856
0.2412,4.4495
0.2419,4.0910
0.2618,4.0047
0.3172,3.9356
0.3970,3.8973
Z" /> 
</g>
<g style="fill:#FFFFFF; fill-opacity:1.0000; stroke:none;">
<circle cx="16.9200" cy="17.6000" r="0.6000" /> 
</g>
<g style="fill:#FFFFFF; fill-opacity:1.0000; stroke:none;">
<circle cx="6.5900" cy="44.9600" r="0.6000" /> 
</g>
<g style="fill:#FFFFFF; fill-opacity:1.0000; stroke:none;">
<circle cx="17.1000" cy="44.8800" r="0.6000" /> 
</g>
<g style="fill:#FFFFFF; fill-opacity:1.0000; stroke:none;">
<circle cx="19.4700" cy="26.4900" r="0.6000" /> 
</g>
<g style="fill:#FFFFFF; fill-opacity:1.0000; stroke:none;">
<circle cx="14.8000" cy="23.7800" r="0.6000" /> 
</g>
<g style="fill:#FFFFFF; fill-opacity:1.0000; stroke:none;">
<circle cx="22.3000" cy="43.8800" r="0.6000" /> 
</g>
<g style="fill:#FFFFFF; fill-opacity:1.0000; stroke:none;">
<circle cx="4.3900" cy="42.2500" r="0.6000" /> 
</g>
<g style="fill:#FFFFFF; fill-opacity:1.0000; stroke:none;">
<circle cx="15.1450" cy="16.7900" r="0.6000" /> 
</g>
<g style="fill:#FFFFFF; fill-opacity:1.0000; stroke:none;">
<circle cx="14.9500" cy="37.1700" r="0.6000" /> 
</g>
<g style="fill:#FFFFFF; fill-opacity:1.0000; stroke:none;">
<circle cx="12.4100" cy="37.1700" r="0.6000" /> 
</g>
<g style="fill:#FFFFFF; fill-opacity:1.0000; stroke:none;">
<circle cx="19.6900" cy="20.1400" r="0.6000" /> 
</g>
<g style="fill:#FFFFFF; fill-opacity:1.0000; stroke:none;">
<circle cx="19.6900" cy="17.6000" r="0.6000" /> 
</g>
<g style="fill:#FFFFFF; fill-opacity:1.0000; stroke:none;">
<circle cx="19.6900" cy="15.0600" r="0.6000" /> 
</g>
<g style="fill:#FFFFFF; fill-opacity:1.0000; stroke:none;">
<circle cx="19.6900" cy="12.5200" r="0.6000" /> 
</g>
<g style="fill:#FFFFFF; fill-opacity:1.0000; stroke:none;">
<circle cx="19.6900" cy="9.9800" r="0.6000" /> 
</g>
<g style="fill:#FFFFFF; fill-opacity:1.0000; stroke:none;">
<circle cx="19.6900" cy="7.4400" r="0.6000" /> 
</g>
<g style="fill:#FFFFFF; fill-opacity:1.0000; stroke:none;">
<circle cx="19.6900" cy="4.9000" r="0.6000" /> 
</g>
<g style="fill:#FFFFFF; fill-opacity:1.0000; stroke:none;">
<circle cx="19.6900" cy="2.3600" r="0.6000" /> 
</g>
<g style="fill:#FFFFFF; fill-opacity:1.0000; stroke:none;">
<circle cx="2.0500" cy="2.8300" r="0.6000" /> 
</g>
<g style="fill:#FFFFFF; fill-opacity:1.0000; stroke:none;">
<circle cx="2.0500" cy="5.3700" r="0.6000" /> 
</g>
<g style="fill:#FFFFFF; fill-opacity:1.0000; stroke:none;">
<circle cx="2.0500" cy="7.9100" r="0.6000" /> 
</g>
<g style="fill:#FFFFFF; fill-opacity:1.0000; stroke:none;">
<circle cx="2.0500" cy="10.4500" r="0.6000" /> 
</g>
<g style="fill:#FFFFFF; fill-opacity:1.0000; stroke:none;">
<circle cx="2.0500" cy="12.9900" r="0.6000" /> 
</g>
<g style="fill:#FFFFFF; fill-opacity:1.0000; stroke:none;">
<circle cx="2.0500" cy="15.5300" r="0.6000" /> 
</g>
<g style="fill:#FFFFFF; fill-opacity:1.0000; stroke:none;">
<circle cx="2.0500" cy="18.0700" r="0.6000" /> 
</g>
<g style="fill:#FFFFFF; fill-opacity:1.0000; stroke:none;">
<circle cx="2.0500" cy="20.6100" r="0.6000" /> 
</g>
<g style="fill:#FFFFFF; fill-opacity:1.0000; stroke:none;">
<circle cx="2.0500" cy="23.1500" r="0.6000" /> 
</g>
<g style="fill:#FFFFFF; fill-opacity:1.0000; stroke:none;">
<circle cx="2.0500" cy="25.6900" r="0.6000" /> 
</g>
<g style="fill:#FFFFFF; fill-opacity:1.0000; stroke:none;">
<circle cx="2.0500" cy="28.2300" r="0.6000" /> 
</g>
<g style="fill:#FFFFFF; fill-opacity:1.0000; stroke:none;">
<circle cx="2.0500" cy="30.7700" r="0.6000" /> 
</g>
<g style="fill:#FFFFFF; fill-opacity:1.0000; stroke:none;">
<circle cx="2.0500" cy="33.3100" r="0.6000" /> 
</g>
<g style="fill:#FFFFFF; fill-opacity:1.0000; stroke:none;">
<circle cx="2.0500" cy="35.8500" r="0.6000" /> 
</g>
<g style="fill:#FFFFFF; fill-opacity:1.0000; stroke:none;">
<circle cx="2.0500" cy="38.3900" r="0.6000" /> 
</g>
<g style="fill:#FFFFFF; fill-opacity:1.0000; stroke:none;">
<circle cx="2.0500" cy="40.9300" r="0.6000" /> 
</g>
<g style="fill:#FFFFFF; fill-opacity:1.0000; stroke:none;">
<circle cx="2.0500" cy="43.4700" r="0.6000" /> 
</g>
<g style="fill:#FFFFFF; fill-opacity:1.0000; stroke:none;">
<circle cx="2.0500" cy="46.0100" r="0.6000" /> 
</g>
<g style="fill:#FFFFFF; fill-opacity:1.0000; stroke:none;">
<circle cx="25.1500" cy="2.8100" r="0.6000" /> 
</g>
<g style="fill:#FFFFFF; fill-opacity:1.0000; stroke:none;">
<circle cx="25.1500" cy="5.3500" r="0.6000" /> 
</g>
<g style="fill:#FFFFFF; fill-opacity:1.0000; stroke:none;">
<circle cx="25.1500" cy="7.8900" r="0.6000" /> 
</g>
<g style="fill:#FFFFFF; fill-opacity:1.0000; stroke:none;">
<circle cx="25.1500" cy="10.4300" r="0.6000" /> 
</g>
<g style="fill:#FFFFFF; fill-opacity:1.0000; stroke:none;">
<circle cx="25.1500" cy="12.9700" r="0.6000" /> 
</g>
<g style="fill:#FFFFFF; fill-opacity:1.0000; stroke:none;">
<circle cx="25.1500" cy="15.5100" r="0.6000" /> 
</g>
<g style="fill:#FFFFFF; fill-opacity:1.0000; stroke:none;">
<circle cx="25.1500" cy="18.0500" r="0.6000" /> 
</g>
<g style="fill:#FFFFFF; fill-opacity:1.0000; stroke:none;">
<circle cx="25.1500" cy="20.5900" r="0.6000" /> 
</g>
<g style="fill:#FFFFFF; fill-opacity:1.0000; stroke:none;">
<circle cx="25.1500" cy="23.1300" r="0.6000" /> 
</g>
<g style="fill:#FFFFFF; fill-opacity:1.0000; stroke:none;">
<circle cx="25.1500" cy="25.6700" r="0.6000" /> 
</g>
<g style="fill:#FFFFFF; fill-opacity:1.0000; stroke:none;">
<circle cx="25.1500" cy="28.2100" r="0.6000" /> 
</g>
<g style="fill:#FFFFFF; fill-opacity:1.0000; stroke:none;">
<circle cx="25.1500" cy="30.7500" r="0.6000" /> 
</g>
<g style="fill:#FFFFFF; fill-opacity:1.0000; stroke:none;">
<circle cx="25.1500" cy="33.2900" r="0.6000" /> 
</g>
<g style="fill:#FFFFFF; fill-opacity:1.0000; stroke:none;">
<circle cx="25.1500" cy="35.8300" r="0.6000" /> 
</g>
<g style="fill:#FFFFFF; fill-opacity:1.0000; stroke:none;">
<circle cx="25.1500" cy="38.3700" r="0.6000" /> 
</g>
<g style="fill:#FFFFFF; fill-opacity:1.0000; stroke:none;">
<circle cx="25.1500" cy="40.9100" r="0.6000" /> 
</g>
<g style="fill:#FFFFFF; fill-opacity:1.0000; stroke:none;">
<circle cx="25.1500" cy="43.4500" r="0.6000" /> 
</g>
<g style="fill:#FFFFFF; fill-opacity:1.0000; stroke:none;">
<circle cx="25.1500" cy="45.9900" r="0.6000" /> 
</g> 
</svg>
