<?xml version="1.0" standalone="no"?>
 <!DOCTYPE svg PUBLIC "-//W3C//DTD SVG 1.1//EN" 
 "http://www.w3.org/Graphics/SVG/1.1/DTD/svg11.dtd"> 
<svg
  xmlns:svg="http://www.w3.org/2000/svg"
  xmlns="http://www.w3.org/2000/svg"
  xmlns:xlink="http://www.w3.org/1999/xlink"
  version="1.1"
  width="27.1272mm" height="48.3362mm" viewBox="0.0000 0.0000 27.1272 48.3362">
<title>SVG Image created as ds-B_Cu.svg date 2024/06/09 00:20:59 </title>
  <desc>Image generated by PCBNEW </desc>
<g style="fill:#000000; fill-opacity:1.0000;stroke:#000000; stroke-opacity:1.0000;
stroke-linecap:round; stroke-linejoin:round;"
 transform="translate(0 0) scale(1 1)">
<path style="fill:none; 
stroke:#000000; stroke-width:0.4000; stroke-opacity:1; 
stroke-linecap:round; stroke-linejoin:round;fill:none"
d="M 26.9272,0.2000
0.1772,0.2000
0.1772,48.1400
26.9272,48.1400
Z" /> 
<path style="fill:#000000; fill-opacity:1.0000; stroke:none;fill-rule:evenodd;"
d="M 13.7784,35.5150
13.8583,35.4991
13.9261,35.4539
13.9713,35.3861
13.9872,35.3062
13.9872,34.8888
13.9713,34.8089
13.9261,34.7411
13.8583,34.6959
13.7784,34.6800
12.9159,34.6800
12.8361,34.6959
12.7683,34.7411
12.7231,34.8089
12.7072,34.8888
12.7072,35.3062
12.7231,35.3861
12.7683,35.4539
12.8361,35.4991
12.9159,35.5150
Z" /> 
<path style="fill:#000000; fill-opacity:1.0000; stroke:none;fill-rule:evenodd;"
d="M 13.7784,34.2600
13.8583,34.2441
13.9261,34.1989
13.9713,34.1311
13.9872,34.0512
13.9872,33.6337
13.9713,33.5539
13.9261,33.4861
13.8583,33.4409
13.7784,33.4250
12.9159,33.4250
12.8361,33.4409
12.7683,33.4861
12.7231,33.5539
12.7072,33.6337
12.7072,34.0512
12.7231,34.1311
12.7683,34.1989
12.8361,34.2441
12.9159,34.2600
Z" /> 
<path style="fill:#000000; fill-opacity:1.0000; stroke:none;fill-rule:evenodd;"
d="M 11.1122,42.0712
11.1281,42.1511
11.1733,42.2189
11.2411,42.2641
11.3209,42.2800
11.7385,42.2800
11.8183,42.2641
11.8861,42.2189
11.9313,42.1511
11.9472,42.0712
11.9472,41.2087
11.9313,41.1289
11.8861,41.0611
11.8183,41.0159
11.7385,41.0000
11.3209,41.0000
11.2411,41.0159
11.1733,41.0611
11.1281,41.1289
11.1122,41.2087
Z" /> 
<path style="fill:#000000; fill-opacity:1.0000; stroke:none;fill-rule:evenodd;"
d="M 12.3672,42.0712
12.3831,42.1511
12.4283,42.2189
12.4961,42.2641
12.5759,42.2800
12.9934,42.2800
13.0733,42.2641
13.1411,42.2189
13.1863,42.1511
13.2022,42.0712
13.2022,41.2087
13.1863,41.1289
13.1411,41.0611
13.0733,41.0159
12.9934,41.0000
12.5759,41.0000
12.4961,41.0159
12.4283,41.0611
12.3831,41.1289
12.3672,41.2087
Z" /> 
<path style="fill:#000000; fill-opacity:1.0000; stroke:none;fill-rule:evenodd;"
d="M 10.2684,32.6750
10.3483,32.6591
10.4161,32.6139
10.4613,32.5461
10.4772,32.4662
10.4772,32.0487
10.4613,31.9689
10.4161,31.9011
10.3483,31.8559
10.2684,31.8400
9.4059,31.8400
9.3261,31.8559
9.2583,31.9011
9.2131,31.9689
9.1972,32.0487
9.1972,32.4662
9.2131,32.5461
9.2583,32.6139
9.3261,32.6591
9.4059,32.6750
Z" /> 
<path style="fill:#000000; fill-opacity:1.0000; stroke:none;fill-rule:evenodd;"
d="M 10.2684,31.4200
10.3483,31.4041
10.4161,31.3589
10.4613,31.2911
10.4772,31.2112
10.4772,30.7937
10.4613,30.7139
10.4161,30.6461
10.3483,30.6009
10.2684,30.5850
9.4059,30.5850
9.3261,30.6009
9.2583,30.6461
9.2131,30.7139
9.1972,30.7937
9.1972,31.2112
9.2131,31.2911
9.2583,31.3589
9.3261,31.4041
9.4059,31.4200
Z" /> 
<path style="fill:#000000; fill-opacity:1.0000; stroke:none;fill-rule:evenodd;"
d="M 6.7584,31.0250
6.8383,31.0091
6.9061,30.9639
6.9513,30.8961
6.9672,30.8163
6.9672,30.3987
6.9513,30.3189
6.9061,30.2511
6.8383,30.2059
6.7584,30.1900
5.8960,30.1900
5.8161,30.2059
5.7483,30.2511
5.7031,30.3189
5.6872,30.3987
5.6872,30.8163
5.7031,30.8961
5.7483,30.9639
5.8161,31.0091
5.8960,31.0250
Z" /> 
<path style="fill:#000000; fill-opacity:1.0000; stroke:none;fill-rule:evenodd;"
d="M 6.7584,29.7700
6.8383,29.7541
6.9061,29.7089
6.9513,29.6411
6.9672,29.5612
6.9672,29.1437
6.9513,29.0639
6.9061,28.9961
6.8383,28.9509
6.7584,28.9350
5.8960,28.9350
5.8161,28.9509
5.7483,28.9961
5.7031,29.0639
5.6872,29.1437
5.6872,29.5612
5.7031,29.6411
5.7483,29.7089
5.8161,29.7541
5.8960,29.7700
Z" /> 
<path style="fill:#000000; fill-opacity:1.0000; stroke:none;fill-rule:evenodd;"
d="M 19.5022,13.7088
19.4863,13.6289
19.4411,13.5611
19.3733,13.5159
19.2934,13.5000
18.8759,13.5000
18.7961,13.5159
18.7283,13.5611
18.6831,13.6289
18.6672,13.7088
18.6672,14.5712
18.6831,14.6511
18.7283,14.7189
18.7961,14.7641
18.8759,14.7800
19.2934,14.7800
19.3733,14.7641
19.4411,14.7189
19.4863,14.6511
19.5022,14.5712
Z" /> 
<path style="fill:#000000; fill-opacity:1.0000; stroke:none;fill-rule:evenodd;"
d="M 18.2472,13.7088
18.2313,13.6289
18.1861,13.5611
18.1183,13.5159
18.0384,13.5000
17.6210,13.5000
17.5411,13.5159
17.4733,13.5611
17.4281,13.6289
17.4122,13.7088
17.4122,14.5712
17.4281,14.6511
17.4733,14.7189
17.5411,14.7641
17.6210,14.7800
18.0384,14.7800
18.1183,14.7641
18.1861,14.7189
18.2313,14.6511
18.2472,14.5712
Z" /> 
<path style="fill:#000000; fill-opacity:1.0000; stroke:none;fill-rule:evenodd;"
d="M 20.3772,10.8500
18.8772,10.8500
18.8772,12.3500
20.3772,12.3500
Z" /> 
</g>
<g style="fill:#000000; fill-opacity:1.0000; stroke:none;">
<circle cx="17.0872" cy="11.6000" r="0.7500" /> 
<circle cx="7.4372" cy="20.1400" r="0.7500" /> 
</g>
<g style="fill:#000000; fill-opacity:1.0000; stroke:none;">
<circle cx="7.4372" cy="17.6000" r="0.7500" /> 
</g>
<g style="fill:#000000; fill-opacity:1.0000; stroke:none;">
<circle cx="7.4372" cy="15.0600" r="0.7500" /> 
</g>
<g style="fill:#000000; fill-opacity:1.0000; stroke:none;">
<circle cx="7.4372" cy="12.5200" r="0.7500" /> 
</g>
<g style="fill:#000000; fill-opacity:1.0000; stroke:none;">
<circle cx="7.4372" cy="9.9800" r="0.7500" /> 
</g>
<g style="fill:#000000; fill-opacity:1.0000; stroke:none;">
<circle cx="7.4372" cy="7.4400" r="0.7500" /> 
</g>
<g style="fill:#000000; fill-opacity:1.0000; stroke:none;">
<circle cx="7.4372" cy="4.9000" r="0.7500" /> 
</g>
<g style="fill:#000000; fill-opacity:1.0000; stroke:none;">
<circle cx="7.4372" cy="2.3600" r="0.7500" /> 
<path style="fill:#000000; fill-opacity:1.0000; stroke:none;fill-rule:evenodd;"
d="M 5.5772,34.7300
7.0772,34.7300
7.0772,33.2300
5.5772,33.2300
Z" /> 
</g>
<g style="fill:#000000; fill-opacity:1.0000; stroke:none;">
<circle cx="6.3272" cy="26.3600" r="0.7500" /> 
<circle cx="18.5672" cy="33.6100" r="0.7500" /> 
</g>
<g style="fill:#000000; fill-opacity:1.0000; stroke:none;">
<circle cx="18.5672" cy="41.2300" r="0.7500" /> 
<path style="fill:#000000; fill-opacity:1.0000; stroke:none;fill-rule:evenodd;"
d="M 7.4072,40.8900
7.4072,42.3900
8.9072,42.3900
8.9072,40.8900
Z" /> 
<circle cx="15.7772" cy="41.6400" r="0.7500" /> 
<circle cx="22.3372" cy="16.5000" r="0.7500" /> 
</g>
<g style="fill:#000000; fill-opacity:1.0000; stroke:none;">
<circle cx="14.7172" cy="16.5000" r="0.7500" /> 
<circle cx="12.7372" cy="3.0300" r="0.7500" /> 
</g>
<g style="fill:#000000; fill-opacity:1.0000; stroke:none;">
<circle cx="12.7372" cy="10.6500" r="0.7500" /> 
<path style="fill:#000000; fill-opacity:1.0000; stroke:none;fill-rule:evenodd;"
d="M 25.8272,3.5800
25.8272,2.0800
24.3272,2.0800
24.3272,3.5800
Z" /> 
<circle cx="25.0772" cy="5.3700" r="0.7500" /> 
<circle cx="25.0772" cy="7.9100" r="0.7500" /> 
<circle cx="25.0772" cy="10.4500" r="0.7500" /> 
<circle cx="25.0772" cy="12.9900" r="0.7500" /> 
<circle cx="25.0772" cy="15.5300" r="0.7500" /> 
<circle cx="25.0772" cy="18.0700" r="0.7500" /> 
<circle cx="25.0772" cy="20.6100" r="0.7500" /> 
<circle cx="25.0772" cy="23.1500" r="0.7500" /> 
<circle cx="25.0772" cy="25.6900" r="0.7500" /> 
<circle cx="25.0772" cy="28.2300" r="0.7500" /> 
<circle cx="25.0772" cy="30.7700" r="0.7500" /> 
<circle cx="25.0772" cy="33.3100" r="0.7500" /> 
<circle cx="25.0772" cy="35.8500" r="0.7500" /> 
<circle cx="25.0772" cy="38.3900" r="0.7500" /> 
<circle cx="25.0772" cy="40.9300" r="0.7500" /> 
<circle cx="25.0772" cy="43.4700" r="0.7500" /> 
<circle cx="25.0772" cy="46.0100" r="0.7500" /> 
<circle cx="10.2172" cy="7.3600" r="0.7500" /> 
</g>
<g style="fill:#000000; fill-opacity:1.0000; stroke:none;">
<circle cx="10.2172" cy="14.9800" r="0.7500" /> 
<path style="fill:#000000; fill-opacity:1.0000; stroke:none;fill-rule:evenodd;"
d="M 12.5972,39.2200
14.0972,39.2200
14.0972,37.7200
12.5972,37.7200
Z" /> 
<circle cx="13.3472" cy="30.8500" r="0.7500" /> 
<circle cx="19.4213" cy="19.0959" r="0.7500" /> 
</g>
<g style="fill:#000000; fill-opacity:1.0000; stroke:none;">
<circle cx="14.0331" cy="24.4841" r="0.7500" /> 
<circle cx="21.8413" cy="21.8059" r="0.7500" /> 
</g>
<g style="fill:#000000; fill-opacity:1.0000; stroke:none;">
<circle cx="16.4531" cy="27.1941" r="0.7500" /> 
<path style="fill:#000000; fill-opacity:1.0000; stroke:none;fill-rule:evenodd;"
d="M 2.7272,3.5600
2.7272,2.0600
1.2272,2.0600
1.2272,3.5600
Z" /> 
<circle cx="1.9772" cy="5.3500" r="0.7500" /> 
<circle cx="1.9772" cy="7.8900" r="0.7500" /> 
<circle cx="1.9772" cy="10.4300" r="0.7500" /> 
<circle cx="1.9772" cy="12.9700" r="0.7500" /> 
<circle cx="1.9772" cy="15.5100" r="0.7500" /> 
<circle cx="1.9772" cy="18.0500" r="0.7500" /> 
<circle cx="1.9772" cy="20.5900" r="0.7500" /> 
<circle cx="1.9772" cy="23.1300" r="0.7500" /> 
<circle cx="1.9772" cy="25.6700" r="0.7500" /> 
<circle cx="1.9772" cy="28.2100" r="0.7500" /> 
<circle cx="1.9772" cy="30.7500" r="0.7500" /> 
<circle cx="1.9772" cy="33.2900" r="0.7500" /> 
<circle cx="1.9772" cy="35.8300" r="0.7500" /> 
<circle cx="1.9772" cy="38.3700" r="0.7500" /> 
<circle cx="1.9772" cy="40.9100" r="0.7500" /> 
<circle cx="1.9772" cy="43.4500" r="0.7500" /> 
<circle cx="1.9772" cy="45.9900" r="0.7500" /> 
<path style="fill:#000000; fill-opacity:1.0000; stroke:none;fill-rule:evenodd;"
d="M 9.0872,36.3800
10.5872,36.3800
10.5872,34.8800
9.0872,34.8800
Z" /> 
<circle cx="9.8372" cy="28.0100" r="0.7500" /> 
<path style="fill:#000000; fill-opacity:1.0000; stroke:none;fill-rule:evenodd;"
d="M 18.2972,31.6500
18.2972,30.8500
17.3972,30.8500
17.3972,31.6500
Z" /> 
<path style="fill:#000000; fill-opacity:1.0000; stroke:none;fill-rule:evenodd;"
d="M 18.2972,29.7500
18.2972,28.9500
17.3972,28.9500
17.3972,29.7500
Z" /> 
<path style="fill:#000000; fill-opacity:1.0000; stroke:none;fill-rule:evenodd;"
d="M 15.9972,30.7000
15.9972,29.9000
15.0972,29.9000
15.0972,30.7000
Z" /> 
<path style="fill:#000000; fill-opacity:1.0000; stroke:none;fill-rule:evenodd;"
d="M 21.0497,38.5800
21.0497,37.7800
20.1497,37.7800
20.1497,38.5800
Z" /> 
<path style="fill:#000000; fill-opacity:1.0000; stroke:none;fill-rule:evenodd;"
d="M 21.0497,36.6800
21.0497,35.8800
20.1497,35.8800
20.1497,36.6800
Z" /> 
<path style="fill:#000000; fill-opacity:1.0000; stroke:none;fill-rule:evenodd;"
d="M 18.7497,37.6300
18.7497,36.8300
17.8497,36.8300
17.8497,37.6300
Z" /> 
<path style="fill:#000000; fill-opacity:1.0000; stroke:none;fill-rule:evenodd;"
d="M 6.9272,25.0100
7.7272,25.0100
7.7272,24.1100
6.9272,24.1100
Z" /> 
<path style="fill:#000000; fill-opacity:1.0000; stroke:none;fill-rule:evenodd;"
d="M 8.8272,25.0100
9.6272,25.0100
9.6272,24.1100
8.8272,24.1100
Z" /> 
<path style="fill:#000000; fill-opacity:1.0000; stroke:none;fill-rule:evenodd;"
d="M 7.8772,22.7100
8.6772,22.7100
8.6772,21.8100
7.8772,21.8100
Z" /> 
<path style="fill:#000000; fill-opacity:1.0000; stroke:none;fill-rule:evenodd;"
d="M 11.0672,28.3725
11.8672,28.3725
11.8672,27.4725
11.0672,27.4725
Z" /> 
<path style="fill:#000000; fill-opacity:1.0000; stroke:none;fill-rule:evenodd;"
d="M 12.9672,28.3725
13.7672,28.3725
13.7672,27.4725
12.9672,27.4725
Z" /> 
<path style="fill:#000000; fill-opacity:1.0000; stroke:none;fill-rule:evenodd;"
d="M 12.0172,26.0725
12.8172,26.0725
12.8172,25.1725
12.0172,25.1725
Z" /> 
<circle cx="13.7172" cy="43.5700" r="0.7500" /> 
</g>
<g style="fill:#000000; fill-opacity:1.0000; stroke:none;">
<circle cx="7.1072" cy="46.7800" r="0.7500" /> 
</g>
<g style="fill:#000000; fill-opacity:1.0000; stroke:none;">
<circle cx="10.2972" cy="20.1100" r="0.7500" /> 
</g>
<g style="fill:none; 
stroke:#000000; stroke-width:1.2000; stroke-opacity:1; 
stroke-linecap:round; stroke-linejoin:round;">
<path d="M9.8372 35.6300
L9.8372 32.4200
" />
<path d="M9.8372 28.0100
L9.8372 30.8200
" />
<path d="M6.3272 26.3600
L6.3272 29.1900
" />
<path d="M13.3472 30.8500
L13.3472 33.6600
" />
<path d="M13.3472 38.4700
L13.3472 35.2600
" />
<path d="M8.1572 41.6400
L11.3472 41.6400
" />
<path d="M15.7772 41.6400
L12.9472 41.6400
" />
</g>
<g style="fill:none; 
stroke:#000000; stroke-width:0.7000; stroke-opacity:1; 
stroke-linecap:round; stroke-linejoin:round;">
<path d="M19.0847 14.1400
L19.6272 13.5975
" />
<path d="M19.6272 13.5975
L19.6272 11.6000
" />
<path d="M17.8297 14.1400
L16.2972 12.6075
" />
<path d="M16.2972 12.6075
L16.2972 12.3900
" />
</g>
<g style="fill:none; 
stroke:#000000; stroke-width:1.2000; stroke-opacity:1; 
stroke-linecap:round; stroke-linejoin:round;">
<path d="M18.4997 37.2300
L18.4997 41.1625
" />
<path d="M8.2772 22.4600
L10.4221 22.4600
" />
<path d="M10.4221 22.4600
L14.6272 18.2549
" />
</g>
<g style="fill:none; 
stroke:#000000; stroke-width:0.8000; stroke-opacity:1; 
stroke-linecap:round; stroke-linejoin:round;">
<path d="M6.9172 45.0800
L4.5572 45.0800
" />
<path d="M0.5672 47.4000
L0.5672 47.8000
" />
<path d="M13.7172 43.5700
L13.4972 43.7900
" />
</g>
<g style="fill:none; 
stroke:#000000; stroke-width:1.2000; stroke-opacity:1; 
stroke-linecap:round; stroke-linejoin:round;">
<path d="M14.5872 16.6500
L16.2972 14.9400
" />
<path d="M15.7472 30.3000
L15.7472 27.9000
" />
</g>
<g style="fill:none; 
stroke:#000000; stroke-width:0.8000; stroke-opacity:1; 
stroke-linecap:round; stroke-linejoin:round;">
<path d="M3.6472 45.9900
L1.9772 45.9900
" />
<path d="M8.2072 43.7900
L6.9172 45.0800
" />
</g>
<g style="fill:none; 
stroke:#000000; stroke-width:1.2000; stroke-opacity:1; 
stroke-linecap:round; stroke-linejoin:round;">
<path d="M18.4997 41.1625
L18.5672 41.2300
" />
<path d="M14.6272 18.2549
L14.6272 16.4800
" />
</g>
<g style="fill:none; 
stroke:#000000; stroke-width:0.8000; stroke-opacity:1; 
stroke-linecap:round; stroke-linejoin:round;">
<path d="M13.4972 43.7900
L8.2072 43.7900
" />
</g>
<g style="fill:none; 
stroke:#000000; stroke-width:1.2000; stroke-opacity:1; 
stroke-linecap:round; stroke-linejoin:round;">
<path d="M13.8672 17.6000
L14.5872 16.8800
" />
<path d="M14.5872 16.8800
L14.5872 16.6500
" />
<path d="M16.2972 14.9400
L16.2972 12.3900
" />
<path d="M7.4372 17.6000
L13.8672 17.6000
" />
<path d="M12.4172 25.8225
L12.6947 25.8225
" />
<path d="M12.6947 25.8225
L14.0331 24.4841
" />
<path d="M15.7472 27.9000
L16.4531 27.1941
" />
</g>
<g style="fill:none; 
stroke:#000000; stroke-width:0.8000; stroke-opacity:1; 
stroke-linecap:round; stroke-linejoin:round;">
<path d="M4.5572 45.0800
L3.6472 45.9900
" />
<path d="M1.9772 45.9900
L0.5672 47.4000
" />
</g>
<g style="fill:none; 
stroke:#000000; stroke-width:1.2000; stroke-opacity:1; 
stroke-linecap:round; stroke-linejoin:round;">
<path d="M6.9972 24.4600
L6.3272 25.1300
" />
<path d="M7.3272 24.4600
L6.9972 24.4600
" />
<path d="M6.3272 25.1300
L6.3272 26.3600
" />
<path d="M10.0247 27.8225
L9.8372 28.0100
" />
<path d="M11.4672 27.8225
L10.0247 27.8225
" />
<path d="M17.4672 43.3300
L15.7772 41.6400
" />
<path d="M20.7472 38.4275
L20.7472 42.3800
" />
<path d="M19.7972 43.3300
L17.4672 43.3300
" />
<path d="M20.7472 42.3800
L19.7972 43.3300
" />
<path d="M20.4997 38.1800
L20.7472 38.4275
" />
<path d="M14.8872 32.3900
L13.3472 30.8500
" />
<path d="M17.7472 31.2500
L16.6072 32.3900
" />
<path d="M16.6072 32.3900
L14.8872 32.3900
" />
<path d="M5.1972 41.8853
L5.1972 42.3200
" />
<path d="M5.1972 41.8853
L5.7612 41.8853
" />
<path d="M3.5075 42.9803
L4.6025 41.8853
" />
<path d="M3.5075 42.9803
L6.3272 40.1607
" />
<path d="M5.7272 40.7607
L6.3272 40.1607
" />
<path d="M6.0172 43.4500
L7.6922 41.7750
" />
<path d="M5.7612 41.8853
L6.9065 40.7400
" />
<path d="M7.6922 41.7750
L7.7972 41.8800
" />
<path d="M7.6069 41.6897
L7.6922 41.7750
" />
<path d="M5.7272 43.4500
L5.7272 40.7607
" />
<path d="M6.3272 40.1607
L6.9065 40.7400
" />
<path d="M9.1865 38.4600
L13.3372 38.4600
" />
<path d="M3.0379 43.4500
L3.5075 42.9803
" />
<path d="M6.3272 40.1607
L6.3272 33.9800
" />
<path d="M7.7972 41.8800
L8.1372 41.8800
" />
<path d="M4.6025 41.8853
L9.8372 36.6507
" />
<path d="M1.9772 43.4500
L5.7272 43.4500
" />
<path d="M13.3372 38.4600
L13.3472 38.4700
" />
<path d="M5.7612 41.8853
L5.9569 41.6897
" />
<path d="M4.6025 41.8853
L5.1972 41.8853
" />
<path d="M6.9065 40.7400
L9.1865 38.4600
" />
<path d="M1.9772 43.4500
L3.0379 43.4500
" />
<path d="M5.1972 42.3200
L4.7172 42.8000
" />
<path d="M5.7272 43.4500
L6.0172 43.4500
" />
<path d="M9.8372 36.6507
L9.8372 35.6300
" />
<path d="M5.9569 41.6897
L7.6069 41.6897
" />
</g>
<g style="fill:none; 
stroke:#000000; stroke-width:0.8000; stroke-opacity:1; 
stroke-linecap:round; stroke-linejoin:round;">
<path d="M18.9872 16.4800
L11.0072 24.4600
" />
<path d="M22.3372 16.5000
L22.3172 16.4800
" />
<path d="M11.0072 24.4600
L9.2272 24.4600
" />
<path d="M22.4772 3.1900
L22.4772 16.3600
" />
<path d="M22.3172 16.4800
L18.9872 16.4800
" />
<path d="M22.3172 16.5200
L22.2072 16.5200
" />
<path d="M22.4772 16.3600
L22.3172 16.5200
" />
<path d="M22.8372 2.8300
L22.4772 3.1900
" />
<path d="M25.0772 2.8300
L22.8372 2.8300
" />
</g>
<g style="fill:none; 
stroke:#000000; stroke-width:1.2000; stroke-opacity:1; 
stroke-linecap:round; stroke-linejoin:round;">
<path d="M25.0772 20.6100
L23.0372 20.6100
" />
<path d="M21.8413 21.8059
L18.5372 25.1100
" />
<path d="M23.0372 20.6100
L21.8413 21.8059
" />
<path d="M18.5372 28.5600
L17.7472 29.3500
" />
<path d="M18.5372 25.1100
L18.5372 28.5600
" />
</g>
<g style="fill:none; 
stroke:#000000; stroke-width:0.8000; stroke-opacity:1; 
stroke-linecap:round; stroke-linejoin:round;">
<path d="M22.6872 18.4100
L22.0013 19.0959
" />
<path d="M13.3672 27.7100
L13.3672 27.8225
" />
<path d="M22.7797 18.4100
L22.6872 18.4100
" />
<path d="M22.6672 18.4100
L13.3672 27.7100
" />
<path d="M25.0772 18.0700
L24.7372 18.4100
" />
<path d="M22.0013 19.0959
L19.4213 19.0959
" />
<path d="M24.7372 18.4100
L22.7797 18.4100
" />
<path d="M22.7797 18.4100
L22.6672 18.4100
" />
</g>
<g style="fill:none; 
stroke:#000000; stroke-width:1.2000; stroke-opacity:1; 
stroke-linecap:round; stroke-linejoin:round;">
<path d="M25.0772 23.1500
L24.2072 23.1500
" />
<path d="M20.6672 31.5100
L18.5672 33.6100
" />
<path d="M20.4997 35.5425
L18.5672 33.6100
" />
<path d="M24.2072 23.1500
L20.6672 26.6900
" />
<path d="M20.6672 26.6900
L20.6672 31.5100
" />
<path d="M20.4997 36.2800
L20.4997 35.5425
" />
<path d="M25.0572 23.1300
L25.0772 23.1500
" />
</g>
<g style="fill:none; 
stroke:#000000; stroke-width:0.8000; stroke-opacity:1; 
stroke-linecap:round; stroke-linejoin:round;">
<path d="M23.6572 43.4700
L20.3472 46.7800
" />
<path d="M23.6572 43.4700
L25.0772 43.4700
" />
</g>
<g style="fill:none; 
stroke:#000000; stroke-width:1.2000; stroke-opacity:1; 
stroke-linecap:round; stroke-linejoin:round;">
<path d="M12.7372 3.0300
L12.7372 4.8400
" />
<path d="M7.4672 20.1100
L7.4372 20.1400
" />
<path d="M10.2972 20.1100
L7.4672 20.1100
" />
</g>
<g style="fill:none; 
stroke:#000000; stroke-width:0.8000; stroke-opacity:1; 
stroke-linecap:round; stroke-linejoin:round;">
<path d="M20.3472 46.7800
L7.1072 46.7800
" />
</g>
<g style="fill:none; 
stroke:#000000; stroke-width:1.2000; stroke-opacity:1; 
stroke-linecap:round; stroke-linejoin:round;">
<path d="M12.7372 4.8400
L10.2172 7.3600
" />
</g>
<g style="fill:none; 
stroke:#000000; stroke-width:0.8000; stroke-opacity:1; 
stroke-linecap:round; stroke-linejoin:round;">
<path d="M4.6972 22.9700
L4.6972 25.1800
" />
<path d="M7.4372 15.0600
L7.2672 15.0600
" />
<path d="M7.2672 15.0600
L5.4972 16.8300
" />
<path d="M4.6972 25.1800
L4.2072 25.6700
" />
</g>
<g style="fill:none; 
stroke:#000000; stroke-width:1.2000; stroke-opacity:1; 
stroke-linecap:round; stroke-linejoin:round;">
<path d="M10.2172 14.9800
L7.5172 14.9800
" />
<path d="M7.5172 14.9800
L7.4372 15.0600
" />
</g>
<g style="fill:none; 
stroke:#000000; stroke-width:0.8000; stroke-opacity:1; 
stroke-linecap:round; stroke-linejoin:round;">
<path d="M5.4972 22.1800
L4.7072 22.9700
" />
<path d="M4.7072 22.9700
L4.6972 22.9700
" />
<path d="M4.2072 25.6700
L1.9772 25.6700
" />
<path d="M5.4972 16.8300
L5.4972 22.1800
" />
<path d="M4.0572 15.9000
L7.4372 12.5200
" />
</g>
<g style="fill:none; 
stroke:#000000; stroke-width:1.2000; stroke-opacity:1; 
stroke-linecap:round; stroke-linejoin:round;">
<path d="M12.7372 10.6500
L10.8672 12.5200
" />
</g>
<g style="fill:none; 
stroke:#000000; stroke-width:0.8000; stroke-opacity:1; 
stroke-linecap:round; stroke-linejoin:round;">
<path d="M4.0572 19.4300
L4.0572 15.9000
" />
</g>
<g style="fill:none; 
stroke:#000000; stroke-width:1.2000; stroke-opacity:1; 
stroke-linecap:round; stroke-linejoin:round;">
<path d="M10.8672 12.5200
L7.4372 12.5200
" />
</g>
<g style="fill:none; 
stroke:#000000; stroke-width:0.8000; stroke-opacity:1; 
stroke-linecap:round; stroke-linejoin:round;">
<path d="M1.9772 20.5900
L2.8972 20.5900
" />
<path d="M2.8972 20.5900
L4.0572 19.4300
" />
</g>
<g style="fill:none; 
stroke:#000000; stroke-width:1.2000; stroke-opacity:1; 
stroke-linecap:round; stroke-linejoin:round;">
<path d="M7.4372 2.3600
L6.3765 2.3600
" />
<path d="M3.0379 10.4300
L1.9772 10.4300
" />
<path d="M4.9372 8.5307
L3.0379 10.4300
" />
<path d="M4.9372 3.7993
L4.9372 8.5307
" />
<path d="M6.3765 2.3600
L4.9372 3.7993
" />
<path d="M16.2972 12.3900
L17.0872 11.6000
" />
<path d="M6.3272 33.9800
L6.3272 30.7900
" />
<path style="fill:#000000; fill-opacity:1.0000; stroke:none;fill-rule:evenodd;"
d="M 23.2301,45.6000
23.2009,45.6241
21.2629,47.5621
21.1293,47.6957
20.9764,47.8068
20.9719,47.8100
20.9137,47.8767
20.8901,47.9621
20.9059,48.0492
20.9580,48.1209
21.0360,48.1628
21.0889,48.1700
26.7778,48.1700
26.8641,48.1503
26.9334,48.0951
26.9718,48.0153
26.9768,47.9706
26.9743,46.7800
26.9736,46.4337
26.9537,46.3474
26.8983,46.2783
26.8185,46.2401
26.7299,46.2402
26.6502,46.2788
26.5951,46.3482
26.5811,46.3877
26.5564,46.4906
26.5564,46.4906
26.4630,46.7161
26.4630,46.7161
26.3355,46.9242
26.1770,47.1098
25.9914,47.2683
25.7833,47.3958
25.7833,47.3958
25.5578,47.4892
25.5578,47.4892
25.5578,47.4892
25.4137,47.5238
25.3205,47.5461
25.3205,47.5461
25.3205,47.5461
25.0772,47.5653
24.8339,47.5461
24.8339,47.5461
24.8339,47.5461
24.7915,47.5360
24.5966,47.4892
24.3711,47.3958
24.1630,47.2683
23.9774,47.1098
23.8189,46.9242
23.6914,46.7161
23.5980,46.4906
23.5411,46.2533
23.5219,46.0100
23.5400,45.7804
23.5271,45.6928
23.4775,45.6194
23.4010,45.5749
23.3127,45.5679
Z" /> 
<path style="fill:#000000; fill-opacity:1.0000; stroke:none;fill-rule:evenodd;"
d="M 12.0994,43.0164
11.9363,43.0659
11.7880,43.0805
11.2714,43.0805
11.1231,43.0659
11.0676,43.0491
11.0099,43.0405
9.4339,43.0405
9.3475,43.0602
9.3280,43.0710
9.2748,43.1044
9.2567,43.1158
9.0865,43.1754
8.9522,43.1905
8.6675,43.1905
8.6060,43.2002
8.4652,43.2460
8.2474,43.2805
8.2474,43.2805
8.2396,43.2811
8.2398,43.2828
8.1634,43.3002
8.1090,43.3388
7.0904,44.3574
7.0904,44.3574
7.0854,44.3624
6.9296,44.5182
6.7512,44.6478
6.5548,44.7479
6.5048,44.7642
6.4933,44.7679
6.4933,44.7679
6.4933,44.7679
6.3452,44.8160
6.1274,44.8505
6.1274,44.8505
5.8988,44.8505
5.8987,44.8505
5.8374,44.8505
3.1563,44.8505
3.1563,44.8505
3.1481,44.8505
2.9194,44.8505
2.9194,44.8505
2.6873,44.8505
2.6112,44.8656
2.4578,44.9292
2.3137,44.9638
2.2205,44.9861
2.2205,44.9861
2.2205,44.9861
1.9772,45.0053
1.7339,44.9861
1.7339,44.9861
1.7339,44.9861
1.6915,44.9760
1.4966,44.9292
1.3067,44.8505
1.2711,44.8358
1.2711,44.8358
1.2558,44.8264
1.0630,44.7083
0.8774,44.5498
0.7189,44.3642
0.5914,44.1561
0.5014,43.9387
0.4501,43.8665
0.3726,43.8237
0.2842,43.8187
0.2024,43.8526
0.1434,43.9186
0.1189,44.0037
0.1185,44.0153
0.1268,47.9714
0.1467,48.0577
0.2020,48.1268
0.2819,48.1651
0.3258,48.1700
5.8237,48.1700
5.9100,48.1503
5.9792,48.0951
6.0177,48.0153
6.0177,47.9267
5.9792,47.8469
5.9750,47.8418
5.8489,47.6942
5.8489,47.6942
5.7214,47.4861
5.6280,47.2606
5.5711,47.0233
5.5519,46.7800
5.5711,46.5367
5.6280,46.2994
5.6365,46.2788
5.7214,46.0739
5.7214,46.0739
5.8489,45.8658
6.0074,45.6802
6.1930,45.5217
6.4011,45.3942
6.4011,45.3942
6.6266,45.3008
6.6266,45.3008
6.6266,45.3008
6.8639,45.2439
7.1072,45.2247
7.3505,45.2439
7.5878,45.3008
7.5878,45.3008
7.8133,45.3942
7.8133,45.3942
8.0214,45.5217
8.0332,45.5318
8.1116,45.5729
8.1624,45.5795
19.7675,45.5795
19.8539,45.5598
19.9082,45.5212
20.4401,44.9894
20.4872,44.9144
20.4971,44.8264
20.4679,44.7428
20.4052,44.6802
20.3216,44.6509
20.2379,44.6594
20.2119,44.6678
20.1778,44.6789
20.1252,44.6960
19.9074,44.7305
19.9074,44.7305
19.6788,44.7305
19.6787,44.7305
17.5857,44.7305
17.5856,44.7305
17.5774,44.7305
17.3570,44.7305
17.3570,44.7305
17.1392,44.6960
16.9296,44.6279
16.7332,44.5278
16.6589,44.4739
16.5548,44.3982
16.3990,44.2424
16.3990,44.2424
16.3876,44.2310
16.3876,44.2310
15.2890,43.1324
15.2245,43.0893
15.1432,43.0556
15.0671,43.0405
13.3045,43.0405
13.2468,43.0491
13.1913,43.0659
13.0430,43.0805
12.5264,43.0805
12.3781,43.0659
12.2150,43.0164
12.1266,43.0102
Z" /> 
<path style="fill:#000000; fill-opacity:1.0000; stroke:none;fill-rule:evenodd;"
d="M 26.7246,43.7221
26.6449,43.7607
26.5899,43.8301
26.5758,43.8696
26.5564,43.9506
26.5564,43.9506
26.4630,44.1761
26.4630,44.1761
26.3355,44.3842
26.1770,44.5698
26.1548,44.5887
26.1019,44.6597
26.0852,44.7467
26.1078,44.8323
26.1548,44.8913
26.1770,44.9102
26.3355,45.0958
26.4630,45.3039
26.4630,45.3039
26.5564,45.5294
26.5564,45.5294
26.5793,45.6249
26.6186,45.7042
26.6885,45.7587
26.7750,45.7774
26.8611,45.7567
26.9298,45.7007
26.9673,45.6205
26.9718,45.5780
26.9683,43.9156
26.9484,43.8293
26.8931,43.7602
26.8132,43.7219
Z" /> 
<path style="fill:#000000; fill-opacity:1.0000; stroke:none;fill-rule:evenodd;"
d="M 26.7194,41.2040
26.6397,41.2426
26.5846,41.3119
26.5706,41.3514
26.5564,41.4106
26.5564,41.4106
26.4630,41.6361
26.4630,41.6361
26.3355,41.8442
26.1770,42.0298
26.1548,42.0487
26.1019,42.1197
26.0852,42.2067
26.1078,42.2923
26.1548,42.3513
26.1770,42.3702
26.3355,42.5558
26.4630,42.7639
26.4630,42.7639
26.5564,42.9894
26.5564,42.9894
26.5740,43.0626
26.6133,43.1420
26.6831,43.1964
26.7697,43.2151
26.8558,43.1945
26.9244,43.1385
26.9619,43.0583
26.9665,43.0157
26.9631,41.3975
26.9432,41.3112
26.8878,41.2421
26.8080,41.2038
Z" /> 
<path style="fill:#000000; fill-opacity:1.0000; stroke:none;fill-rule:evenodd;"
d="M 0.1971,41.2997
0.1380,41.3658
0.1135,41.4509
0.1132,41.4624
0.1162,42.8912
0.1361,42.9775
0.1914,43.0466
0.2713,43.0849
0.3599,43.0847
0.4396,43.0461
0.4947,42.9767
0.4990,42.9669
0.5914,42.7439
0.5914,42.7439
0.7189,42.5358
0.8774,42.3502
0.8774,42.3502
0.8996,42.3313
0.9524,42.2603
0.9692,42.1733
0.9466,42.0877
0.8996,42.0287
0.8774,42.0098
0.7189,41.8242
0.5914,41.6161
0.4980,41.3906
0.4980,41.3906
0.4961,41.3859
0.4448,41.3136
0.3673,41.2708
0.2789,41.2658
Z" /> 
<path style="fill:#000000; fill-opacity:1.0000; stroke:none;fill-rule:evenodd;"
d="M 16.8234,33.7737
16.7174,33.7905
15.0057,33.7905
15.0056,33.7905
14.9974,33.7905
14.9867,33.7905
14.9004,33.8102
14.8311,33.8654
14.7927,33.9452
14.7877,33.9895
14.7877,34.1008
14.7731,34.2491
14.7731,34.2491
14.7236,34.4122
14.7174,34.5006
14.7236,34.5278
14.7731,34.6909
14.7877,34.8392
14.7877,35.3558
14.7877,35.3558
14.7731,35.5041
14.7731,35.5041
14.7731,35.5041
14.7563,35.5596
14.7477,35.6173
14.7477,37.1933
14.7674,37.2797
14.7782,37.2992
14.8230,37.3705
14.8230,37.3705
14.8723,37.5114
14.8826,37.5407
14.8977,37.6750
14.8977,39.2650
14.8826,39.3993
14.8826,39.3993
14.8826,39.3993
14.8230,39.5695
14.8230,39.5695
14.7270,39.7223
14.5995,39.8498
14.5995,39.8498
14.5995,39.8498
14.5642,39.8720
14.5015,39.9346
14.4723,40.0182
14.4822,40.1062
14.5293,40.1812
14.6043,40.2283
14.6700,40.2395
15.0671,40.2395
15.1432,40.2244
15.1443,40.2239
15.2966,40.1608
15.2966,40.1608
15.5339,40.1039
15.7772,40.0847
16.0205,40.1039
16.2578,40.1608
16.2578,40.1608
16.4833,40.2542
16.4833,40.2542
16.6914,40.3817
16.8770,40.5402
17.0355,40.7258
17.1630,40.9339
17.2265,41.0873
17.2696,41.1518
17.9890,41.8712
18.0640,41.9183
18.1297,41.9295
19.1347,41.9295
19.2210,41.9098
19.2754,41.8712
19.2884,41.8582
19.3355,41.7832
19.3467,41.7175
19.3467,39.0404
19.3270,38.9540
19.3087,38.9234
19.3019,38.9140
19.3019,38.9140
19.2018,38.7176
19.1337,38.5080
19.0992,38.2902
19.0992,38.0698
19.1337,37.8520
19.2018,37.6424
19.3019,37.4460
19.3738,37.3470
19.4086,37.2655
19.4047,37.1771
19.3738,37.1130
19.3019,37.0140
19.2018,36.8176
19.1337,36.6080
19.0992,36.3902
19.0992,36.2050
19.0795,36.1187
19.0409,36.0643
18.0790,35.1024
18.0145,35.0593
17.8611,34.9958
17.6530,34.8683
17.4674,34.7098
17.3089,34.5242
17.1814,34.3161
17.1537,34.2491
17.0923,34.1008
17.0880,34.0906
17.0480,33.9238
17.0087,33.8445
16.9388,33.7900
16.8522,33.7713
Z" /> 
<path style="fill:#000000; fill-opacity:1.0000; stroke:none;fill-rule:evenodd;"
d="M 26.7141,38.6858
26.6344,38.7244
26.5794,38.7938
26.5653,38.8333
26.5564,38.8706
26.5564,38.8706
26.4630,39.0961
26.4630,39.0961
26.3355,39.3042
26.1770,39.4898
26.1548,39.5087
26.1019,39.5797
26.0852,39.6667
26.1078,39.7523
26.1548,39.8113
26.1770,39.8302
26.3355,40.0158
26.4630,40.2239
26.4630,40.2239
26.5564,40.4494
26.5564,40.4494
26.5686,40.5004
26.6079,40.5797
26.6778,40.6342
26.7643,40.6529
26.8505,40.6322
26.9191,40.5762
26.9566,40.4960
26.9611,40.4535
26.9578,38.8793
26.9379,38.7931
26.8826,38.7239
26.8027,38.6857
Z" /> 
<path style="fill:#000000; fill-opacity:1.0000; stroke:none;fill-rule:evenodd;"
d="M 0.2048,38.7355
0.1408,38.7967
0.1097,38.8796
0.1079,38.9067
0.1109,40.3647
0.1308,40.4510
0.1862,40.5202
0.2660,40.5584
0.3546,40.5582
0.4343,40.5197
0.4894,40.4503
0.4949,40.4366
0.4950,40.4366
0.5914,40.2039
0.5914,40.2039
0.7038,40.0205
0.7189,39.9958
0.7189,39.9958
0.7189,39.9958
0.8774,39.8102
0.8774,39.8102
0.8996,39.7913
0.9524,39.7203
0.9692,39.6333
0.9466,39.5477
0.8996,39.4887
0.8774,39.4698
0.7189,39.2842
0.5914,39.0761
0.4980,38.8506
0.4980,38.8506
0.4961,38.8448
0.4507,38.7688
0.3768,38.7200
0.2891,38.7081
Z" /> 
<path style="fill:#000000; fill-opacity:1.0000; stroke:none;fill-rule:evenodd;"
d="M 26.7089,36.1677
26.6292,36.2063
26.5741,36.2757
26.5601,36.3152
26.5564,36.3306
26.5564,36.3306
26.5564,36.3306
26.4630,36.5561
26.4630,36.5561
26.3355,36.7642
26.1770,36.9498
26.1548,36.9687
26.1019,37.0397
26.0852,37.1267
26.1078,37.2123
26.1548,37.2713
26.1770,37.2902
26.3355,37.4758
26.4630,37.6839
26.4630,37.6839
26.5564,37.9094
26.5564,37.9094
26.5633,37.9381
26.6026,38.0175
26.6724,38.0719
26.7590,38.0906
26.8451,38.0700
26.9137,38.0140
26.9513,37.9337
26.9558,37.8912
26.9526,36.3612
26.9327,36.2749
26.8773,36.2058
26.7975,36.1675
Z" /> 
<path style="fill:#000000; fill-opacity:1.0000; stroke:none;fill-rule:evenodd;"
d="M 0.2132,36.1663
0.1446,36.2223
0.1071,36.3025
0.1025,36.3451
0.1057,37.8428
0.1256,37.9291
0.1809,37.9982
0.2608,38.0364
0.3494,38.0363
0.4291,37.9977
0.4841,37.9283
0.4954,37.8967
0.4956,37.8968
0.4980,37.8894
0.5914,37.6639
0.5914,37.6639
0.7067,37.4758
0.7189,37.4558
0.7189,37.4558
0.7189,37.4558
0.8774,37.2702
0.8805,37.2676
0.8996,37.2513
0.9524,37.1803
0.9692,37.0933
0.9466,37.0077
0.8996,36.9487
0.8774,36.9298
0.7189,36.7442
0.5914,36.5361
0.5577,36.4547
0.4980,36.3106
0.4980,36.3106
0.4950,36.2982
0.4557,36.2188
0.3859,36.1644
0.2993,36.1457
Z" /> 
<path style="fill:#000000; fill-opacity:1.0000; stroke:none;fill-rule:evenodd;"
d="M 17.6535,19.5155
17.6279,19.5370
11.7893,25.3757
11.7893,25.3757
11.7893,25.3757
11.6364,25.4868
11.5537,25.5289
11.4680,25.5725
11.4680,25.5725
11.4680,25.5725
11.2883,25.6309
11.1017,25.6605
11.1017,25.6605
10.1539,25.6605
10.0675,25.6802
10.0480,25.6910
9.9767,25.7358
9.9767,25.7358
9.8065,25.7954
9.6722,25.8105
9.6722,25.8105
8.7822,25.8105
8.7822,25.8105
8.6479,25.7954
8.4777,25.7358
8.3831,25.6763
8.2995,25.6471
8.2115,25.6570
8.1713,25.6763
8.0767,25.7358
7.9999,25.7627
7.9653,25.7748
7.8903,25.8219
7.8432,25.8969
7.8333,25.9849
7.8375,26.0091
7.8633,26.1167
7.8825,26.3600
7.8633,26.6033
7.8186,26.7898
7.8064,26.8406
7.7680,26.9333
7.7428,26.9940
7.7277,27.0701
7.7277,28.8327
7.7363,28.8904
7.7531,28.9459
7.7677,29.0942
7.7677,29.6108
7.7677,29.6108
7.7531,29.7591
7.7531,29.7591
7.7036,29.9222
7.6974,30.0106
7.7036,30.0378
7.7531,30.2009
7.7677,30.3492
7.7677,30.8658
7.7677,30.8658
7.7531,31.0141
7.7531,31.0141
7.7531,31.0141
7.7363,31.0696
7.7277,31.1273
7.7277,32.7033
7.7474,32.7897
7.7582,32.8092
7.8030,32.8805
7.8030,32.8805
7.8313,32.9614
7.8626,33.0507
7.8777,33.1850
7.8777,34.7750
7.8626,34.9093
7.8626,34.9093
7.8626,34.9093
7.8030,35.0795
7.8030,35.0795
7.7582,35.1508
7.7290,35.2344
7.7277,35.2567
7.7277,36.2991
7.7474,36.3855
7.8026,36.4547
7.8824,36.4931
7.9710,36.4931
8.0508,36.4547
8.0674,36.4398
8.2284,36.2788
8.2755,36.2039
8.2867,36.1381
8.2867,34.8350
8.2897,34.8085
8.3018,34.7007
8.3614,34.5305
8.3631,34.5278
8.4062,34.4592
8.4354,34.3756
8.4367,34.3533
8.4367,32.7773
8.4281,32.7196
8.4281,32.7196
8.4113,32.6641
8.3967,32.5158
8.3967,31.9992
8.4113,31.8509
8.4608,31.6878
8.4670,31.5994
8.4608,31.5722
8.4113,31.4091
8.3967,31.2608
8.3967,30.7442
8.4113,30.5959
8.4281,30.5404
8.4367,30.4827
8.4367,28.7201
8.4216,28.6440
8.4028,28.5987
8.3580,28.4906
8.3011,28.2533
8.2819,28.0100
8.3011,27.7667
8.3032,27.7579
8.3264,27.6613
8.3580,27.5294
8.3603,27.5239
8.4514,27.3039
8.4514,27.3039
8.5578,27.1302
8.5789,27.0958
8.5789,27.0958
8.5789,27.0958
8.7374,26.9102
8.9230,26.7517
9.1311,26.6242
9.1311,26.6242
9.3566,26.5308
9.3566,26.5308
9.3566,26.5308
9.5939,26.4739
9.5939,26.4739
9.6356,26.4706
9.6815,26.4614
9.6968,26.4565
9.6968,26.4565
9.7080,26.4547
9.7080,26.4547
9.9145,26.4220
9.9145,26.4220
10.1349,26.4220
10.1431,26.4220
10.1432,26.4220
11.5774,26.4220
11.7951,26.4565
11.7952,26.4565
12.0048,26.5246
12.0048,26.5246
12.2012,26.6247
12.2012,26.6247
12.3755,26.7513
12.4570,26.7861
12.5454,26.7822
12.5984,26.7588
12.6271,26.7408
12.6267,26.7400
12.6706,26.7088
18.6499,20.7296
18.6970,20.6546
18.7069,20.5666
18.6777,20.4830
18.6150,20.4203
18.6131,20.4192
18.5715,20.3937
18.5071,20.3542
18.3215,20.1957
18.1630,20.0101
18.0355,19.8020
17.9525,19.6016
17.9012,19.5294
17.8237,19.4865
17.7353,19.4816
Z" /> 
<path style="fill:#000000; fill-opacity:1.0000; stroke:none;fill-rule:evenodd;"
d="M 26.7036,33.6496
26.6239,33.6882
26.5689,33.7575
26.5596,33.7835
26.5588,33.7832
26.5564,33.7906
26.4630,34.0161
26.4630,34.0161
26.3355,34.2242
26.1770,34.4098
26.1548,34.4287
26.1019,34.4997
26.0852,34.5867
26.1078,34.6723
26.1548,34.7313
26.1770,34.7502
26.3355,34.9358
26.4630,35.1439
26.4630,35.1439
26.5564,35.3694
26.5564,35.3694
26.5579,35.3759
26.5972,35.4552
26.6671,35.5097
26.7537,35.5284
26.8398,35.5077
26.9084,35.4517
26.9459,35.3715
26.9504,35.3290
26.9473,33.8431
26.9274,33.7568
26.8721,33.6877
26.7922,33.6494
Z" /> 
<path style="fill:#000000; fill-opacity:1.0000; stroke:none;fill-rule:evenodd;"
d="M 0.2079,33.6041
0.1392,33.6601
0.1017,33.7403
0.0972,33.7828
0.1004,35.3246
0.1203,35.4109
0.1757,35.4801
0.2555,35.5183
0.3441,35.5181
0.4238,35.4795
0.4789,35.4102
0.4929,35.3707
0.4980,35.3494
0.5065,35.3290
0.5914,35.1239
0.5914,35.1239
0.7189,34.9158
0.8774,34.7302
0.8774,34.7302
0.8996,34.7113
0.9524,34.6403
0.9692,34.5533
0.9466,34.4677
0.8996,34.4087
0.8774,34.3898
0.7189,34.2042
0.5914,33.9961
0.4980,33.7706
0.4897,33.7359
0.4504,33.6566
0.3805,33.6021
0.2940,33.5834
Z" /> 
<path style="fill:#000000; fill-opacity:1.0000; stroke:none;fill-rule:evenodd;"
d="M 0.2025,31.0418
0.1339,31.0978
0.0964,31.1780
0.0919,31.2206
0.0952,32.8065
0.1151,32.8928
0.1704,32.9619
0.2503,33.0002
0.3389,33.0000
0.4186,32.9614
0.4736,32.8921
0.4877,32.8525
0.4980,32.8094
0.5113,32.7773
0.5914,32.5839
0.5914,32.5839
0.7189,32.3758
0.8774,32.1902
0.8774,32.1902
0.8996,32.1713
0.9524,32.1003
0.9692,32.0133
0.9466,31.9277
0.8996,31.8687
0.8774,31.8498
0.7189,31.6642
0.5914,31.4561
0.4980,31.2306
0.4844,31.1737
0.4450,31.0943
0.3752,31.0399
0.2886,31.0212
Z" /> 
<path style="fill:#000000; fill-opacity:1.0000; stroke:none;fill-rule:evenodd;"
d="M 26.6984,31.1260
26.6187,31.1646
26.5636,31.2339
26.5592,31.2438
26.4630,31.4761
26.4630,31.4761
26.3355,31.6842
26.1770,31.8698
26.1548,31.8887
26.1019,31.9597
26.0852,32.0467
26.1078,32.1323
26.1548,32.1913
26.1770,32.2102
26.3355,32.3958
26.4630,32.6039
26.4630,32.6039
26.5564,32.8294
26.5568,32.8308
26.5572,32.8315
26.5594,32.8366
26.5601,32.8363
26.6023,32.9068
26.6762,32.9556
26.7639,32.9675
26.8482,32.9401
26.9122,32.8789
26.9433,32.7960
26.9451,32.7689
26.9421,31.3195
26.9222,31.2332
26.8668,31.1641
26.7869,31.1258
Z" /> 
<path style="fill:#000000; fill-opacity:1.0000; stroke:none;fill-rule:evenodd;"
d="M 16.8136,25.9631
16.7970,25.9780
14.6260,28.1490
14.5789,28.2240
14.5677,28.2897
14.5677,28.4175
14.5526,28.5518
14.5526,28.5518
14.5526,28.5518
14.4930,28.7220
14.4930,28.7220
14.3970,28.8748
14.2695,29.0023
14.2695,29.0023
14.2695,29.0023
14.1167,29.0983
14.0919,29.1070
14.0170,29.1541
13.9698,29.2291
13.9599,29.3171
13.9892,29.4007
14.0518,29.4633
14.0537,29.4645
14.2614,29.5917
14.4470,29.7502
14.6055,29.9358
14.7330,30.1439
14.7965,30.2973
14.8396,30.3618
15.4090,30.9312
15.4840,30.9783
15.5497,30.9895
15.9447,30.9895
16.0310,30.9698
16.0854,30.9312
16.5905,30.4261
16.6376,30.3512
16.6475,30.2631
16.6182,30.1796
16.6107,30.1685
16.5494,30.0840
16.4493,29.8876
16.3812,29.6780
16.3467,29.4602
16.3467,29.2398
16.3812,29.0220
16.4493,28.8124
16.4493,28.8124
16.4493,28.8124
16.5494,28.6160
16.5494,28.6160
16.5494,28.6160
16.6790,28.4376
16.6790,28.4376
16.6790,28.4376
17.0784,28.0382
17.1255,27.9632
17.1367,27.8975
17.1367,26.1187
17.1170,26.0323
17.0618,25.9631
16.9820,25.9247
16.8934,25.9247
Z" /> 
<path style="fill:#000000; fill-opacity:1.0000; stroke:none;fill-rule:evenodd;"
d="M 0.1972,28.4796
0.1285,28.5356
0.0910,28.6158
0.0865,28.6583
0.0899,30.2884
0.1098,30.3747
0.1652,30.4438
0.2450,30.4821
0.3336,30.4819
0.4133,30.4433
0.4684,30.3739
0.4824,30.3344
0.4980,30.2694
0.5009,30.2624
0.5914,30.0439
0.5914,30.0439
0.7189,29.8358
0.8774,29.6502
0.8774,29.6502
0.8996,29.6313
0.9524,29.5603
0.9692,29.4733
0.9466,29.3877
0.8996,29.3287
0.8774,29.3098
0.7189,29.1242
0.5914,28.9161
0.5743,28.8748
0.5063,28.7106
0.4980,28.6906
0.4790,28.6114
0.4397,28.5321
0.3698,28.4776
0.2833,28.4589
Z" /> 
<path style="fill:#000000; fill-opacity:1.0000; stroke:none;fill-rule:evenodd;"
d="M 26.6931,28.5987
26.6134,28.6373
26.5583,28.7067
26.5539,28.7165
26.4630,28.9361
26.4630,28.9361
26.3355,29.1442
26.1770,29.3298
26.1548,29.3487
26.1019,29.4197
26.0852,29.5067
26.1078,29.5923
26.1548,29.6513
26.1770,29.6702
26.3355,29.8558
26.4630,30.0639
26.4630,30.0639
26.5569,30.2907
26.6082,30.3629
26.6857,30.4058
26.7741,30.4107
26.8559,30.3768
26.9149,30.3108
26.9394,30.2257
26.9398,30.2141
26.9396,30.1439
26.9368,28.7922
26.9169,28.7059
26.8615,28.6368
26.7817,28.5985
Z" /> 
<path style="fill:#000000; fill-opacity:1.0000; stroke:none;fill-rule:evenodd;"
d="M 0.1918,25.9173
0.1232,25.9733
0.0857,26.0535
0.0812,26.0960
0.0847,27.7702
0.1046,27.8565
0.1599,27.9257
0.2398,27.9639
0.3284,27.9637
0.4081,27.9251
0.4631,27.8558
0.4772,27.8163
0.4980,27.7294
0.5215,27.6728
0.5914,27.5039
0.5914,27.5039
0.7140,27.3039
0.7189,27.2958
0.7189,27.2958
0.7189,27.2958
0.8774,27.1102
0.8943,27.0958
0.8996,27.0913
0.9524,27.0203
0.9692,26.9333
0.9466,26.8477
0.8996,26.7887
0.8774,26.7698
0.7189,26.5842
0.5914,26.3761
0.4980,26.1506
0.4737,26.0492
0.4344,25.9698
0.3645,25.9154
0.2779,25.8966
Z" /> 
<path style="fill:#000000; fill-opacity:1.0000; stroke:none;fill-rule:evenodd;"
d="M 26.6878,26.0714
26.6081,26.1100
26.5531,26.1794
26.5487,26.1892
26.4630,26.3961
26.4630,26.3961
26.3355,26.6042
26.1770,26.7898
26.1548,26.8087
26.1019,26.8797
26.0852,26.9667
26.1078,27.0523
26.1548,27.1113
26.1770,27.1302
26.3355,27.3158
26.4630,27.5239
26.4630,27.5239
26.5516,27.7378
26.6028,27.8101
26.6803,27.8529
26.7688,27.8579
26.8506,27.8240
26.9096,27.7579
26.9341,27.6728
26.9344,27.6613
26.9342,27.5294
26.9315,26.2649
26.9116,26.1786
26.8563,26.1095
26.7764,26.0712
Z" /> 
<path style="fill:#000000; fill-opacity:1.0000; stroke:none;fill-rule:evenodd;"
d="M 0.1865,23.3551
0.1179,23.4111
0.0803,23.4913
0.0758,23.5338
0.0794,25.2521
0.0993,25.3384
0.1547,25.4075
0.2345,25.4458
0.3231,25.4456
0.4028,25.4070
0.4579,25.3377
0.4719,25.2982
0.4980,25.1894
0.4980,25.1894
0.5914,24.9639
0.5914,24.9639
0.7189,24.7558
0.8774,24.5702
0.8774,24.5702
0.8996,24.5513
0.9524,24.4803
0.9692,24.3933
0.9466,24.3077
0.8996,24.2487
0.8774,24.2298
0.7189,24.0442
0.5914,23.8361
0.4980,23.6106
0.4683,23.4869
0.4290,23.4076
0.3592,23.3531
0.2726,23.3344
Z" /> 
<path style="fill:#000000; fill-opacity:1.0000; stroke:none;fill-rule:evenodd;"
d="M 26.6826,23.5442
26.6029,23.5827
26.5478,23.6521
26.5434,23.6619
26.5120,23.7377
26.4630,23.8561
26.4630,23.8561
26.3355,24.0642
26.1770,24.2498
26.1548,24.2687
26.1019,24.3397
26.0852,24.4267
26.1078,24.5123
26.1548,24.5713
26.1770,24.5902
26.3355,24.7758
26.4630,24.9839
26.4630,24.9839
26.5463,25.1850
26.5975,25.2572
26.6750,25.3001
26.7634,25.3050
26.8453,25.2711
26.9043,25.2051
26.9288,25.1200
26.9291,25.1084
26.9288,24.9639
26.9263,23.7377
26.9064,23.6514
26.8510,23.5822
26.7711,23.5440
Z" /> 
<path style="fill:#000000; fill-opacity:1.0000; stroke:none;fill-rule:evenodd;"
d="M 0.1403,0.2297
0.0710,0.2849
0.0326,0.3647
0.0276,0.4094
0.0309,1.9848
0.0508,2.0711
0.1062,2.1402
0.1860,2.1784
0.2746,2.1783
0.3543,2.1397
0.4094,2.0703
0.4276,2.0066
0.4418,1.8807
0.5014,1.7105
0.5974,1.5577
0.5974,1.5577
0.5974,1.5577
0.7249,1.4302
0.7249,1.4302
0.7249,1.4302
0.8777,1.3342
0.8777,1.3342
0.8777,1.3342
1.0479,1.2746
1.0479,1.2746
1.0479,1.2746
1.1822,1.2595
2.7722,1.2595
2.9065,1.2746
2.9065,1.2746
2.9065,1.2746
3.0767,1.3342
3.0767,1.3342
3.2295,1.4302
3.3570,1.5577
3.4530,1.7105
3.4530,1.7105
3.5121,1.8794
3.5126,1.8807
3.5277,2.0150
3.5277,2.0150
3.5277,2.7478
3.5474,2.8341
3.6026,2.9034
3.6824,2.9418
3.7710,2.9418
3.8508,2.9034
3.8674,2.8885
4.0298,2.7261
4.0298,2.7261
5.3013,1.4546
5.3013,1.4546
5.3257,1.4302
5.4642,1.2918
5.6425,1.1622
5.8389,1.0621
5.8389,1.0621
5.8924,1.0447
6.0486,0.9940
6.0486,0.9940
6.0486,0.9940
6.2663,0.9595
6.2663,0.9595
6.4868,0.9595
6.4950,0.9595
6.4950,0.9595
6.7271,0.9595
6.8032,0.9444
6.9566,0.8808
6.9566,0.8808
7.1939,0.8239
7.4372,0.8047
7.6805,0.8239
7.9178,0.8808
7.9178,0.8808
8.1433,0.9742
8.1433,0.9742
8.3514,1.1017
8.5370,1.2602
8.6955,1.4458
8.8230,1.6539
8.8230,1.6539
8.9164,1.8794
8.9164,1.8794
8.9733,2.1167
8.9925,2.3600
8.9733,2.6033
8.9164,2.8406
8.9164,2.8406
8.8230,3.0661
8.8230,3.0661
8.6955,3.2742
8.5370,3.4598
8.5148,3.4787
8.4619,3.5497
8.4452,3.6367
8.4678,3.7223
8.5148,3.7813
8.5370,3.8002
8.6955,3.9858
8.8230,4.1939
8.8230,4.1939
8.9164,4.4194
8.9164,4.4194
8.9733,4.6567
8.9925,4.9000
8.9733,5.1433
8.9164,5.3806
8.9164,5.3806
8.8230,5.6061
8.8230,5.6061
8.6955,5.8142
8.5370,5.9998
8.5148,6.0187
8.4619,6.0897
8.4452,6.1767
8.4678,6.2623
8.5148,6.3213
8.5370,6.3402
8.6425,6.4638
8.7135,6.5166
8.8005,6.5334
8.8861,6.5108
8.9535,6.4533
8.9548,6.4515
8.9589,6.4458
8.9589,6.4458
8.9589,6.4458
9.1174,6.2602
9.3030,6.1017
9.5111,5.9742
9.5111,5.9742
9.6645,5.9107
9.7290,5.8676
11.2784,4.3182
11.3255,4.2432
11.3367,4.1775
11.3367,3.7401
11.3216,3.6640
11.2580,3.5106
11.2013,3.2742
11.2011,3.2733
11.2011,3.2733
11.2011,3.2733
11.1819,3.0300
11.2011,2.7867
11.2104,2.7478
11.2451,2.6033
11.2580,2.5494
11.2580,2.5494
11.3514,2.3239
11.3514,2.3239
11.4789,2.1158
11.6374,1.9302
11.8230,1.7717
12.0311,1.6442
12.0311,1.6442
12.2566,1.5508
12.2566,1.5508
12.2566,1.5508
12.4939,1.4939
12.7372,1.4747
12.9805,1.4939
13.2178,1.5508
13.2178,1.5508
13.4433,1.6442
13.4433,1.6442
13.6514,1.7717
13.8370,1.9302
13.9955,2.1158
14.1230,2.3239
14.1230,2.3239
14.2164,2.5494
14.2164,2.5494
14.2733,2.7867
14.2925,3.0300
14.2733,3.2733
14.2164,3.5106
14.2164,3.5106
14.1528,3.6640
14.1377,3.7401
14.1377,4.7227
14.1377,4.7227
14.1377,4.9502
14.1129,5.1067
14.1071,5.1433
14.1032,5.1680
14.0584,5.3059
14.0351,5.3776
14.0351,5.3776
13.9350,5.5740
13.8054,5.7524
13.7072,5.8506
13.6426,5.9152
13.6426,5.9152
11.7096,7.8482
11.6665,7.9127
11.6030,8.0661
11.6030,8.0661
11.4755,8.2742
11.3170,8.4598
11.1314,8.6183
10.9233,8.7458
10.9233,8.7458
10.6978,8.8392
10.6978,8.8392
10.6978,8.8392
10.5537,8.8738
10.4605,8.8961
10.4605,8.8961
10.4605,8.8961
10.2172,8.9153
9.9739,8.8961
9.9739,8.8961
9.9739,8.8961
9.9076,8.8802
9.7366,8.8392
9.5111,8.7458
9.3030,8.6183
9.1174,8.4598
9.0119,8.3362
8.9409,8.2833
8.8539,8.2666
8.7683,8.2892
8.7009,8.3467
8.6996,8.3485
8.6955,8.3542
8.5370,8.5398
8.5148,8.5587
8.4619,8.6297
8.4452,8.7167
8.4678,8.8023
8.5148,8.8613
8.5370,8.8802
8.6955,9.0658
8.8230,9.2739
8.8230,9.2739
8.9164,9.4994
8.9164,9.4994
8.9733,9.7367
8.9925,9.9800
8.9733,10.2233
8.9164,10.4606
8.9164,10.4606
8.8230,10.6861
8.8230,10.6861
8.7430,10.8165
8.7147,10.9004
8.7256,10.9883
8.7736,11.0628
8.8491,11.1091
8.9127,11.1195
10.2047,11.1195
10.2910,11.0998
10.3454,11.0612
11.2448,10.1618
11.2879,10.0973
11.3365,9.9800
11.3514,9.9439
11.3771,9.9020
11.4537,9.7770
11.4789,9.7358
11.4789,9.7358
11.4789,9.7358
11.6374,9.5502
11.8230,9.3917
12.0311,9.2642
12.0311,9.2642
12.2566,9.1708
12.2566,9.1708
12.2673,9.1683
12.4939,9.1139
12.7372,9.0947
12.9805,9.1139
13.2178,9.1708
13.2178,9.1708
13.4433,9.2642
13.4433,9.2642
13.6514,9.3917
13.8370,9.5502
13.9955,9.7358
14.1230,9.9439
14.1230,9.9439
14.2164,10.1694
14.2164,10.1694
14.2733,10.4067
14.2925,10.6500
14.2733,10.8933
14.2164,11.1306
14.2164,11.1306
14.1230,11.3561
14.1230,11.3561
13.9955,11.5642
13.8370,11.7498
13.6514,11.9083
13.4433,12.0358
13.4433,12.0358
13.4433,12.0358
13.3466,12.0758
13.2899,12.0993
13.2254,12.1424
11.9354,13.4324
11.9354,13.4324
11.7796,13.5882
11.6012,13.7178
11.5314,13.7534
11.4634,13.8101
11.4268,13.8908
11.4288,13.9793
11.4690,14.0582
11.4704,14.0599
11.4755,14.0658
11.6030,14.2739
11.6030,14.2739
11.6964,14.4994
11.6964,14.4994
11.7533,14.7367
11.7725,14.9800
11.7533,15.2233
11.6964,15.4606
11.6964,15.4606
11.6030,15.6861
11.6030,15.6861
11.4755,15.8942
11.3170,16.0798
11.1314,16.2383
10.9233,16.3658
10.9233,16.3658
10.6978,16.4592
10.6978,16.4592
10.6978,16.4592
10.5537,16.4938
10.4605,16.5161
10.4605,16.5161
10.4605,16.5161
10.2172,16.5353
9.9739,16.5161
9.9739,16.5161
9.9739,16.5161
9.9315,16.5060
9.7366,16.4592
9.5832,16.3956
9.5071,16.3805
8.3059,16.3805
8.2196,16.4002
8.2020,16.4098
8.1433,16.4458
8.1433,16.4458
7.9178,16.5392
7.9178,16.5392
7.9178,16.5392
7.7737,16.5738
7.6805,16.5961
7.6805,16.5961
7.6805,16.5961
7.4805,16.6119
7.3960,16.6383
7.3554,16.6696
6.7560,17.2690
6.7089,17.3440
6.6977,17.4097
6.6977,18.4710
6.7174,18.5574
6.7726,18.6266
6.8524,18.6651
6.9410,18.6651
6.9544,18.6613
7.1939,18.6039
7.4372,18.5847
7.6805,18.6039
7.9178,18.6608
7.9178,18.6608
7.9987,18.6944
8.0749,18.7095
9.5871,18.7095
9.6632,18.6944
9.6904,18.6831
9.8166,18.6308
9.8166,18.6308
10.0539,18.5739
10.2972,18.5547
10.5405,18.5739
10.7778,18.6308
10.7778,18.6308
11.0033,18.7242
11.0033,18.7242
11.2114,18.8517
11.3970,19.0102
11.5555,19.1958
11.6830,19.4039
11.6830,19.4039
11.7764,19.6294
11.7764,19.6294
11.8333,19.8667
11.8525,20.1100
11.8333,20.3533
11.7764,20.5906
11.7764,20.5906
11.6830,20.8161
11.6830,20.8161
11.5555,21.0242
11.3970,21.2098
11.2114,21.3683
11.0033,21.4958
11.0033,21.4958
10.7778,21.5892
10.7778,21.5892
10.7778,21.5892
10.6337,21.6238
10.5405,21.6461
10.5405,21.6461
10.5405,21.6461
10.2972,21.6653
10.0539,21.6461
10.0539,21.6461
10.0539,21.6461
10.0115,21.6360
9.8166,21.5892
9.6632,21.5256
9.5871,21.5105
8.2198,21.5105
8.1436,21.5256
8.1433,21.5258
8.1433,21.5258
7.9178,21.6192
7.7737,21.6538
7.6805,21.6761
7.6805,21.6761
7.6805,21.6761
7.4372,21.6953
7.1939,21.6761
7.1939,21.6761
7.1939,21.6761
6.9490,21.6173
6.9486,21.6188
6.8700,21.6118
6.7871,21.6429
6.7259,21.7069
6.6985,21.7911
6.6977,21.8090
6.6977,22.2745
6.6681,22.4611
6.6681,22.4611
6.6126,22.6321
6.6097,22.6408
6.5307,22.7960
6.5090,22.8819
6.5268,22.9687
6.5804,23.0391
6.6594,23.0793
6.7391,23.0829
6.8870,23.0595
6.8870,23.0595
7.1074,23.0595
7.1156,23.0595
7.1157,23.0595
7.4374,23.0595
7.6551,23.0940
7.6552,23.0940
7.8648,23.1621
7.8648,23.1621
8.0612,23.2622
8.0612,23.2622
8.2355,23.3888
8.3170,23.4236
8.4055,23.4197
8.4584,23.3963
8.4777,23.3842
8.4777,23.3842
8.4777,23.3842
8.4777,23.3842
8.6479,23.3246
8.6479,23.3246
8.6479,23.3246
8.7822,23.3095
8.7822,23.3095
8.8517,23.3095
8.9131,23.2998
8.9461,23.2891
8.9461,23.2891
9.1327,23.2595
10.4275,23.2595
10.5139,23.2398
10.5682,23.2012
18.1806,15.5889
18.2277,15.5139
18.2376,15.4259
18.2084,15.3423
18.1661,15.2943
18.1589,15.2884
18.1516,15.2795
18.0327,15.1347
17.9390,14.9593
17.8813,14.7691
17.8667,14.6208
17.8667,13.6592
17.8813,13.5109
17.9390,13.3207
18.0327,13.1453
18.1588,12.9916
18.1589,12.9916
18.1651,12.9841
18.1631,12.9825
18.2019,12.9207
18.2118,12.8327
18.1826,12.7491
18.1514,12.6995
18.0918,12.5293
18.0767,12.3950
18.0767,10.8050
18.0918,10.6707
18.1514,10.5005
18.2474,10.3477
18.2474,10.3477
18.2474,10.3477
18.3749,10.2202
18.3749,10.2202
18.3749,10.2202
18.5277,10.1242
18.5277,10.1242
18.5277,10.1242
18.6979,10.0646
18.6979,10.0646
18.6979,10.0646
18.8322,10.0495
20.4222,10.0495
20.5565,10.0646
20.5565,10.0646
20.5565,10.0646
20.7267,10.1242
20.7267,10.1242
20.8795,10.2202
20.9370,10.2777
21.0120,10.3248
21.1000,10.3347
21.1836,10.3055
21.2462,10.2429
21.2754,10.1593
21.2767,10.1370
21.2767,3.0955
21.3063,2.9089
21.3063,2.9089
21.3647,2.7292
21.4504,2.5608
21.5615,2.4079
21.6951,2.2743
22.0551,1.9143
22.0738,1.9007
22.1013,1.8807
22.2080,1.8032
22.2140,1.8002
22.3764,1.7175
22.3764,1.7175
22.5561,1.6591
22.5561,1.6591
22.7427,1.6295
23.5632,1.6295
23.6495,1.6098
23.7039,1.5712
23.8249,1.4502
23.8249,1.4502
23.8249,1.4502
23.9777,1.3542
23.9777,1.3542
23.9777,1.3542
24.1479,1.2946
24.1479,1.2946
24.1479,1.2946
24.2822,1.2795
25.8722,1.2795
26.0065,1.2946
26.0065,1.2946
26.0065,1.2946
26.1767,1.3542
26.1767,1.3542
26.3295,1.4502
26.4570,1.5777
26.5125,1.6661
26.5751,1.7287
26.6587,1.7579
26.7467,1.7480
26.8217,1.7009
26.8688,1.6259
26.8800,1.5598
26.8776,0.4086
26.8577,0.3223
26.8024,0.2532
26.7225,0.2149
26.6786,0.2100
0.2266,0.2100
Z" /> 
<path style="fill:#000000; fill-opacity:1.0000; stroke:none;fill-rule:evenodd;"
d="M 0.1811,20.7928
0.1125,20.8488
0.0750,20.9290
0.0705,20.9715
0.0742,22.7340
0.0941,22.8203
0.1494,22.8894
0.2293,22.9277
0.3179,22.9275
0.3976,22.8889
0.4526,22.8195
0.4667,22.7800
0.4980,22.6494
0.5016,22.6408
0.5914,22.4239
0.5914,22.4239
0.7189,22.2158
0.8774,22.0302
0.8804,22.0277
0.8996,22.0113
0.9524,21.9403
0.9692,21.8533
0.9466,21.7677
0.8996,21.7087
0.8774,21.6898
0.7189,21.5042
0.5914,21.2961
0.4980,21.0706
0.4630,20.9247
0.4237,20.8453
0.3538,20.7909
0.2673,20.7721
Z" /> 
<path style="fill:#000000; fill-opacity:1.0000; stroke:none;fill-rule:evenodd;"
d="M 26.6773,21.0169
26.5976,21.0555
26.5425,21.1248
26.5381,21.1346
26.4630,21.3161
26.4630,21.3161
26.3355,21.5242
26.1770,21.7098
26.1548,21.7287
26.1019,21.7997
26.0852,21.8867
26.1078,21.9723
26.1548,22.0313
26.1770,22.0502
26.3355,22.2358
26.4630,22.4439
26.4630,22.4439
26.5409,22.6321
26.5922,22.7044
26.6697,22.7472
26.7581,22.7522
26.8399,22.7183
26.8990,22.6522
26.9235,22.5671
26.9238,22.5556
26.9210,21.2104
26.9011,21.1241
26.8457,21.0549
26.7659,21.0167
Z" /> 
<path style="fill:#000000; fill-opacity:1.0000; stroke:none;fill-rule:evenodd;"
d="M 0.1758,18.2306
0.1072,18.2866
0.0697,18.3668
0.0651,18.4093
0.0689,20.2158
0.0888,20.3021
0.1442,20.3713
0.2240,20.4095
0.3126,20.4094
0.3923,20.3708
0.4474,20.3014
0.4614,20.2619
0.4980,20.1094
0.4980,20.1094
0.4980,20.1094
0.5914,19.8839
0.5914,19.8839
0.7189,19.6758
0.8774,19.4902
0.8774,19.4902
0.8996,19.4713
0.9524,19.4003
0.9692,19.3133
0.9466,19.2277
0.8996,19.1687
0.8774,19.1498
0.7189,18.9642
0.5914,18.7561
0.4980,18.5306
0.4689,18.4093
0.4576,18.3624
0.4183,18.2831
0.3485,18.2286
0.2619,18.2099
Z" /> 
<path style="fill:#000000; fill-opacity:1.0000; stroke:none;fill-rule:evenodd;"
d="M 26.6720,18.4896
26.5923,18.5282
26.5372,18.5975
26.5329,18.6074
26.4630,18.7761
26.4630,18.7761
26.3355,18.9842
26.1770,19.1698
26.1548,19.1887
26.1019,19.2597
26.0852,19.3467
26.1078,19.4323
26.1548,19.4913
26.1770,19.5102
26.3355,19.6958
26.4630,19.9039
26.4630,19.9039
26.5356,20.0793
26.5869,20.1515
26.6644,20.1944
26.7528,20.1993
26.8346,20.1654
26.8936,20.0994
26.9182,20.0143
26.9185,20.0027
26.9157,18.6831
26.8958,18.5968
26.8405,18.5277
26.7606,18.4894
Z" /> 
<path style="fill:#000000; fill-opacity:1.0000; stroke:none;fill-rule:evenodd;"
d="M 0.1705,15.6683
0.1018,15.7243
0.0643,15.8045
0.0598,15.8470
0.0637,17.6977
0.0836,17.7840
0.1389,17.8531
0.2188,17.8914
0.3074,17.8912
0.3871,17.8526
0.4421,17.7833
0.4562,17.7438
0.4980,17.5694
0.5427,17.4614
0.5914,17.3439
0.5914,17.3439
0.7189,17.1358
0.8774,16.9502
0.8774,16.9502
0.8996,16.9313
0.9524,16.8603
0.9692,16.7733
0.9466,16.6877
0.8996,16.6287
0.8774,16.6098
0.7189,16.4242
0.5914,16.2161
0.4980,15.9906
0.4523,15.8002
0.4130,15.7208
0.3431,15.6664
0.2566,15.6476
Z" /> 
<path style="fill:#000000; fill-opacity:1.0000; stroke:none;fill-rule:evenodd;"
d="M 26.6668,15.9623
26.5870,16.0009
26.5320,16.0703
26.5276,16.0801
26.4630,16.2361
26.4630,16.2361
26.3355,16.4442
26.1770,16.6298
26.1548,16.6487
26.1019,16.7197
26.0852,16.8067
26.1078,16.8923
26.1548,16.9513
26.1770,16.9702
26.3355,17.1558
26.4630,17.3639
26.4630,17.3639
26.5303,17.5264
26.5815,17.5987
26.6591,17.6415
26.7475,17.6465
26.8293,17.6126
26.8883,17.5465
26.9128,17.4614
26.9131,17.4499
26.9104,16.1558
26.8906,16.0695
26.8352,16.0004
26.7553,15.9621
Z" /> 
<path style="fill:#000000; fill-opacity:1.0000; stroke:none;fill-rule:evenodd;"
d="M 0.1651,13.1061
0.0965,13.1621
0.0590,13.2423
0.0545,13.2848
0.0584,15.1796
0.0783,15.2659
0.1337,15.3350
0.2135,15.3733
0.3021,15.3731
0.3818,15.3345
0.4369,15.2651
0.4509,15.2256
0.4980,15.0294
0.4980,15.0294
0.5211,14.9736
0.5914,14.8039
0.5914,14.8039
0.7066,14.6160
0.7189,14.5958
0.7189,14.5958
0.7189,14.5958
0.8774,14.4102
0.8774,14.4102
0.8996,14.3913
0.9524,14.3203
0.9692,14.2333
0.9466,14.1477
0.8996,14.0887
0.8774,14.0698
0.7189,13.8842
0.5914,13.6761
0.4980,13.4506
0.4470,13.2379
0.4076,13.1586
0.3378,13.1041
0.2512,13.0854
Z" /> 
<path style="fill:#000000; fill-opacity:1.0000; stroke:none;fill-rule:evenodd;"
d="M 26.6615,13.4350
26.5818,13.4736
26.5267,13.5430
26.5223,13.5528
26.5076,13.5882
26.4630,13.6961
26.4630,13.6961
26.3355,13.9042
26.1770,14.0898
26.1548,14.1087
26.1019,14.1797
26.0852,14.2667
26.1078,14.3523
26.1548,14.4113
26.1770,14.4302
26.3355,14.6158
26.4630,14.8239
26.4630,14.8239
26.5250,14.9736
26.5762,15.0458
26.6537,15.0886
26.7422,15.0936
26.8240,15.0597
26.8830,14.9937
26.9075,14.9086
26.9078,14.8970
26.9052,13.6285
26.8853,13.5422
26.8299,13.4731
26.7501,13.4349
Z" /> 
<path style="fill:#000000; fill-opacity:1.0000; stroke:none;fill-rule:evenodd;"
d="M 0.1598,10.5438
0.0912,10.5998
0.0536,10.6800
0.0491,10.7225
0.0532,12.6615
0.0731,12.7478
0.1284,12.8169
0.2083,12.8551
0.2968,12.8550
0.3766,12.8164
0.4316,12.7470
0.4457,12.7075
0.4980,12.4894
0.5279,12.4173
0.5914,12.2639
0.5914,12.2639
0.7189,12.0558
0.8774,11.8702
0.8774,11.8702
0.8996,11.8513
0.9524,11.7803
0.9692,11.6933
0.9466,11.6077
0.8996,11.5487
0.8774,11.5298
0.7189,11.3442
0.5914,11.1361
0.5759,11.0987
0.4980,10.9106
0.4980,10.9106
0.4980,10.9106
0.4416,10.6757
0.4023,10.5963
0.3324,10.5419
0.2459,10.5231
Z" /> 
<path style="fill:#000000; fill-opacity:1.0000; stroke:none;fill-rule:evenodd;"
d="M 26.6562,10.9078
26.5765,10.9464
26.5214,11.0157
26.5171,11.0255
26.4630,11.1561
26.4630,11.1561
26.3355,11.3642
26.1770,11.5498
26.1548,11.5687
26.1019,11.6397
26.0852,11.7267
26.1078,11.8123
26.1548,11.8713
26.1770,11.8902
26.3355,12.0758
26.4630,12.2839
26.4630,12.2839
26.5196,12.4207
26.5709,12.4930
26.6484,12.5358
26.7368,12.5408
26.8187,12.5069
26.8777,12.4408
26.9022,12.3557
26.9025,12.3442
26.9025,12.3423
26.8999,11.1013
26.8800,11.0150
26.8247,10.9458
26.7448,10.9076
Z" /> 
<path style="fill:#000000; fill-opacity:1.0000; stroke:none;fill-rule:evenodd;"
d="M 0.1834,7.9601
0.1069,8.0047
0.0572,8.0780
0.0438,8.1505
0.0479,10.1433
0.0678,10.2296
0.1232,10.2988
0.2030,10.3370
0.2916,10.3368
0.3713,10.2982
0.4264,10.2289
0.4404,10.1894
0.4932,9.9694
0.4980,9.9494
0.5003,9.9439
0.5914,9.7239
0.5914,9.7239
0.7189,9.5158
0.8774,9.3302
0.8774,9.3302
0.8996,9.3113
0.9524,9.2403
0.9692,9.1533
0.9466,9.0677
0.8996,9.0087
0.8774,8.9898
0.7189,8.8042
0.5914,8.5961
0.5681,8.5398
0.5021,8.3805
0.4980,8.3706
0.4411,8.1333
0.4411,8.1333
0.4398,8.1256
0.4384,8.1258
0.4147,8.0499
0.3543,7.9852
0.2717,7.9532
Z" /> 
<path style="fill:#000000; fill-opacity:1.0000; stroke:none;fill-rule:evenodd;"
d="M 26.6510,8.3805
26.5712,8.4191
26.5162,8.4884
26.5118,8.4982
26.4630,8.6161
26.4630,8.6161
26.3355,8.8242
26.1770,9.0098
26.1548,9.0287
26.1019,9.0997
26.0852,9.1867
26.1078,9.2723
26.1548,9.3313
26.1770,9.3502
26.3355,9.5358
26.4630,9.7439
26.4630,9.7439
26.5143,9.8679
26.5656,9.9401
26.6431,9.9829
26.7315,9.9879
26.8133,9.9540
26.8723,9.8880
26.8969,9.8029
26.8972,9.7913
26.8966,9.5358
26.8946,8.5740
26.8748,8.4877
26.8194,8.4186
26.7395,8.3803
Z" /> 
<path style="fill:#000000; fill-opacity:1.0000; stroke:none;fill-rule:evenodd;"
d="M 0.1677,3.4790
0.0927,3.5261
0.0456,3.6011
0.0344,3.6672
0.0375,5.1693
0.0574,5.2557
0.1128,5.3248
0.1732,5.3537
0.1014,5.3955
0.0518,5.4689
0.0383,5.5413
0.0427,7.6438
0.0626,7.7301
0.1179,7.7992
0.1978,7.8375
0.2864,7.8373
0.3661,7.7987
0.4212,7.7293
0.4401,7.6590
0.4411,7.6467
0.4980,7.4094
0.4980,7.4094
0.5914,7.1839
0.5914,7.1839
0.7189,6.9758
0.8774,6.7902
0.8774,6.7902
0.8996,6.7713
0.9524,6.7003
0.9692,6.6133
0.9466,6.5277
0.8996,6.4687
0.8774,6.4498
0.7189,6.2642
0.5914,6.0561
0.5681,5.9998
0.4980,5.8306
0.4980,5.8306
0.4980,5.8306
0.4411,5.5933
0.4357,5.5253
0.4093,5.4408
0.3488,5.3761
0.2961,5.3556
0.3609,5.3243
0.4160,5.2549
0.4349,5.1845
0.4411,5.1067
0.4980,4.8694
0.4980,4.8694
0.5914,4.6439
0.5914,4.6439
0.7189,4.4358
0.7235,4.4295
0.7217,4.4281
0.7567,4.3613
0.7596,4.2728
0.7239,4.1918
0.7050,4.1698
0.5974,4.0623
0.5014,3.9095
0.4418,3.7393
0.4312,3.6445
0.4019,3.5609
0.3393,3.4983
0.2557,3.4690
Z" /> 
<path style="fill:#000000; fill-opacity:1.0000; stroke:none;fill-rule:evenodd;"
d="M 26.6457,5.8532
26.5660,5.8918
26.5109,5.9612
26.5065,5.9710
26.4630,6.0761
26.4630,6.0761
26.3355,6.2842
26.1770,6.4698
26.1548,6.4887
26.1019,6.5597
26.0852,6.6467
26.1078,6.7323
26.1548,6.7913
26.1770,6.8102
26.3355,6.9958
26.4630,7.2039
26.4630,7.2039
26.5090,7.3150
26.5603,7.3873
26.6378,7.4301
26.7262,7.4351
26.8080,7.4012
26.8670,7.3351
26.8915,7.2500
26.8919,7.2385
26.8903,6.4887
26.8894,6.0467
26.8695,5.9604
26.8141,5.8913
26.7342,5.8530
Z" /> 
<path style="fill:#000000; fill-opacity:1.0000; stroke:none;fill-rule:evenodd;"
d="M 26.6416,3.8975
26.5619,3.9361
26.5178,3.9855
26.4570,4.0823
26.3494,4.1898
26.3023,4.2648
26.2924,4.3528
26.3217,4.4364
26.3311,4.4493
26.3309,4.4495
26.3355,4.4558
26.4630,4.6639
26.4630,4.6639
26.5037,4.7622
26.5549,4.8344
26.6324,4.8772
26.7209,4.8822
26.8027,4.8483
26.8617,4.7823
26.8862,4.6972
26.8865,4.6856
26.8860,4.4495
26.8853,4.0910
26.8654,4.0047
26.8100,3.9356
26.7302,3.8973
Z" /> 
</g>
<g style="fill:#FFFFFF; fill-opacity:1.0000; stroke:none;">
<circle cx="13.7172" cy="43.5700" r="0.6000" /> 
</g>
<g style="fill:#FFFFFF; fill-opacity:1.0000; stroke:none;">
<circle cx="7.1072" cy="46.7800" r="0.6000" /> 
</g>
<g style="fill:#FFFFFF; fill-opacity:1.0000; stroke:none;">
<circle cx="10.2972" cy="20.1100" r="0.6000" /> 
</g>
<g style="fill:#FFFFFF; fill-opacity:1.0000; stroke:none;">
<circle cx="19.6272" cy="11.6000" r="0.6000" /> 
</g>
<g style="fill:#FFFFFF; fill-opacity:1.0000; stroke:none;">
<circle cx="17.0872" cy="11.6000" r="0.6000" /> 
</g>
<g style="fill:#FFFFFF; fill-opacity:1.0000; stroke:none;">
<circle cx="7.4372" cy="20.1400" r="0.6000" /> 
</g>
<g style="fill:#FFFFFF; fill-opacity:1.0000; stroke:none;">
<circle cx="7.4372" cy="17.6000" r="0.6000" /> 
</g>
<g style="fill:#FFFFFF; fill-opacity:1.0000; stroke:none;">
<circle cx="7.4372" cy="15.0600" r="0.6000" /> 
</g>
<g style="fill:#FFFFFF; fill-opacity:1.0000; stroke:none;">
<circle cx="7.4372" cy="12.5200" r="0.6000" /> 
</g>
<g style="fill:#FFFFFF; fill-opacity:1.0000; stroke:none;">
<circle cx="7.4372" cy="9.9800" r="0.6000" /> 
</g>
<g style="fill:#FFFFFF; fill-opacity:1.0000; stroke:none;">
<circle cx="7.4372" cy="7.4400" r="0.6000" /> 
</g>
<g style="fill:#FFFFFF; fill-opacity:1.0000; stroke:none;">
<circle cx="7.4372" cy="4.9000" r="0.6000" /> 
</g>
<g style="fill:#FFFFFF; fill-opacity:1.0000; stroke:none;">
<circle cx="7.4372" cy="2.3600" r="0.6000" /> 
</g>
<g style="fill:#FFFFFF; fill-opacity:1.0000; stroke:none;">
<circle cx="6.3272" cy="33.9800" r="0.6000" /> 
</g>
<g style="fill:#FFFFFF; fill-opacity:1.0000; stroke:none;">
<circle cx="6.3272" cy="26.3600" r="0.6000" /> 
</g>
<g style="fill:#FFFFFF; fill-opacity:1.0000; stroke:none;">
<circle cx="18.5672" cy="33.6100" r="0.6000" /> 
</g>
<g style="fill:#FFFFFF; fill-opacity:1.0000; stroke:none;">
<circle cx="18.5672" cy="41.2300" r="0.6000" /> 
</g>
<g style="fill:#FFFFFF; fill-opacity:1.0000; stroke:none;">
<circle cx="8.1572" cy="41.6400" r="0.6000" /> 
</g>
<g style="fill:#FFFFFF; fill-opacity:1.0000; stroke:none;">
<circle cx="15.7772" cy="41.6400" r="0.6000" /> 
</g>
<g style="fill:#FFFFFF; fill-opacity:1.0000; stroke:none;">
<circle cx="22.3372" cy="16.5000" r="0.6000" /> 
</g>
<g style="fill:#FFFFFF; fill-opacity:1.0000; stroke:none;">
<circle cx="14.7172" cy="16.5000" r="0.6000" /> 
</g>
<g style="fill:#FFFFFF; fill-opacity:1.0000; stroke:none;">
<circle cx="12.7372" cy="3.0300" r="0.6000" /> 
</g>
<g style="fill:#FFFFFF; fill-opacity:1.0000; stroke:none;">
<circle cx="12.7372" cy="10.6500" r="0.6000" /> 
</g>
<g style="fill:#FFFFFF; fill-opacity:1.0000; stroke:none;">
<circle cx="25.0772" cy="2.8300" r="0.6000" /> 
</g>
<g style="fill:#FFFFFF; fill-opacity:1.0000; stroke:none;">
<circle cx="25.0772" cy="5.3700" r="0.6000" /> 
</g>
<g style="fill:#FFFFFF; fill-opacity:1.0000; stroke:none;">
<circle cx="25.0772" cy="7.9100" r="0.6000" /> 
</g>
<g style="fill:#FFFFFF; fill-opacity:1.0000; stroke:none;">
<circle cx="25.0772" cy="10.4500" r="0.6000" /> 
</g>
<g style="fill:#FFFFFF; fill-opacity:1.0000; stroke:none;">
<circle cx="25.0772" cy="12.9900" r="0.6000" /> 
</g>
<g style="fill:#FFFFFF; fill-opacity:1.0000; stroke:none;">
<circle cx="25.0772" cy="15.5300" r="0.6000" /> 
</g>
<g style="fill:#FFFFFF; fill-opacity:1.0000; stroke:none;">
<circle cx="25.0772" cy="18.0700" r="0.6000" /> 
</g>
<g style="fill:#FFFFFF; fill-opacity:1.0000; stroke:none;">
<circle cx="25.0772" cy="20.6100" r="0.6000" /> 
</g>
<g style="fill:#FFFFFF; fill-opacity:1.0000; stroke:none;">
<circle cx="25.0772" cy="23.1500" r="0.6000" /> 
</g>
<g style="fill:#FFFFFF; fill-opacity:1.0000; stroke:none;">
<circle cx="25.0772" cy="25.6900" r="0.6000" /> 
</g>
<g style="fill:#FFFFFF; fill-opacity:1.0000; stroke:none;">
<circle cx="25.0772" cy="28.2300" r="0.6000" /> 
</g>
<g style="fill:#FFFFFF; fill-opacity:1.0000; stroke:none;">
<circle cx="25.0772" cy="30.7700" r="0.6000" /> 
</g>
<g style="fill:#FFFFFF; fill-opacity:1.0000; stroke:none;">
<circle cx="25.0772" cy="33.3100" r="0.6000" /> 
</g>
<g style="fill:#FFFFFF; fill-opacity:1.0000; stroke:none;">
<circle cx="25.0772" cy="35.8500" r="0.6000" /> 
</g>
<g style="fill:#FFFFFF; fill-opacity:1.0000; stroke:none;">
<circle cx="25.0772" cy="38.3900" r="0.6000" /> 
</g>
<g style="fill:#FFFFFF; fill-opacity:1.0000; stroke:none;">
<circle cx="25.0772" cy="40.9300" r="0.6000" /> 
</g>
<g style="fill:#FFFFFF; fill-opacity:1.0000; stroke:none;">
<circle cx="25.0772" cy="43.4700" r="0.6000" /> 
</g>
<g style="fill:#FFFFFF; fill-opacity:1.0000; stroke:none;">
<circle cx="25.0772" cy="46.0100" r="0.6000" /> 
</g>
<g style="fill:#FFFFFF; fill-opacity:1.0000; stroke:none;">
<circle cx="10.2172" cy="7.3600" r="0.6000" /> 
</g>
<g style="fill:#FFFFFF; fill-opacity:1.0000; stroke:none;">
<circle cx="10.2172" cy="14.9800" r="0.6000" /> 
</g>
<g style="fill:#FFFFFF; fill-opacity:1.0000; stroke:none;">
<circle cx="13.3472" cy="38.4700" r="0.6000" /> 
</g>
<g style="fill:#FFFFFF; fill-opacity:1.0000; stroke:none;">
<circle cx="13.3472" cy="30.8500" r="0.6000" /> 
</g>
<g style="fill:#FFFFFF; fill-opacity:1.0000; stroke:none;">
<circle cx="19.4213" cy="19.0959" r="0.6000" /> 
</g>
<g style="fill:#FFFFFF; fill-opacity:1.0000; stroke:none;">
<circle cx="14.0331" cy="24.4841" r="0.6000" /> 
</g>
<g style="fill:#FFFFFF; fill-opacity:1.0000; stroke:none;">
<circle cx="21.8413" cy="21.8059" r="0.6000" /> 
</g>
<g style="fill:#FFFFFF; fill-opacity:1.0000; stroke:none;">
<circle cx="16.4531" cy="27.1941" r="0.6000" /> 
</g>
<g style="fill:#FFFFFF; fill-opacity:1.0000; stroke:none;">
<circle cx="1.9772" cy="2.8100" r="0.6000" /> 
</g>
<g style="fill:#FFFFFF; fill-opacity:1.0000; stroke:none;">
<circle cx="1.9772" cy="5.3500" r="0.6000" /> 
</g>
<g style="fill:#FFFFFF; fill-opacity:1.0000; stroke:none;">
<circle cx="1.9772" cy="7.8900" r="0.6000" /> 
</g>
<g style="fill:#FFFFFF; fill-opacity:1.0000; stroke:none;">
<circle cx="1.9772" cy="10.4300" r="0.6000" /> 
</g>
<g style="fill:#FFFFFF; fill-opacity:1.0000; stroke:none;">
<circle cx="1.9772" cy="12.9700" r="0.6000" /> 
</g>
<g style="fill:#FFFFFF; fill-opacity:1.0000; stroke:none;">
<circle cx="1.9772" cy="15.5100" r="0.6000" /> 
</g>
<g style="fill:#FFFFFF; fill-opacity:1.0000; stroke:none;">
<circle cx="1.9772" cy="18.0500" r="0.6000" /> 
</g>
<g style="fill:#FFFFFF; fill-opacity:1.0000; stroke:none;">
<circle cx="1.9772" cy="20.5900" r="0.6000" /> 
</g>
<g style="fill:#FFFFFF; fill-opacity:1.0000; stroke:none;">
<circle cx="1.9772" cy="23.1300" r="0.6000" /> 
</g>
<g style="fill:#FFFFFF; fill-opacity:1.0000; stroke:none;">
<circle cx="1.9772" cy="25.6700" r="0.6000" /> 
</g>
<g style="fill:#FFFFFF; fill-opacity:1.0000; stroke:none;">
<circle cx="1.9772" cy="28.2100" r="0.6000" /> 
</g>
<g style="fill:#FFFFFF; fill-opacity:1.0000; stroke:none;">
<circle cx="1.9772" cy="30.7500" r="0.6000" /> 
</g>
<g style="fill:#FFFFFF; fill-opacity:1.0000; stroke:none;">
<circle cx="1.9772" cy="33.2900" r="0.6000" /> 
</g>
<g style="fill:#FFFFFF; fill-opacity:1.0000; stroke:none;">
<circle cx="1.9772" cy="35.8300" r="0.6000" /> 
</g>
<g style="fill:#FFFFFF; fill-opacity:1.0000; stroke:none;">
<circle cx="1.9772" cy="38.3700" r="0.6000" /> 
</g>
<g style="fill:#FFFFFF; fill-opacity:1.0000; stroke:none;">
<circle cx="1.9772" cy="40.9100" r="0.6000" /> 
</g>
<g style="fill:#FFFFFF; fill-opacity:1.0000; stroke:none;">
<circle cx="1.9772" cy="43.4500" r="0.6000" /> 
</g>
<g style="fill:#FFFFFF; fill-opacity:1.0000; stroke:none;">
<circle cx="1.9772" cy="45.9900" r="0.6000" /> 
</g>
<g style="fill:#FFFFFF; fill-opacity:1.0000; stroke:none;">
<circle cx="9.8372" cy="35.6300" r="0.6000" /> 
</g>
<g style="fill:#FFFFFF; fill-opacity:1.0000; stroke:none;">
<circle cx="9.8372" cy="28.0100" r="0.6000" /> 
</g> 
</svg>
