<?xml version="1.0" standalone="no"?>
 <!DOCTYPE svg PUBLIC "-//W3C//DTD SVG 1.1//EN" 
 "http://www.w3.org/Graphics/SVG/1.1/DTD/svg11.dtd"> 
<svg
  xmlns:svg="http://www.w3.org/2000/svg"
  xmlns="http://www.w3.org/2000/svg"
  xmlns:xlink="http://www.w3.org/1999/xlink"
  version="1.1"
  width="27.1272mm" height="48.3362mm" viewBox="0.0000 0.0000 27.1272 48.3362">
<title>SVG Image created as ds-F_Cu.svg date 2024/06/09 00:21:05 </title>
  <desc>Image generated by PCBNEW </desc>
<g style="fill:#000000; fill-opacity:1.0000;stroke:#000000; stroke-opacity:1.0000;
stroke-linecap:round; stroke-linejoin:round;"
 transform="translate(0 0) scale(1 1)">
<path style="fill:none; 
stroke:#000000; stroke-width:0.4000; stroke-opacity:1; 
stroke-linecap:round; stroke-linejoin:round;fill:none"
d="M 0.2000,0.2000
26.9500,0.2000
26.9500,48.1400
0.2000,48.1400
Z" /> 
<path style="fill:#000000; fill-opacity:1.0000; stroke:none;fill-rule:evenodd;"
d="M 6.7500,10.8500
8.2500,10.8500
8.2500,12.3500
6.7500,12.3500
Z" /> 
</g>
<g style="fill:#000000; fill-opacity:1.0000; stroke:none;">
<circle cx="10.0400" cy="11.6000" r="0.7500" /> 
<circle cx="19.6900" cy="20.1400" r="0.7500" /> 
</g>
<g style="fill:#000000; fill-opacity:1.0000; stroke:none;">
<circle cx="19.6900" cy="17.6000" r="0.7500" /> 
</g>
<g style="fill:#000000; fill-opacity:1.0000; stroke:none;">
<circle cx="19.6900" cy="15.0600" r="0.7500" /> 
</g>
<g style="fill:#000000; fill-opacity:1.0000; stroke:none;">
<circle cx="19.6900" cy="12.5200" r="0.7500" /> 
</g>
<g style="fill:#000000; fill-opacity:1.0000; stroke:none;">
<circle cx="19.6900" cy="9.9800" r="0.7500" /> 
</g>
<g style="fill:#000000; fill-opacity:1.0000; stroke:none;">
<circle cx="19.6900" cy="7.4400" r="0.7500" /> 
</g>
<g style="fill:#000000; fill-opacity:1.0000; stroke:none;">
<circle cx="19.6900" cy="4.9000" r="0.7500" /> 
</g>
<g style="fill:#000000; fill-opacity:1.0000; stroke:none;">
<circle cx="19.6900" cy="2.3600" r="0.7500" /> 
<path style="fill:#000000; fill-opacity:1.0000; stroke:none;fill-rule:evenodd;"
d="M 21.5500,34.7300
20.0500,34.7300
20.0500,33.2300
21.5500,33.2300
Z" /> 
</g>
<g style="fill:#000000; fill-opacity:1.0000; stroke:none;">
<circle cx="20.8000" cy="26.3600" r="0.7500" /> 
<circle cx="8.5600" cy="33.6100" r="0.7500" /> 
</g>
<g style="fill:#000000; fill-opacity:1.0000; stroke:none;">
<circle cx="8.5600" cy="41.2300" r="0.7500" /> 
<path style="fill:#000000; fill-opacity:1.0000; stroke:none;fill-rule:evenodd;"
d="M 19.7200,40.8900
19.7200,42.3900
18.2200,42.3900
18.2200,40.8900
Z" /> 
<circle cx="11.3500" cy="41.6400" r="0.7500" /> 
<circle cx="4.7900" cy="16.5000" r="0.7500" /> 
</g>
<g style="fill:#000000; fill-opacity:1.0000; stroke:none;">
<circle cx="12.4100" cy="16.5000" r="0.7500" /> 
<circle cx="14.3900" cy="3.0300" r="0.7500" /> 
</g>
<g style="fill:#000000; fill-opacity:1.0000; stroke:none;">
<circle cx="14.3900" cy="10.6500" r="0.7500" /> 
<path style="fill:#000000; fill-opacity:1.0000; stroke:none;fill-rule:evenodd;"
d="M 1.3000,3.5800
1.3000,2.0800
2.8000,2.0800
2.8000,3.5800
Z" /> 
<circle cx="2.0500" cy="5.3700" r="0.7500" /> 
<circle cx="2.0500" cy="7.9100" r="0.7500" /> 
<circle cx="2.0500" cy="10.4500" r="0.7500" /> 
<circle cx="2.0500" cy="12.9900" r="0.7500" /> 
<circle cx="2.0500" cy="15.5300" r="0.7500" /> 
<circle cx="2.0500" cy="18.0700" r="0.7500" /> 
<circle cx="2.0500" cy="20.6100" r="0.7500" /> 
<circle cx="2.0500" cy="23.1500" r="0.7500" /> 
<circle cx="2.0500" cy="25.6900" r="0.7500" /> 
<circle cx="2.0500" cy="28.2300" r="0.7500" /> 
<circle cx="2.0500" cy="30.7700" r="0.7500" /> 
<circle cx="2.0500" cy="33.3100" r="0.7500" /> 
<circle cx="2.0500" cy="35.8500" r="0.7500" /> 
<circle cx="2.0500" cy="38.3900" r="0.7500" /> 
<circle cx="2.0500" cy="40.9300" r="0.7500" /> 
<circle cx="2.0500" cy="43.4700" r="0.7500" /> 
<circle cx="2.0500" cy="46.0100" r="0.7500" /> 
<circle cx="16.9100" cy="7.3600" r="0.7500" /> 
</g>
<g style="fill:#000000; fill-opacity:1.0000; stroke:none;">
<circle cx="16.9100" cy="14.9800" r="0.7500" /> 
<path style="fill:#000000; fill-opacity:1.0000; stroke:none;fill-rule:evenodd;"
d="M 14.5300,39.2200
13.0300,39.2200
13.0300,37.7200
14.5300,37.7200
Z" /> 
<circle cx="13.7800" cy="30.8500" r="0.7500" /> 
<circle cx="7.7059" cy="19.0959" r="0.7500" /> 
</g>
<g style="fill:#000000; fill-opacity:1.0000; stroke:none;">
<circle cx="13.0941" cy="24.4841" r="0.7500" /> 
<circle cx="5.2859" cy="21.8059" r="0.7500" /> 
</g>
<g style="fill:#000000; fill-opacity:1.0000; stroke:none;">
<circle cx="10.6741" cy="27.1941" r="0.7500" /> 
<path style="fill:#000000; fill-opacity:1.0000; stroke:none;fill-rule:evenodd;"
d="M 24.4000,3.5600
24.4000,2.0600
25.9000,2.0600
25.9000,3.5600
Z" /> 
<circle cx="25.1500" cy="5.3500" r="0.7500" /> 
<circle cx="25.1500" cy="7.8900" r="0.7500" /> 
<circle cx="25.1500" cy="10.4300" r="0.7500" /> 
<circle cx="25.1500" cy="12.9700" r="0.7500" /> 
<circle cx="25.1500" cy="15.5100" r="0.7500" /> 
<circle cx="25.1500" cy="18.0500" r="0.7500" /> 
<circle cx="25.1500" cy="20.5900" r="0.7500" /> 
<circle cx="25.1500" cy="23.1300" r="0.7500" /> 
<circle cx="25.1500" cy="25.6700" r="0.7500" /> 
<circle cx="25.1500" cy="28.2100" r="0.7500" /> 
<circle cx="25.1500" cy="30.7500" r="0.7500" /> 
<circle cx="25.1500" cy="33.2900" r="0.7500" /> 
<circle cx="25.1500" cy="35.8300" r="0.7500" /> 
<circle cx="25.1500" cy="38.3700" r="0.7500" /> 
<circle cx="25.1500" cy="40.9100" r="0.7500" /> 
<circle cx="25.1500" cy="43.4500" r="0.7500" /> 
<circle cx="25.1500" cy="45.9900" r="0.7500" /> 
<path style="fill:#000000; fill-opacity:1.0000; stroke:none;fill-rule:evenodd;"
d="M 18.0400,36.3800
16.5400,36.3800
16.5400,34.8800
18.0400,34.8800
Z" /> 
<circle cx="17.2900" cy="28.0100" r="0.7500" /> 
<circle cx="13.4100" cy="43.5700" r="0.7500" /> 
</g>
<g style="fill:#000000; fill-opacity:1.0000; stroke:none;">
<circle cx="20.0200" cy="46.7800" r="0.7500" /> 
</g>
<g style="fill:#000000; fill-opacity:1.0000; stroke:none;">
<circle cx="16.8300" cy="20.1100" r="0.7500" /> 
</g>
<g style="fill:none; 
stroke:#000000; stroke-width:1.2000; stroke-opacity:1; 
stroke-linecap:round; stroke-linejoin:round;">
<path d="M10.6741 26.9041
L13.0941 24.4841
" />
<path d="M10.6741 27.1941
L10.6741 26.9041
" />
</g>
<g style="fill:none; 
stroke:#000000; stroke-width:0.8000; stroke-opacity:1; 
stroke-linecap:round; stroke-linejoin:round;">
<path d="M10.0400 11.6000
L10.0400 7.7200
" />
</g>
<g style="fill:none; 
stroke:#000000; stroke-width:1.2000; stroke-opacity:1; 
stroke-linecap:round; stroke-linejoin:round;">
<path d="M11.4300 31.7800
L10.6641 32.5459
" />
<path d="M11.4300 27.9500
L11.4300 31.7800
" />
<path d="M10.6641 32.5459
L10.6641 39.1259
" />
<path d="M12.5000 16.5900
L12.5000 23.8900
" />
</g>
<g style="fill:none; 
stroke:#000000; stroke-width:0.4000; stroke-opacity:1; 
stroke-linecap:round; stroke-linejoin:round;">
<path d="M10.0400 7.7200
L10.0500 7.7100
" />
</g>
<g style="fill:none; 
stroke:#000000; stroke-width:0.8000; stroke-opacity:1; 
stroke-linecap:round; stroke-linejoin:round;">
<path d="M13.3700 43.5300
L13.3700 41.0800
" />
</g>
<g style="fill:none; 
stroke:#000000; stroke-width:1.2000; stroke-opacity:1; 
stroke-linecap:round; stroke-linejoin:round;">
<path d="M10.6641 39.1259
L8.5600 41.2300
" />
<path d="M12.5000 23.8900
L13.0941 24.4841
" />
<path d="M12.4100 16.5000
L12.5000 16.5900
" />
<path d="M10.6741 27.1941
L11.4300 27.9500
" />
</g>
<g style="fill:none; 
stroke:#000000; stroke-width:0.8000; stroke-opacity:1; 
stroke-linecap:round; stroke-linejoin:round;">
<path d="M10.0500 7.7100
L10.0500 0.4700
" />
<path d="M13.3700 41.0800
L11.4159 39.1259
" />
<path d="M11.4159 39.1259
L10.6641 39.1259
" />
</g>
<g style="fill:none; 
stroke:#000000; stroke-width:1.2000; stroke-opacity:1; 
stroke-linecap:round; stroke-linejoin:round;">
<path d="M13.0800 14.2200
L8.1700 14.2200
" />
</g>
<g style="fill:none; 
stroke:#000000; stroke-width:2.0000; stroke-opacity:1; 
stroke-linecap:round; stroke-linejoin:round;">
<path d="M9.2200 45.7800
L4.6100 41.1700
" />
<path d="M16.0100 45.7800
L9.2200 45.7800
" />
</g>
<g style="fill:none; 
stroke:#000000; stroke-width:0.8000; stroke-opacity:1; 
stroke-linecap:round; stroke-linejoin:round;">
<path d="M14.6500 22.4600
L18.9600 26.7700
" />
<path d="M19.5500 27.7700
L19.5500 29.1080
" />
</g>
<g style="fill:none; 
stroke:#000000; stroke-width:1.2000; stroke-opacity:1; 
stroke-linecap:round; stroke-linejoin:round;">
<path d="M8.1700 14.2200
L7.5000 13.5500
" />
<path d="M18.9900 41.8800
L18.9900 41.6600
" />
</g>
<g style="fill:none; 
stroke:#000000; stroke-width:0.8000; stroke-opacity:1; 
stroke-linecap:round; stroke-linejoin:round;">
<path d="M18.9600 27.1800
L19.5500 27.7700
" />
</g>
<g style="fill:none; 
stroke:#000000; stroke-width:2.0000; stroke-opacity:1; 
stroke-linecap:round; stroke-linejoin:round;">
<path d="M10.1000 17.3400
L7.5300 14.7700
" />
</g>
<g style="fill:none; 
stroke:#000000; stroke-width:1.2000; stroke-opacity:1; 
stroke-linecap:round; stroke-linejoin:round;">
<path d="M18.9900 41.6600
L18.9700 41.6400
" />
</g>
<g style="fill:none; 
stroke:#000000; stroke-width:0.4000; stroke-opacity:1; 
stroke-linecap:round; stroke-linejoin:round;">
<path d="M13.0800 14.2200
L14.0500 15.1900
" />
</g>
<g style="fill:none; 
stroke:#000000; stroke-width:2.0000; stroke-opacity:1; 
stroke-linecap:round; stroke-linejoin:round;">
<path d="M4.6100 27.3700
L10.1000 21.8800
" />
</g>
<g style="fill:none; 
stroke:#000000; stroke-width:1.2000; stroke-opacity:1; 
stroke-linecap:round; stroke-linejoin:round;">
<path d="M20.8000 30.3580
L20.8000 33.9800
" />
</g>
<g style="fill:none; 
stroke:#000000; stroke-width:0.4000; stroke-opacity:1; 
stroke-linecap:round; stroke-linejoin:round;">
<path d="M14.0500 15.1900
L14.0500 17.8100
" />
</g>
<g style="fill:none; 
stroke:#000000; stroke-width:0.8000; stroke-opacity:1; 
stroke-linecap:round; stroke-linejoin:round;">
<path d="M18.9600 26.7700
L18.9600 27.1800
" />
</g>
<g style="fill:none; 
stroke:#000000; stroke-width:2.0000; stroke-opacity:1; 
stroke-linecap:round; stroke-linejoin:round;">
<path d="M10.1000 21.8800
L10.1000 17.3400
" />
<path d="M7.5300 14.7700
L7.5300 13.5800
" />
</g>
<g style="fill:none; 
stroke:#000000; stroke-width:0.4000; stroke-opacity:1; 
stroke-linecap:round; stroke-linejoin:round;">
<path d="M14.0500 17.8100
L14.7000 18.4600
" />
</g>
<g style="fill:none; 
stroke:#000000; stroke-width:2.0000; stroke-opacity:1; 
stroke-linecap:round; stroke-linejoin:round;">
<path d="M7.5000 13.5500
L7.5000 11.6000
" />
<path d="M18.9700 42.8200
L16.0100 45.7800
" />
</g>
<g style="fill:none; 
stroke:#000000; stroke-width:1.2000; stroke-opacity:1; 
stroke-linecap:round; stroke-linejoin:round;">
<path d="M19.5500 29.1080
L20.8000 30.3580
" />
</g>
<g style="fill:none; 
stroke:#000000; stroke-width:2.0000; stroke-opacity:1; 
stroke-linecap:round; stroke-linejoin:round;">
<path d="M18.9700 41.6400
L18.9700 42.8200
" />
<path d="M7.5300 13.5800
L7.5000 13.5500
" />
<path d="M4.6100 41.1700
L4.6100 27.3700
" />
</g>
<g style="fill:none; 
stroke:#000000; stroke-width:1.2000; stroke-opacity:1; 
stroke-linecap:round; stroke-linejoin:round;">
<path d="M14.7000 18.4600
L14.7000 22.4520
" />
</g>
<g style="fill:none; 
stroke:#000000; stroke-width:0.8000; stroke-opacity:1; 
stroke-linecap:round; stroke-linejoin:round;">
<path d="M22.9200 25.1300
L21.0100 23.2200
" />
<path d="M16.8300 17.9500
L16.8300 20.1100
" />
<path d="M21.0100 23.2200
L19.5900 23.2200
" />
<path d="M22.9200 43.8800
L20.0200 46.7800
" />
<path d="M16.8300 20.4600
L16.8300 20.1100
" />
<path d="M22.9200 43.8800
L22.9200 25.1300
" />
<path d="M15.0500 16.1700
L16.8300 17.9500
" />
<path d="M19.5900 23.2200
L16.8300 20.4600
" />
<path d="M16.9100 11.5800
L15.0500 13.4400
" />
<path d="M16.9100 7.3600
L16.9100 11.5800
" />
<path d="M15.0500 13.4400
L15.0500 16.1700
" />
<path style="fill:#000000; fill-opacity:1.0000; stroke:none;fill-rule:evenodd;"
d="M 3.8599,42.9830
3.9163,43.0226
8.0303,47.1366
8.2176,47.2803
8.2176,47.2803
8.4065,47.3893
8.4219,47.3983
8.5440,47.4488
8.6400,47.4886
8.8680,47.5497
9.1020,47.5805
9.1020,47.5805
16.1280,47.5805
16.1280,47.5805
16.3620,47.5497
16.5900,47.4886
16.7177,47.4357
16.8080,47.3983
17.0124,47.2803
17.1997,47.1366
18.2011,46.1352
18.2761,46.0881
18.3641,46.0782
18.4477,46.1074
18.5103,46.1700
18.5396,46.2536
18.5353,46.3224
18.4839,46.5367
18.4647,46.7800
18.4839,47.0233
18.5408,47.2606
18.5408,47.2606
18.6342,47.4861
18.6342,47.4861
18.7617,47.6942
18.8878,47.8418
18.9289,47.9202
18.9319,48.0087
18.8961,48.0898
18.8288,48.1473
18.7432,48.1699
18.7365,48.1700
0.3494,48.1700
0.2631,48.1503
0.1938,48.0951
0.1554,48.0153
0.1504,47.9706
0.1529,46.7800
0.1536,46.4337
0.1735,46.3474
0.2289,46.2783
0.3087,46.2401
0.3973,46.2402
0.4770,46.2788
0.5321,46.3482
0.5461,46.3877
0.5708,46.4906
0.5708,46.4906
0.6642,46.7161
0.6642,46.7161
0.7917,46.9242
0.9502,47.1098
1.1358,47.2683
1.1358,47.2683
1.1358,47.2683
1.1907,47.3019
1.3439,47.3958
1.3439,47.3958
1.5694,47.4892
1.5694,47.4892
1.5694,47.4892
1.7135,47.5238
1.8067,47.5461
1.8067,47.5461
1.8067,47.5461
2.0500,47.5653
2.2933,47.5461
2.2933,47.5461
2.2933,47.5461
2.3357,47.5360
2.5306,47.4892
2.6597,47.4357
2.7561,47.3958
2.7561,47.3958
2.9642,47.2683
3.1498,47.1098
3.3083,46.9242
3.4358,46.7161
3.5292,46.4906
3.5801,46.2783
3.5861,46.2533
3.5861,46.2533
3.5861,46.2533
3.6053,46.0100
3.5861,45.7667
3.5837,45.7567
3.5510,45.6205
3.5292,45.5294
3.5260,45.5217
3.4358,45.3039
3.4358,45.3039
3.3083,45.0958
3.1932,44.9611
3.1498,44.9102
3.1497,44.9102
3.1276,44.8913
3.0747,44.8203
3.0580,44.7333
3.0806,44.6477
3.1276,44.5887
3.1498,44.5698
3.3083,44.3842
3.4358,44.1761
3.5292,43.9506
3.5861,43.7133
3.6053,43.4700
3.5861,43.2267
3.5821,43.2098
3.5811,43.1212
3.6186,43.0410
3.6872,42.9850
3.7733,42.9643
Z" /> 
<path style="fill:#000000; fill-opacity:1.0000; stroke:none;fill-rule:evenodd;"
d="M 26.9248,43.8526
26.9838,43.9186
27.0083,44.0037
27.0087,44.0153
27.0004,47.9714
26.9805,48.0577
26.9252,48.1268
26.8453,48.1651
26.8014,48.1700
21.3035,48.1700
21.2172,48.1503
21.1480,48.0951
21.1095,48.0153
21.1095,47.9267
21.1480,47.8469
21.1522,47.8418
21.2783,47.6942
21.2783,47.6942
21.4058,47.4861
21.4992,47.2606
21.5561,47.0233
21.5574,47.0078
21.5838,46.9233
21.6150,46.8827
23.7793,44.7185
23.8543,44.6713
23.9423,44.6614
24.0259,44.6907
24.0885,44.7533
24.1178,44.8369
24.1190,44.8591
24.1200,47.0800
24.1200,47.0800
24.1200,47.0800
26.2700,47.1100
26.2683,44.6015
26.2880,44.5152
26.3160,44.4722
26.4083,44.3642
26.5358,44.1561
26.6258,43.9387
26.6771,43.8665
26.7546,43.8237
26.8430,43.8187
Z" /> 
<path style="fill:#000000; fill-opacity:1.0000; stroke:none;fill-rule:evenodd;"
d="M 0.4026,43.7221
0.4823,43.7607
0.5373,43.8301
0.5514,43.8696
0.5708,43.9506
0.5708,43.9506
0.6642,44.1761
0.6642,44.1761
0.7917,44.3842
0.9502,44.5697
0.9913,44.6482
0.9979,44.6988
0.9980,44.7808
0.9783,44.8671
0.9503,44.9102
0.7917,45.0958
0.6642,45.3039
0.6642,45.3039
0.5708,45.5294
0.5708,45.5294
0.5479,45.6249
0.5086,45.7042
0.4387,45.7587
0.3522,45.7774
0.2661,45.7567
0.1974,45.7007
0.1599,45.6205
0.1554,45.5780
0.1589,43.9156
0.1788,43.8293
0.2341,43.7602
0.3140,43.7219
Z" /> 
<path style="fill:#000000; fill-opacity:1.0000; stroke:none;fill-rule:evenodd;"
d="M 12.9368,15.6402
13.0061,15.6954
13.0445,15.7752
13.0495,15.8195
13.0495,17.9085
13.0597,17.9598
13.0879,18.1018
13.0879,18.1018
13.0971,18.1239
13.1100,18.1552
13.1634,18.2839
13.2660,18.4375
13.2975,18.5202
13.2995,18.5480
13.2995,22.5623
13.3340,22.7800
13.3340,22.7800
13.4021,22.9896
13.4021,22.9896
13.4021,22.9896
13.5022,23.1861
13.6318,23.3644
13.7876,23.5203
13.9660,23.6498
14.1624,23.7499
14.2351,23.7736
14.3111,23.8190
14.3143,23.8221
16.7499,26.2576
16.7970,26.3326
16.8069,26.4206
16.7777,26.5042
16.7150,26.5669
16.6853,26.5822
16.5839,26.6242
16.5839,26.6242
16.3758,26.7517
16.1902,26.9102
16.0317,27.0958
15.9042,27.3039
15.9042,27.3039
15.8108,27.5294
15.8108,27.5294
15.7539,27.7667
15.7347,28.0100
15.7539,28.2533
15.8108,28.4906
15.8108,28.4906
15.9042,28.7161
15.9042,28.7161
16.0317,28.9242
16.1902,29.1098
16.3758,29.2683
16.3758,29.2683
16.3758,29.2683
16.4225,29.2969
16.5839,29.3958
16.5839,29.3958
16.8094,29.4892
16.8094,29.4892
16.8094,29.4892
16.9535,29.5238
17.0467,29.5461
17.0467,29.5461
17.0467,29.5461
17.2900,29.5653
17.5333,29.5461
17.5333,29.5461
17.5333,29.5461
17.5757,29.5360
17.7706,29.4892
17.9513,29.4143
18.0386,29.3995
18.1237,29.4240
18.1898,29.4830
18.2167,29.5367
18.2521,29.6456
18.2521,29.6456
18.2521,29.6456
18.3490,29.8358
18.3522,29.8420
18.4818,30.0203
19.3412,30.8798
19.3883,30.9548
19.3995,31.0205
19.3995,32.7033
19.3798,32.7897
19.3690,32.8092
19.3242,32.8805
19.3242,32.8805
19.2959,32.9614
19.2646,33.0507
19.2495,33.1850
19.2495,34.7750
19.2646,34.9093
19.2646,34.9093
19.2646,34.9093
19.3242,35.0795
19.3242,35.0795
19.4202,35.2323
19.5477,35.3598
19.5477,35.3598
19.5477,35.3598
19.7005,35.4558
19.8707,35.5154
20.0050,35.5305
20.0050,35.5305
21.5205,35.5305
21.6068,35.5502
21.6761,35.6054
21.7145,35.6852
21.7195,35.7295
21.7195,43.3003
21.6998,43.3866
21.6612,43.4410
19.9173,45.1850
19.8423,45.2321
19.7922,45.2426
19.7767,45.2439
19.5624,45.2953
19.4738,45.2963
19.3936,45.2588
19.3376,45.1902
19.3169,45.1040
19.3357,45.0175
19.3752,44.9611
20.3266,44.0097
20.3266,44.0097
20.4703,43.8225
20.5883,43.6180
20.6707,43.4192
20.6786,43.4000
20.7397,43.1720
20.7705,42.9380
20.7705,41.5220
20.7397,41.2880
20.6786,41.0600
20.5883,40.8420
20.5037,40.6954
20.4882,40.6616
20.4458,40.5405
20.4094,40.4825
20.3498,40.3877
20.3498,40.3877
20.3498,40.3877
20.2223,40.2602
20.2223,40.2602
20.2223,40.2602
20.0695,40.1642
20.0598,40.1608
19.9484,40.1218
19.9146,40.1063
19.8756,40.0838
19.7680,40.0217
19.5500,39.9314
19.5500,39.9314
19.5500,39.9314
19.3734,39.8841
19.3220,39.8703
19.0880,39.8395
18.8520,39.8395
18.6180,39.8703
18.6180,39.8703
18.6180,39.8703
18.3900,39.9314
18.1720,40.0217
18.0254,40.1063
17.9916,40.1218
17.8705,40.1642
17.8705,40.1642
17.7177,40.2602
17.5902,40.3877
17.4942,40.5405
17.4942,40.5405
17.4518,40.6616
17.4363,40.6954
17.3517,40.8420
17.2614,41.0600
17.2229,41.2038
17.2003,41.2880
17.1695,41.5220
17.1695,41.5220
17.1695,41.9918
17.1498,42.0781
17.1112,42.1325
15.3225,43.9212
15.2475,43.9683
15.1818,43.9795
10.0482,43.9795
9.9619,43.9598
9.9075,43.9212
7.6263,41.6400
9.7947,41.6400
9.8139,41.8833
9.8708,42.1206
9.8708,42.1206
9.9642,42.3461
9.9642,42.3461
10.0917,42.5542
10.2502,42.7398
10.4358,42.8983
10.6439,43.0258
10.6439,43.0258
10.8694,43.1192
10.8694,43.1192
10.8694,43.1192
11.0135,43.1538
11.1067,43.1761
11.1067,43.1761
11.1067,43.1761
11.3500,43.1953
11.5933,43.1761
11.5933,43.1761
11.5933,43.1761
11.6357,43.1660
11.8306,43.1192
11.9139,43.0847
12.0561,43.0258
12.0561,43.0258
12.0613,43.0226
12.2642,42.8983
12.4498,42.7398
12.6083,42.5542
12.7358,42.3461
12.7419,42.3313
12.8292,42.1206
12.8292,42.1206
12.8292,42.1206
12.8861,41.8833
12.9053,41.6400
12.8861,41.3967
12.8787,41.3658
12.8547,41.2658
12.8292,41.1594
12.8267,41.1533
12.7358,40.9339
12.7358,40.9339
12.6083,40.7258
12.4498,40.5402
12.2642,40.3817
12.0561,40.2542
12.0561,40.2542
11.8306,40.1608
11.8306,40.1608
11.8306,40.1608
11.5933,40.1039
11.3500,40.0847
11.1067,40.1039
10.8694,40.1608
10.8694,40.1608
10.6439,40.2542
10.6439,40.2542
10.4358,40.3817
10.2502,40.5402
10.0917,40.7258
9.9642,40.9339
9.9642,40.9339
9.8708,41.1594
9.8708,41.1594
9.8139,41.3967
9.7947,41.6400
7.6263,41.6400
6.4688,40.4825
6.4217,40.4075
6.4105,40.3418
6.4105,37.6750
12.2295,37.6750
12.2295,39.2650
12.2446,39.3993
12.2446,39.3993
12.2446,39.3993
12.3042,39.5695
12.3042,39.5695
12.3458,39.6357
12.3900,39.7060
12.4002,39.7223
12.5277,39.8498
12.5277,39.8498
12.5277,39.8498
12.6805,39.9458
12.8507,40.0054
12.9850,40.0205
12.9850,40.0205
14.5750,40.0205
14.5750,40.0205
14.7093,40.0054
14.8795,39.9458
15.0323,39.8498
15.1598,39.7223
15.2558,39.5695
15.3154,39.3993
15.3305,39.2650
15.3305,37.6750
15.3154,37.5407
15.2558,37.3705
15.1598,37.2177
15.1598,37.2177
15.1598,37.2177
15.0323,37.0902
15.0323,37.0902
15.0323,37.0902
14.8795,36.9942
14.8795,36.9942
14.8795,36.9942
14.7093,36.9346
14.7093,36.9346
14.7093,36.9346
14.5750,36.9195
12.9850,36.9195
12.8507,36.9346
12.8507,36.9346
12.8507,36.9346
12.6805,36.9942
12.6805,36.9942
12.5277,37.0902
12.4002,37.2177
12.3042,37.3705
12.3042,37.3705
12.2446,37.5407
12.2446,37.5407
12.2295,37.6750
6.4105,37.6750
6.4105,33.6100
7.0047,33.6100
7.0239,33.8533
7.0808,34.0906
7.0808,34.0906
7.1742,34.3161
7.1742,34.3161
7.3017,34.5242
7.4602,34.7098
7.6458,34.8683
7.8539,34.9958
7.8539,34.9958
8.0794,35.0892
8.0794,35.0892
8.0794,35.0892
8.2235,35.1238
8.3167,35.1461
8.3167,35.1461
8.3167,35.1461
8.5600,35.1653
8.8033,35.1461
8.8033,35.1461
8.8033,35.1461
8.8457,35.1360
9.0406,35.0892
9.2661,34.9958
9.4742,34.8683
9.5131,34.8350
15.7395,34.8350
15.7395,36.4250
15.7546,36.5593
15.7546,36.5593
15.7546,36.5593
15.8142,36.7295
15.8142,36.7295
15.9102,36.8823
16.0377,37.0098
16.0377,37.0098
16.0377,37.0098
16.1905,37.1058
16.3607,37.1654
16.4950,37.1805
16.4950,37.1805
18.0850,37.1805
18.0850,37.1805
18.2193,37.1654
18.3895,37.1058
18.5423,37.0098
18.6698,36.8823
18.7658,36.7295
18.8254,36.5593
18.8405,36.4250
18.8405,34.8350
18.8254,34.7007
18.7658,34.5305
18.6698,34.3777
18.6698,34.3777
18.6698,34.3777
18.5423,34.2502
18.5423,34.2502
18.5423,34.2502
18.3895,34.1542
18.3895,34.1542
18.3895,34.1542
18.2193,34.0946
18.2193,34.0946
18.2193,34.0946
18.0850,34.0795
16.4950,34.0795
16.3607,34.0946
16.3607,34.0946
16.3607,34.0946
16.1905,34.1542
16.1905,34.1542
16.0377,34.2502
15.9102,34.3777
15.8142,34.5305
15.8142,34.5305
15.7546,34.7007
15.7546,34.7007
15.7395,34.8350
9.5131,34.8350
9.6598,34.7098
9.8183,34.5242
9.9458,34.3161
10.0392,34.0906
10.0961,33.8533
10.1153,33.6100
10.0961,33.3667
10.0392,33.1294
10.0392,33.1294
9.9458,32.9039
9.9458,32.9039
9.8183,32.6958
9.6598,32.5102
9.4742,32.3517
9.2661,32.2242
9.2661,32.2242
9.0406,32.1308
9.0406,32.1308
9.0333,32.1291
8.8033,32.0739
8.5600,32.0547
8.3167,32.0739
8.0794,32.1308
8.0794,32.1308
7.8539,32.2242
7.8539,32.2242
7.6458,32.3517
7.4602,32.5102
7.3017,32.6958
7.1742,32.9039
7.1742,32.9039
7.0808,33.1294
7.0808,33.1294
7.0239,33.3667
7.0047,33.6100
6.4105,33.6100
6.4105,30.8500
12.2247,30.8500
12.2439,31.0933
12.3008,31.3306
12.3008,31.3306
12.3942,31.5561
12.3942,31.5561
12.5217,31.7642
12.6802,31.9498
12.8658,32.1083
12.8658,32.1083
12.8658,32.1083
12.9207,32.1419
13.0739,32.2358
13.0739,32.2358
13.2994,32.3292
13.2994,32.3292
13.2994,32.3292
13.4435,32.3638
13.5367,32.3861
13.5367,32.3861
13.5367,32.3861
13.7800,32.4053
14.0233,32.3861
14.0233,32.3861
14.0233,32.3861
14.0663,32.3758
14.2606,32.3292
14.4861,32.2358
14.6942,32.1083
14.8798,31.9498
15.0383,31.7642
15.1658,31.5561
15.2592,31.3306
15.3151,31.0978
15.3161,31.0933
15.3161,31.0933
15.3161,31.0933
15.3353,30.8500
15.3161,30.6067
15.2592,30.3694
15.2565,30.3629
15.1658,30.1439
15.1658,30.1439
15.0383,29.9358
14.8798,29.7502
14.6942,29.5917
14.4861,29.4642
14.4861,29.4642
14.2606,29.3708
14.2606,29.3708
14.2606,29.3708
14.0233,29.3139
13.7800,29.2947
13.5367,29.3139
13.2994,29.3708
13.2994,29.3708
13.0739,29.4642
13.0739,29.4642
12.8658,29.5917
12.6802,29.7502
12.5217,29.9358
12.3942,30.1439
12.3942,30.1439
12.3008,30.3694
12.3008,30.3694
12.2439,30.6067
12.2247,30.8500
6.4105,30.8500
6.4105,28.1982
6.4302,28.1119
6.4688,28.0575
8.9506,25.5757
11.4566,23.0697
11.6003,22.8825
11.7183,22.6780
11.7755,22.5399
11.8086,22.4600
11.8697,22.2320
11.9005,21.9980
11.9005,17.2220
11.8697,16.9880
11.8086,16.7600
11.7870,16.7078
11.7183,16.5419
11.6731,16.4637
11.6003,16.3376
11.6003,16.3376
11.4638,16.1598
11.4566,16.1503
11.4566,16.1503
11.4566,16.1503
11.2665,15.9602
11.2194,15.8852
11.2095,15.7972
11.2387,15.7136
11.3013,15.6510
11.3849,15.6218
11.4072,15.6205
12.8505,15.6205
Z" /> 
<path style="fill:#000000; fill-opacity:1.0000; stroke:none;fill-rule:evenodd;"
d="M 0.4078,41.2040
0.4875,41.2426
0.5426,41.3119
0.5566,41.3514
0.5708,41.4106
0.5708,41.4106
0.6642,41.6361
0.6642,41.6361
0.7917,41.8442
0.8252,41.8833
0.9480,42.0271
0.9891,42.1056
0.9957,42.1562
0.9957,42.2434
0.9761,42.3297
0.9481,42.3728
0.7917,42.5558
0.6642,42.7639
0.6642,42.7639
0.5708,42.9894
0.5708,42.9894
0.5532,43.0626
0.5139,43.1420
0.4441,43.1964
0.3575,43.2151
0.2714,43.1945
0.2028,43.1385
0.1652,43.0583
0.1607,43.0157
0.1641,41.3975
0.1840,41.3112
0.2394,41.2421
0.3192,41.2038
Z" /> 
<path style="fill:#000000; fill-opacity:1.0000; stroke:none;fill-rule:evenodd;"
d="M 26.9301,41.2997
26.9892,41.3658
27.0137,41.4509
27.0140,41.4624
27.0110,42.8912
26.9911,42.9775
26.9358,43.0466
26.8559,43.0849
26.7673,43.0847
26.6876,43.0461
26.6325,42.9767
26.6282,42.9669
26.5358,42.7439
26.5358,42.7439
26.4083,42.5358
26.3145,42.4260
26.2734,42.3476
26.2668,42.2969
26.2667,42.0635
26.2863,41.9772
26.3143,41.9341
26.4083,41.8242
26.5358,41.6161
26.6292,41.3906
26.6292,41.3906
26.6311,41.3859
26.6824,41.3136
26.7599,41.2708
26.8483,41.2658
Z" /> 
<path style="fill:#000000; fill-opacity:1.0000; stroke:none;fill-rule:evenodd;"
d="M 0.4131,38.6858
0.4928,38.7244
0.5478,38.7938
0.5619,38.8333
0.5708,38.8706
0.5708,38.8706
0.6642,39.0961
0.6642,39.0961
0.7917,39.3042
0.9457,39.4845
0.9868,39.5629
0.9934,39.6135
0.9935,39.7060
0.9739,39.7924
0.9458,39.8354
0.7917,40.0158
0.6642,40.2239
0.6642,40.2239
0.5708,40.4494
0.5708,40.4494
0.5586,40.5004
0.5193,40.5797
0.4494,40.6342
0.3629,40.6529
0.2767,40.6322
0.2081,40.5762
0.1706,40.4960
0.1661,40.4535
0.1694,38.8793
0.1893,38.7931
0.2446,38.7239
0.3245,38.6857
Z" /> 
<path style="fill:#000000; fill-opacity:1.0000; stroke:none;fill-rule:evenodd;"
d="M 26.9224,38.7355
26.9864,38.7967
27.0175,38.8796
27.0193,38.9067
27.0163,40.3647
26.9964,40.4510
26.9410,40.5202
26.8612,40.5584
26.7726,40.5582
26.6929,40.5197
26.6378,40.4503
26.6323,40.4366
26.6322,40.4366
26.5358,40.2039
26.5358,40.2039
26.4419,40.0507
26.4083,39.9958
26.4083,39.9958
26.4083,39.9958
26.3128,39.8841
26.2717,39.8056
26.2651,39.7550
26.2650,39.5255
26.2846,39.4391
26.3127,39.3961
26.4083,39.2842
26.5358,39.0761
26.6292,38.8506
26.6292,38.8506
26.6311,38.8448
26.6765,38.7688
26.7504,38.7200
26.8381,38.7081
Z" /> 
<path style="fill:#000000; fill-opacity:1.0000; stroke:none;fill-rule:evenodd;"
d="M 0.4183,36.1677
0.4980,36.2063
0.5531,36.2757
0.5671,36.3152
0.5708,36.3306
0.5708,36.3306
0.5708,36.3306
0.6642,36.5561
0.6642,36.5561
0.7917,36.7642
0.8719,36.8581
0.9373,36.9346
0.9435,36.9419
0.9846,37.0203
0.9912,37.0709
0.9913,37.1686
0.9716,37.2550
0.9436,37.2980
0.7917,37.4758
0.6642,37.6839
0.6642,37.6839
0.5708,37.9094
0.5708,37.9094
0.5639,37.9381
0.5246,38.0175
0.4548,38.0719
0.3682,38.0906
0.2821,38.0700
0.2135,38.0140
0.1759,37.9337
0.1714,37.8912
0.1746,36.3612
0.1945,36.2749
0.2499,36.2058
0.3297,36.1675
Z" /> 
<path style="fill:#000000; fill-opacity:1.0000; stroke:none;fill-rule:evenodd;"
d="M 26.9140,36.1663
26.9826,36.2223
27.0201,36.3025
27.0247,36.3451
27.0215,37.8428
27.0016,37.9291
26.9463,37.9982
26.8664,38.0364
26.7778,38.0363
26.6981,37.9977
26.6431,37.9283
26.6318,37.8967
26.6316,37.8968
26.6292,37.8894
26.5358,37.6639
26.5358,37.6639
26.4083,37.4558
26.3111,37.3421
26.2701,37.2637
26.2635,37.2130
26.2633,36.9874
26.2830,36.9011
26.3110,36.8581
26.4083,36.7442
26.5358,36.5361
26.6292,36.3106
26.6322,36.2982
26.6715,36.2188
26.7413,36.1644
26.8279,36.1457
Z" /> 
<path style="fill:#000000; fill-opacity:1.0000; stroke:none;fill-rule:evenodd;"
d="M 0.4236,33.6496
0.5033,33.6882
0.5583,33.7575
0.5676,33.7835
0.5684,33.7832
0.5708,33.7906
0.6642,34.0161
0.6642,34.0161
0.7917,34.2242
0.9412,34.3992
0.9823,34.4777
0.9889,34.5283
0.9890,34.6312
0.9694,34.7176
0.9413,34.7607
0.7917,34.9358
0.6642,35.1439
0.6642,35.1439
0.5708,35.3694
0.5708,35.3694
0.5693,35.3759
0.5300,35.4552
0.4601,35.5097
0.3735,35.5284
0.2874,35.5077
0.2188,35.4517
0.1813,35.3715
0.1768,35.3290
0.1799,33.8431
0.1998,33.7568
0.2551,33.6877
0.3350,33.6494
Z" /> 
<path style="fill:#000000; fill-opacity:1.0000; stroke:none;fill-rule:evenodd;"
d="M 26.9193,33.6041
26.9880,33.6601
27.0255,33.7403
27.0300,33.7828
27.0268,35.3246
27.0069,35.4109
26.9515,35.4801
26.8717,35.5183
26.7831,35.5181
26.7034,35.4795
26.6483,35.4102
26.6343,35.3707
26.6292,35.3494
26.6207,35.3290
26.5358,35.1239
26.5358,35.1239
26.4083,34.9158
26.3095,34.8001
26.2684,34.7217
26.2618,34.6710
26.2617,34.5305
26.2616,34.4494
26.2813,34.3630
26.3093,34.3200
26.4083,34.2042
26.5358,33.9961
26.6292,33.7706
26.6375,33.7359
26.6768,33.6566
26.7467,33.6021
26.8332,33.5834
Z" /> 
<path style="fill:#000000; fill-opacity:1.0000; stroke:none;fill-rule:evenodd;"
d="M 26.9247,31.0418
26.9933,31.0978
27.0308,31.1780
27.0353,31.2206
27.0320,32.8065
27.0121,32.8928
26.9568,32.9619
26.8769,33.0002
26.7883,33.0000
26.7086,32.9614
26.6536,32.8921
26.6395,32.8525
26.6292,32.8094
26.6210,32.7897
26.5358,32.5839
26.5358,32.5839
26.4263,32.4053
26.4083,32.3758
26.4083,32.3758
26.4083,32.3758
26.3078,32.2582
26.2667,32.1797
26.2601,32.1291
26.2600,31.9114
26.2796,31.8250
26.3076,31.7820
26.4083,31.6642
26.5358,31.4561
26.6292,31.2306
26.6428,31.1737
26.6822,31.0943
26.7520,31.0399
26.8386,31.0212
Z" /> 
<path style="fill:#000000; fill-opacity:1.0000; stroke:none;fill-rule:evenodd;"
d="M 0.4288,31.1260
0.5085,31.1646
0.5636,31.2339
0.5680,31.2438
0.6642,31.4761
0.6642,31.4761
0.7917,31.6842
0.9390,31.8566
0.9801,31.9351
0.9867,31.9857
0.9868,32.0939
0.9671,32.1802
0.9391,32.2233
0.7917,32.3958
0.6642,32.6039
0.6642,32.6039
0.5708,32.8294
0.5704,32.8308
0.5700,32.8315
0.5678,32.8366
0.5671,32.8363
0.5249,32.9068
0.4510,32.9556
0.3633,32.9675
0.2790,32.9401
0.2150,32.8789
0.1839,32.7960
0.1821,32.7689
0.1822,32.7033
0.1851,31.3195
0.2050,31.2332
0.2604,31.1641
0.3403,31.1258
Z" /> 
<path style="fill:#000000; fill-opacity:1.0000; stroke:none;fill-rule:evenodd;"
d="M 26.9300,28.4796
26.9986,28.5356
27.0362,28.6158
27.0407,28.6583
27.0373,30.2884
27.0174,30.3747
26.9620,30.4438
26.8822,30.4821
26.7936,30.4819
26.7139,30.4433
26.6588,30.3739
26.6448,30.3344
26.6292,30.2694
26.6111,30.2257
26.5358,30.0439
26.5358,30.0439
26.4083,29.8358
26.3061,29.7162
26.2650,29.6378
26.2584,29.5871
26.2584,29.4830
26.2583,29.3733
26.2779,29.2870
26.3060,29.2440
26.4083,29.1242
26.5358,28.9161
26.6292,28.6906
26.6482,28.6114
26.6875,28.5321
26.7574,28.4776
26.8439,28.4589
Z" /> 
<path style="fill:#000000; fill-opacity:1.0000; stroke:none;fill-rule:evenodd;"
d="M 0.4341,28.5987
0.5138,28.6373
0.5689,28.7067
0.5733,28.7165
0.6642,28.9361
0.6642,28.9361
0.7917,29.1442
0.9368,29.3140
0.9778,29.3924
0.9844,29.4430
0.9845,29.5565
0.9649,29.6429
0.9369,29.6859
0.7917,29.8558
0.6642,30.0639
0.6642,30.0639
0.5703,30.2907
0.5190,30.3629
0.4415,30.4058
0.3531,30.4107
0.2713,30.3768
0.2123,30.3108
0.1878,30.2257
0.1874,30.2141
0.1876,30.1439
0.1904,28.7922
0.2103,28.7059
0.2657,28.6368
0.3455,28.5985
Z" /> 
<path style="fill:#000000; fill-opacity:1.0000; stroke:none;fill-rule:evenodd;"
d="M 26.9354,25.9173
27.0040,25.9733
27.0415,26.0535
27.0460,26.0960
27.0425,27.7702
27.0226,27.8565
26.9673,27.9257
26.8874,27.9639
26.7988,27.9637
26.7191,27.9251
26.6641,27.8558
26.6500,27.8163
26.6292,27.7294
26.6057,27.6728
26.5358,27.5039
26.5358,27.5039
26.4132,27.3039
26.4083,27.2958
26.4083,27.2958
26.4083,27.2958
26.3044,27.1742
26.2633,27.0958
26.2567,27.0451
26.2567,26.9102
26.2566,26.8353
26.2763,26.7489
26.3043,26.7059
26.4083,26.5842
26.5358,26.3761
26.6292,26.1506
26.6535,26.0492
26.6928,25.9698
26.7627,25.9154
26.8493,25.8966
Z" /> 
<path style="fill:#000000; fill-opacity:1.0000; stroke:none;fill-rule:evenodd;"
d="M 0.4394,26.0714
0.5191,26.1100
0.5741,26.1794
0.5785,26.1892
0.6379,26.3326
0.6642,26.3961
0.6642,26.3961
0.7917,26.6042
0.8786,26.7059
0.9178,26.7517
0.9345,26.7713
0.9756,26.8498
0.9822,26.9004
0.9823,27.0191
0.9627,27.1055
0.9346,27.1485
0.7917,27.3158
0.6642,27.5239
0.6642,27.5239
0.5756,27.7378
0.5244,27.8101
0.4469,27.8529
0.3584,27.8579
0.2766,27.8240
0.2176,27.7579
0.1931,27.6728
0.1928,27.6613
0.1930,27.5294
0.1957,26.2649
0.2156,26.1786
0.2709,26.1095
0.3508,26.0712
Z" /> 
<path style="fill:#000000; fill-opacity:1.0000; stroke:none;fill-rule:evenodd;"
d="M 26.9407,23.3551
27.0093,23.4111
27.0469,23.4913
27.0514,23.5338
27.0478,25.2521
27.0279,25.3384
26.9725,25.4075
26.8927,25.4458
26.8041,25.4456
26.7244,25.4070
26.6693,25.3377
26.6553,25.2982
26.6292,25.1894
26.6292,25.1894
26.5358,24.9639
26.5358,24.9639
26.4083,24.7558
26.3027,24.6323
26.2617,24.5538
26.2551,24.5032
26.2549,24.2972
26.2746,24.2109
26.3026,24.1679
26.4083,24.0442
26.5358,23.8361
26.6292,23.6106
26.6589,23.4869
26.6982,23.4076
26.7680,23.3531
26.8546,23.3344
Z" /> 
<path style="fill:#000000; fill-opacity:1.0000; stroke:none;fill-rule:evenodd;"
d="M 0.4446,23.5442
0.5243,23.5827
0.5794,23.6521
0.5838,23.6619
0.6206,23.7509
0.6642,23.8561
0.6642,23.8561
0.7917,24.0642
0.9323,24.2287
0.9734,24.3072
0.9800,24.3578
0.9801,24.4817
0.9604,24.5681
0.9324,24.6111
0.7917,24.7758
0.6642,24.9839
0.6642,24.9839
0.5809,25.1850
0.5297,25.2572
0.4522,25.3001
0.3638,25.3050
0.2819,25.2711
0.2229,25.2051
0.1984,25.1200
0.1981,25.1084
0.1987,24.8122
0.2009,23.7377
0.2208,23.6514
0.2762,23.5822
0.3561,23.5440
Z" /> 
<path style="fill:#000000; fill-opacity:1.0000; stroke:none;fill-rule:evenodd;"
d="M 26.9869,0.2297
27.0562,0.2849
27.0946,0.3647
27.0996,0.4094
27.0963,1.9848
27.0764,2.0711
27.0210,2.1402
26.9412,2.1784
26.8526,2.1783
26.7729,2.1397
26.7178,2.0703
26.6996,2.0066
26.6854,1.8807
26.6258,1.7105
26.5298,1.5577
26.5298,1.5577
26.5298,1.5577
26.4023,1.4302
26.4023,1.4302
26.4023,1.4302
26.2495,1.3342
26.2495,1.3342
26.2495,1.3342
26.0793,1.2746
26.0793,1.2746
26.0793,1.2746
25.9450,1.2595
24.3550,1.2595
24.2207,1.2746
24.2207,1.2746
24.2207,1.2746
24.0505,1.3342
24.0505,1.3342
23.8977,1.4302
23.7702,1.5577
23.6742,1.7105
23.6742,1.7105
23.6151,1.8794
23.6146,1.8807
23.5995,2.0150
23.5995,3.6050
23.6146,3.7393
23.6146,3.7393
23.6146,3.7393
23.6742,3.9095
23.6742,3.9095
23.7702,4.0623
23.8777,4.1698
23.9249,4.2448
23.9348,4.3328
23.9055,4.4164
23.8961,4.4293
23.8963,4.4295
23.8917,4.4358
23.7642,4.6439
23.7642,4.6439
23.6708,4.8694
23.6708,4.8694
23.6139,5.1067
23.5947,5.3500
23.6139,5.5933
23.6708,5.8306
23.6708,5.8306
23.7642,6.0561
23.7642,6.0561
23.8917,6.2642
24.0545,6.4547
24.0956,6.5332
24.1022,6.5839
24.1022,6.6559
24.0825,6.7423
24.0545,6.7852
23.8917,6.9758
23.7642,7.1839
23.7642,7.1839
23.6708,7.4094
23.6708,7.4094
23.6139,7.6467
23.5947,7.8900
23.6139,8.1333
23.6708,8.3706
23.6708,8.3706
23.7642,8.5961
23.7642,8.5961
23.8917,8.8042
24.0553,8.9957
24.0532,8.9975
24.0921,9.0595
24.1033,9.1251
24.1033,9.1947
24.0836,9.2810
24.0539,9.3231
24.0553,9.3243
24.0502,9.3302
24.0502,9.3302
24.0157,9.3707
23.8917,9.5158
23.7642,9.7239
23.7642,9.7239
23.6708,9.9494
23.6708,9.9494
23.6139,10.1867
23.5947,10.4300
23.6139,10.6733
23.6708,10.9106
23.6708,10.9106
23.7642,11.1361
23.7642,11.1361
23.8917,11.3442
24.0553,11.5357
24.0534,11.5373
24.0932,11.6006
24.1044,11.6663
24.1044,11.7335
24.0848,11.8199
24.0540,11.8632
24.0553,11.8643
24.0502,11.8702
24.0502,11.8702
24.0178,11.9083
23.8917,12.0558
23.7642,12.2639
23.7642,12.2639
23.6708,12.4894
23.6708,12.4894
23.6139,12.7267
23.5947,12.9700
23.6139,13.2133
23.6708,13.4506
23.6708,13.4506
23.7642,13.6761
23.7642,13.6761
23.8917,13.8842
23.9244,13.9224
24.0469,14.0658
24.0553,14.0757
24.0537,14.0771
24.0944,14.1417
24.1055,14.2074
24.1055,14.2724
24.0859,14.3588
24.0542,14.4034
24.0553,14.4043
24.0502,14.4102
24.0502,14.4102
24.0222,14.4430
23.8917,14.5958
23.7642,14.8039
23.7642,14.8039
23.6708,15.0294
23.6708,15.0294
23.6139,15.2667
23.5947,15.5100
23.6139,15.7533
23.6708,15.9906
23.6708,15.9906
23.7642,16.2161
23.7642,16.2161
23.8917,16.4242
24.0553,16.6157
24.0540,16.6168
24.0955,16.6829
24.1066,16.7485
24.1067,16.8113
24.0870,16.8977
24.0544,16.9436
24.0553,16.9443
24.0502,16.9502
24.0502,16.9502
24.0243,16.9806
23.8917,17.1358
23.7642,17.3439
23.7642,17.3439
23.6708,17.5694
23.6708,17.5694
23.6139,17.8067
23.5947,18.0500
23.6139,18.2933
23.6708,18.5306
23.6708,18.5306
23.7642,18.7561
23.7642,18.7561
23.8917,18.9642
24.0553,19.1557
24.0543,19.1566
24.0966,19.2240
24.1078,19.2896
24.1078,19.3502
24.0881,19.4365
24.0546,19.4837
24.0553,19.4843
24.0502,19.4902
24.0502,19.4902
24.0200,19.5257
23.8917,19.6758
23.7642,19.8839
23.7642,19.8839
23.6708,20.1094
23.6708,20.1094
23.6139,20.3467
23.5947,20.5900
23.6139,20.8333
23.6708,21.0706
23.6708,21.0706
23.7642,21.2961
23.7642,21.2961
23.8917,21.5042
23.9417,21.5626
24.0386,21.6761
24.0502,21.6898
24.0506,21.6901
24.0507,21.6903
24.0553,21.6957
24.0545,21.6964
24.0977,21.7651
24.1089,21.8307
24.1089,21.8891
24.0892,21.9754
24.0549,22.0239
24.0553,22.0243
24.0509,22.0295
24.0506,22.0299
24.0502,22.0302
23.8917,22.2158
23.7642,22.4239
23.7642,22.4239
23.6708,22.6494
23.6708,22.6494
23.6139,22.8867
23.5947,23.1300
23.6139,23.3733
23.6708,23.6106
23.6708,23.6106
23.6928,23.6636
23.7076,23.7509
23.6831,23.8360
23.6241,23.9020
23.5422,23.9359
23.4538,23.9309
23.3763,23.8881
23.3682,23.8804
21.7921,22.3043
21.7250,22.2555
21.6392,22.1932
21.5974,22.1720
21.4708,22.1075
21.4708,22.1075
21.2911,22.0491
21.2911,22.0491
21.1045,22.0195
20.1845,22.0195
20.0981,21.9998
20.0289,21.9446
19.9905,21.8648
19.9905,21.7762
20.0289,21.6964
20.0981,21.6412
20.1380,21.6270
20.1522,21.6236
20.1706,21.6192
20.3961,21.5258
20.4287,21.5058
20.5126,21.4775
20.5282,21.4765
20.8180,21.4700
20.8169,21.2824
20.8362,21.1960
20.8646,21.1521
20.9483,21.0542
21.0758,20.8461
21.0811,20.8333
21.1692,20.6206
21.1692,20.6206
21.1692,20.6206
21.2261,20.3833
21.2453,20.1400
21.2261,19.8967
21.2231,19.8839
21.2034,19.8020
21.1692,19.6594
21.1349,19.5765
21.0758,19.4339
21.0758,19.4339
20.9516,19.2313
20.9483,19.2258
20.9483,19.2258
20.9483,19.2258
20.8522,19.1133
20.8111,19.0348
20.8045,18.9851
20.8044,18.9763
20.7896,16.2345
20.8088,16.1480
20.8372,16.1042
20.9483,15.9742
21.0758,15.7661
21.0811,15.7533
21.1692,15.5406
21.1692,15.5406
21.1692,15.5406
21.2261,15.3033
21.2453,15.0600
21.2261,14.8167
21.2231,14.8039
21.2038,14.7235
21.1692,14.5794
21.1692,14.5794
21.0758,14.3539
21.0758,14.3539
20.9483,14.1458
20.8244,14.0008
20.7834,13.9224
20.7768,13.8727
20.7759,13.7105
20.7951,13.6241
20.8236,13.5802
20.9483,13.4342
21.0758,13.2261
21.0811,13.2133
21.1692,13.0006
21.1692,13.0006
21.1692,13.0006
21.2261,12.7633
21.2453,12.5200
21.2261,12.2767
21.2231,12.2639
21.1907,12.1292
21.1692,12.0394
21.1677,12.0358
21.0758,11.8139
21.0758,11.8139
20.9483,11.6058
20.8106,11.4446
20.7695,11.3662
20.7629,11.3165
20.7622,11.1865
20.7814,11.1001
20.8099,11.0562
20.9037,10.9464
20.9483,10.8942
21.0758,10.6861
21.0811,10.6733
21.1692,10.4606
21.1692,10.4606
21.1692,10.4606
21.2261,10.2233
21.2453,9.9800
21.2261,9.7367
21.2259,9.7358
21.2038,9.6435
21.1692,9.4994
21.1536,9.4618
21.0758,9.2739
21.0758,9.2739
20.9483,9.0658
20.7967,8.8884
20.7556,8.8099
20.7490,8.7602
20.7485,8.6625
20.7678,8.5761
20.7962,8.5322
20.8252,8.4982
20.9483,8.3542
21.0758,8.1461
21.0811,8.1333
21.1692,7.9206
21.1692,7.9206
21.1692,7.9206
21.2261,7.6833
21.2453,7.4400
21.2261,7.1967
21.2231,7.1839
21.2038,7.1035
21.1692,6.9594
21.1360,6.8794
21.0758,6.7339
21.0758,6.7339
20.9483,6.5258
20.7847,6.3343
20.7865,6.3328
20.7464,6.2690
20.7352,6.2043
20.7348,6.1382
20.7541,6.0517
20.7859,6.0067
20.7847,6.0057
20.9483,5.8142
20.9483,5.8142
21.0758,5.6061
21.0811,5.5933
21.1692,5.3806
21.1692,5.3806
21.1692,5.3806
21.2261,5.1433
21.2453,4.9000
21.2261,4.6567
21.2231,4.6439
21.1907,4.5092
21.1692,4.4194
21.1692,4.4194
21.0758,4.1939
21.0758,4.1939
20.9598,4.0047
20.9483,3.9858
20.9483,3.9858
20.9483,3.9858
20.8727,3.8973
20.7898,3.8002
20.7898,3.8002
20.7842,3.7947
20.7853,3.7936
20.7383,3.7303
20.7213,3.6512
20.7212,3.6250
20.7211,3.6112
20.7404,3.5247
20.7852,3.4662
20.7842,3.4653
20.7898,3.4598
20.7898,3.4598
20.7898,3.4598
20.9483,3.2742
21.0758,3.0661
21.0907,3.0300
21.1692,2.8406
21.1692,2.8406
21.1692,2.8406
21.2261,2.6033
21.2453,2.3600
21.2261,2.1167
21.2259,2.1158
21.1997,2.0066
21.1692,1.8794
21.1246,1.7717
21.0758,1.6539
21.0758,1.6539
20.9509,1.4502
20.9483,1.4458
20.9483,1.4458
20.9483,1.4458
20.7898,1.2602
20.7898,1.2602
20.7898,1.2602
20.7734,1.2463
20.7597,1.2334
20.6909,1.1624
20.6789,1.1592
20.6426,1.1345
20.6042,1.1017
20.3961,0.9742
20.3961,0.9742
20.1706,0.8808
20.1706,0.8808
20.1706,0.8808
19.9333,0.8239
19.6900,0.8047
19.4467,0.8239
19.2094,0.8808
19.2094,0.8808
18.9839,0.9742
18.9839,0.9742
18.8162,1.0770
18.7323,1.1053
18.7049,1.1062
18.5380,1.1000
18.5380,1.1000
18.5383,1.2471
18.5188,1.3335
18.4906,1.3769
18.4317,1.4458
18.3042,1.6539
18.3042,1.6539
18.2108,1.8794
18.2108,1.8794
18.1539,2.1167
18.1347,2.3600
18.1539,2.6033
18.2108,2.8406
18.2108,2.8406
18.3042,3.0661
18.3042,3.0661
18.4317,3.2742
18.4961,3.3495
18.5372,3.4280
18.5438,3.4783
18.5445,3.7799
18.5250,3.8663
18.4968,3.9096
18.4317,3.9858
18.3042,4.1939
18.3042,4.1939
18.2108,4.4194
18.2108,4.4194
18.1539,4.6567
18.1347,4.9000
18.1539,5.1433
18.2108,5.3806
18.2108,5.3806
18.3042,5.6061
18.3042,5.6061
18.4047,5.7701
18.4317,5.8142
18.5023,5.8968
18.5434,5.9753
18.5500,6.0256
18.5507,6.3126
18.5312,6.3990
18.5030,6.4423
18.4847,6.4638
18.4137,6.5166
18.3267,6.5334
18.2411,6.5108
18.1737,6.4533
18.1724,6.4515
18.1683,6.4458
18.1683,6.4458
18.1683,6.4458
18.0098,6.2602
17.8242,6.1017
17.6161,5.9742
17.6161,5.9742
17.3906,5.8808
17.3906,5.8808
17.3906,5.8808
17.1533,5.8239
16.9100,5.8047
16.6667,5.8239
16.4294,5.8808
16.4294,5.8808
16.2039,5.9742
16.2039,5.9742
15.9958,6.1017
15.8102,6.2602
15.6517,6.4458
15.5242,6.6539
15.5242,6.6539
15.4308,6.8794
15.4308,6.8794
15.3739,7.1167
15.3547,7.3600
15.3739,7.6033
15.4308,7.8406
15.4308,7.8406
15.5242,8.0661
15.5242,8.0661
15.6517,8.2742
15.6618,8.2860
15.7029,8.3644
15.7095,8.4152
15.7095,9.3063
15.6898,9.3926
15.6346,9.4618
15.5548,9.5003
15.4662,9.5003
15.3864,9.4618
15.3813,9.4576
15.3042,9.3917
15.3042,9.3917
15.2112,9.3348
15.0961,9.2642
15.0961,9.2642
14.8706,9.1708
14.8706,9.1708
14.8706,9.1708
14.6333,9.1139
14.3900,9.0947
14.1467,9.1139
13.9094,9.1708
13.9094,9.1708
13.6839,9.2642
13.6839,9.2642
13.4758,9.3917
13.2902,9.5502
13.1317,9.7358
13.0042,9.9439
13.0042,9.9439
12.9108,10.1694
12.9108,10.1694
12.8539,10.4067
12.8347,10.6500
12.8539,10.8933
12.9108,11.1306
12.9108,11.1306
13.0042,11.3561
13.0042,11.3561
13.1317,11.5642
13.2902,11.7498
13.4758,11.9083
13.6839,12.0358
13.6839,12.0358
13.9094,12.1292
13.9094,12.1292
13.9094,12.1292
14.1467,12.1861
14.1467,12.1861
14.1544,12.1874
14.1541,12.1895
14.2267,12.2122
14.2914,12.2727
14.3235,12.3552
14.3166,12.4435
14.2720,12.5201
14.2673,12.5249
14.1343,12.6579
14.0442,12.7820
14.0442,12.7820
14.0232,12.8108
13.9850,12.8859
13.9282,12.9539
13.8476,12.9905
13.7590,12.9886
13.7173,12.9729
13.6176,12.9221
13.6176,12.9221
13.4080,12.8540
13.4079,12.8540
13.1902,12.8195
9.4995,12.8195
9.4132,12.7998
9.3439,12.7446
9.3055,12.6648
9.3005,12.6205
9.3005,11.4820
9.2965,11.4518
9.2697,11.2480
9.2086,11.0200
9.1183,10.8020
9.0337,10.6554
9.0182,10.6216
8.9758,10.5005
8.9507,10.4606
8.8798,10.3477
8.8798,10.3477
8.8798,10.3477
8.7523,10.2202
8.7523,10.2202
8.7523,10.2202
8.5995,10.1242
8.5995,10.1242
8.4784,10.0818
8.4446,10.0663
8.4056,10.0438
8.2980,9.9817
8.0800,9.8914
8.0800,9.8914
8.0800,9.8914
7.9660,9.8608
7.8520,9.8303
7.6180,9.7995
7.3820,9.7995
7.1480,9.8303
7.1480,9.8303
7.1480,9.8303
6.9200,9.8914
6.7020,9.9817
6.5554,10.0663
6.5216,10.0818
6.4005,10.1242
6.4005,10.1242
6.2477,10.2202
6.1202,10.3477
6.0242,10.5005
6.0242,10.5005
5.9818,10.6216
5.9663,10.6554
5.8817,10.8020
5.7914,11.0200
5.7603,11.1361
5.7303,11.2480
5.6995,11.4820
5.6995,13.6680
5.7006,13.6761
5.7278,13.8830
5.7295,13.9089
5.7295,14.8880
5.7299,14.8945
5.7288,14.8946
5.7212,14.9760
5.6755,15.0518
5.6014,15.1003
5.5136,15.1119
5.4560,15.0976
5.2706,15.0208
5.2706,15.0208
5.2706,15.0208
5.0333,14.9639
4.7900,14.9447
4.5467,14.9639
4.3094,15.0208
4.3094,15.0208
4.0839,15.1142
4.0839,15.1142
3.8758,15.2417
3.8734,15.2438
3.8719,15.2446
3.8695,15.2463
3.8692,15.2460
3.7949,15.2849
3.7064,15.2879
3.6254,15.2521
3.5679,15.1848
3.5507,15.1389
3.5292,15.0494
3.5209,15.0294
3.4358,14.8239
3.4358,14.8239
3.3083,14.6158
3.1607,14.4430
3.1196,14.3646
3.1130,14.3131
3.1134,14.2050
3.1334,14.1187
3.1611,14.0765
3.3083,13.9042
3.4358,13.6961
3.5292,13.4706
3.5861,13.2333
3.6053,12.9900
3.5861,12.7467
3.5813,12.7267
3.5558,12.6205
3.5292,12.5094
3.5292,12.5094
3.4358,12.2839
3.4358,12.2839
3.3083,12.0758
3.1702,11.9141
3.1291,11.8357
3.1225,11.7841
3.1226,11.7498
3.1230,11.6538
3.1430,11.5675
3.1706,11.5253
3.3083,11.3642
3.4358,11.1561
3.5292,10.9306
3.5861,10.6933
3.6053,10.4500
3.5861,10.2067
3.5813,10.1867
3.5562,10.0818
3.5292,9.9694
3.5292,9.9694
3.4358,9.7439
3.4358,9.7439
3.3419,9.5907
3.3083,9.5358
3.3083,9.5358
3.3083,9.5358
3.2191,9.4315
3.1796,9.3852
3.1385,9.3068
3.1320,9.2552
3.1325,9.1026
3.1526,9.0163
3.1802,8.9741
3.1812,8.9730
3.3083,8.8242
3.4358,8.6161
3.4526,8.5754
3.5292,8.3906
3.5292,8.3906
3.5292,8.3906
3.5861,8.1533
3.6053,7.9100
3.5861,7.6667
3.5813,7.6467
3.5638,7.5735
3.5292,7.4294
3.5209,7.4094
3.4358,7.2039
3.4358,7.2039
3.3083,6.9958
3.2088,6.8794
3.1891,6.8563
3.1480,6.7779
3.1414,6.7263
3.1421,6.5514
3.1621,6.4651
3.1898,6.4229
3.3083,6.2842
3.4358,6.0761
3.5292,5.8506
3.5861,5.6133
3.6053,5.3700
3.5861,5.1267
3.5813,5.1067
3.5638,5.0335
3.5292,4.8894
3.5292,4.8894
3.4358,4.6639
3.4358,4.6639
3.3083,4.4558
3.3037,4.4495
3.3055,4.4481
3.2705,4.3813
3.2676,4.2928
3.3033,4.2118
3.3222,4.1898
3.4298,4.0823
3.5258,3.9295
3.5854,3.7593
3.6005,3.6250
3.6005,3.0300
12.8347,3.0300
12.8539,3.2733
12.9108,3.5106
12.9108,3.5106
13.0042,3.7361
13.0042,3.7361
13.1317,3.9442
13.2902,4.1298
13.4758,4.2883
13.4758,4.2883
13.4758,4.2883
13.4840,4.2933
13.6839,4.4158
13.6839,4.4158
13.9094,4.5092
13.9094,4.5092
13.9094,4.5092
14.0535,4.5438
14.1467,4.5661
14.1467,4.5661
14.1467,4.5661
14.3900,4.5853
14.6333,4.5661
14.6333,4.5661
14.6333,4.5661
14.6757,4.5560
14.8706,4.5092
15.0180,4.4481
15.0961,4.4158
15.0961,4.4158
15.1523,4.3813
15.3042,4.2883
15.4898,4.1298
15.6483,3.9442
15.7758,3.7361
15.8692,3.5106
15.9259,3.2742
15.9261,3.2733
15.9261,3.2733
15.9261,3.2733
15.9453,3.0300
15.9261,2.7867
15.8692,2.5494
15.8692,2.5494
15.7758,2.3239
15.7758,2.3239
15.6483,2.1158
15.4898,1.9302
15.3042,1.7717
15.0961,1.6442
15.0961,1.6442
14.8706,1.5508
14.8706,1.5508
14.8706,1.5508
14.6333,1.4939
14.3900,1.4747
14.1467,1.4939
13.9094,1.5508
13.9094,1.5508
13.6839,1.6442
13.6839,1.6442
13.4758,1.7717
13.2902,1.9302
13.1317,2.1158
13.0042,2.3239
13.0042,2.3239
12.9108,2.5494
12.9108,2.5494
12.8539,2.7867
12.8347,3.0300
3.6005,3.0300
3.6005,2.0350
3.5854,1.9007
3.5258,1.7305
3.4298,1.5777
3.4298,1.5777
3.4298,1.5777
3.3023,1.4502
3.3023,1.4502
3.3023,1.4502
3.1495,1.3542
3.1495,1.3542
3.1495,1.3542
2.9793,1.2946
2.9793,1.2946
2.9793,1.2946
2.8450,1.2795
1.2550,1.2795
1.1207,1.2946
1.1207,1.2946
1.1207,1.2946
0.9505,1.3542
0.9505,1.3542
0.7977,1.4502
0.6702,1.5777
0.6147,1.6661
0.5521,1.7287
0.4685,1.7579
0.3805,1.7480
0.3055,1.7009
0.2584,1.6259
0.2472,1.5598
0.2496,0.4086
0.2695,0.3223
0.3248,0.2532
0.4047,0.2149
0.4486,0.2100
26.9006,0.2100
Z" /> 
<path style="fill:#000000; fill-opacity:1.0000; stroke:none;fill-rule:evenodd;"
d="M 26.9461,20.7928
27.0147,20.8488
27.0522,20.9290
27.0567,20.9715
27.0530,22.7340
27.0331,22.8203
26.9778,22.8894
26.8979,22.9277
26.8093,22.9275
26.7296,22.8889
26.6746,22.8195
26.6605,22.7800
26.6292,22.6494
26.6292,22.6494
26.5358,22.4239
26.5358,22.4239
26.4083,22.2158
26.3011,22.0903
26.2600,22.0119
26.2534,21.9612
26.2534,21.9444
26.2533,21.7592
26.2729,21.6729
26.3009,21.6298
26.4083,21.5042
26.5358,21.2961
26.6292,21.0706
26.6642,20.9247
26.7035,20.8453
26.7734,20.7909
26.8599,20.7721
Z" /> 
<path style="fill:#000000; fill-opacity:1.0000; stroke:none;fill-rule:evenodd;"
d="M 0.4499,21.0169
0.5296,21.0555
0.5847,21.1248
0.5891,21.1346
0.6642,21.3161
0.6642,21.3161
0.7917,21.5242
0.9300,21.6861
0.9711,21.7645
0.9777,21.8152
0.9778,21.9444
0.9582,22.0307
0.9301,22.0738
0.7917,22.2358
0.6642,22.4439
0.6642,22.4439
0.5863,22.6321
0.5350,22.7044
0.4575,22.7472
0.3691,22.7522
0.2873,22.7183
0.2282,22.6522
0.2037,22.5671
0.2034,22.5556
0.2062,21.2104
0.2261,21.1241
0.2815,21.0549
0.3613,21.0167
Z" /> 
<path style="fill:#000000; fill-opacity:1.0000; stroke:none;fill-rule:evenodd;"
d="M 26.9514,18.2306
27.0200,18.2866
27.0575,18.3668
27.0621,18.4093
27.0583,20.2158
27.0384,20.3021
26.9830,20.3713
26.9032,20.4095
26.8146,20.4094
26.7349,20.3708
26.6798,20.3014
26.6658,20.2619
26.6292,20.1094
26.6292,20.1094
26.6292,20.1094
26.5358,19.8839
26.5358,19.8839
26.4083,19.6758
26.2994,19.5484
26.2583,19.4699
26.2517,19.4192
26.2516,19.2212
26.2712,19.1348
26.2993,19.0918
26.4083,18.9642
26.5358,18.7561
26.6292,18.5306
26.6630,18.3898
26.6696,18.3624
26.7089,18.2831
26.7787,18.2286
26.8653,18.2099
Z" /> 
<path style="fill:#000000; fill-opacity:1.0000; stroke:none;fill-rule:evenodd;"
d="M 0.4552,18.4896
0.5349,18.5282
0.5900,18.5975
0.5943,18.6074
0.6642,18.7761
0.6642,18.7761
0.7917,18.9842
0.9278,19.1435
0.9689,19.2219
0.9755,19.2725
0.9756,19.4070
0.9560,19.4933
0.9279,19.5364
0.7917,19.6958
0.6642,19.9039
0.6642,19.9039
0.5916,20.0793
0.5403,20.1515
0.4628,20.1944
0.3744,20.1993
0.2926,20.1654
0.2336,20.0994
0.2090,20.0143
0.2087,20.0027
0.2115,18.6831
0.2314,18.5968
0.2867,18.5277
0.3666,18.4894
Z" /> 
<path style="fill:#000000; fill-opacity:1.0000; stroke:none;fill-rule:evenodd;"
d="M 26.9567,15.6683
27.0254,15.7243
27.0629,15.8045
27.0674,15.8470
27.0635,17.6977
27.0436,17.7840
26.9883,17.8531
26.9084,17.8914
26.8198,17.8912
26.7401,17.8526
26.6851,17.7833
26.6710,17.7438
26.6292,17.5694
26.6292,17.5694
26.5358,17.3439
26.5358,17.3439
26.4279,17.1679
26.4083,17.1358
26.4083,17.1358
26.4083,17.1358
26.2977,17.0064
26.2566,16.9279
26.2500,16.8773
26.2500,16.8696
26.2499,16.6831
26.2696,16.5968
26.2976,16.5538
26.4083,16.4242
26.5358,16.2161
26.5591,16.1598
26.6292,15.9906
26.6292,15.9906
26.6292,15.9906
26.6749,15.8002
26.7142,15.7208
26.7841,15.6664
26.8706,15.6476
Z" /> 
<path style="fill:#000000; fill-opacity:1.0000; stroke:none;fill-rule:evenodd;"
d="M 0.4604,15.9623
0.5402,16.0009
0.5952,16.0703
0.5996,16.0801
0.6642,16.2361
0.6642,16.2361
0.7917,16.4442
0.9255,16.6008
0.9666,16.6793
0.9732,16.7299
0.9733,16.8696
0.9537,16.9560
0.9257,16.9990
0.7917,17.1558
0.6642,17.3639
0.6642,17.3639
0.5969,17.5264
0.5457,17.5987
0.4681,17.6415
0.3797,17.6465
0.2979,17.6126
0.2389,17.5465
0.2144,17.4614
0.2141,17.4499
0.2168,16.1558
0.2366,16.0695
0.2920,16.0004
0.3719,15.9621
Z" /> 
<path style="fill:#000000; fill-opacity:1.0000; stroke:none;fill-rule:evenodd;"
d="M 26.9621,13.1061
27.0307,13.1621
27.0682,13.2423
27.0727,13.2848
27.0688,15.1796
27.0489,15.2659
26.9935,15.3350
26.9137,15.3733
26.8251,15.3731
26.7454,15.3345
26.6903,15.2651
26.6763,15.2256
26.6292,15.0294
26.6292,15.0294
26.6292,15.0294
26.5358,14.8039
26.5358,14.8039
26.4083,14.5958
26.2960,14.4644
26.2549,14.3860
26.2484,14.3353
26.2484,14.3322
26.2482,14.1451
26.2679,14.0587
26.2959,14.0157
26.4083,13.8842
26.5358,13.6761
26.5591,13.6198
26.6292,13.4506
26.6292,13.4506
26.6292,13.4506
26.6690,13.2848
26.6802,13.2379
26.7196,13.1586
26.7894,13.1041
26.8760,13.0854
Z" /> 
<path style="fill:#000000; fill-opacity:1.0000; stroke:none;fill-rule:evenodd;"
d="M 0.4657,13.4350
0.5454,13.4736
0.6005,13.5430
0.6049,13.5528
0.6362,13.6285
0.6642,13.6961
0.6642,13.6961
0.7917,13.9042
0.8396,13.9602
0.9082,14.0406
0.9233,14.0582
0.9644,14.1367
0.9710,14.1873
0.9711,14.3322
0.9515,14.4186
0.9234,14.4616
0.7917,14.6158
0.6642,14.8239
0.6642,14.8239
0.6022,14.9736
0.5510,15.0458
0.4735,15.0886
0.3850,15.0936
0.3032,15.0597
0.2442,14.9937
0.2197,14.9086
0.2194,14.8970
0.2220,13.6285
0.2419,13.5422
0.2973,13.4731
0.3771,13.4349
Z" /> 
<path style="fill:#000000; fill-opacity:1.0000; stroke:none;fill-rule:evenodd;"
d="M 26.9674,10.5438
27.0360,10.5998
27.0736,10.6800
27.0781,10.7225
27.0740,12.6615
27.0541,12.7478
26.9988,12.8169
26.9189,12.8551
26.8304,12.8550
26.7506,12.8164
26.6956,12.7470
26.6815,12.7075
26.6292,12.4894
26.5890,12.3924
26.5358,12.2639
26.5358,12.2639
26.4083,12.0558
26.3342,11.9691
26.2944,11.9225
26.2533,11.8440
26.2467,11.7934
26.2466,11.6071
26.2662,11.5207
26.2942,11.4777
26.4083,11.3442
26.5358,11.1361
26.5492,11.1037
26.6292,10.9106
26.6292,10.9106
26.6292,10.9106
26.6856,10.6757
26.7249,10.5963
26.7948,10.5419
26.8813,10.5231
Z" /> 
<path style="fill:#000000; fill-opacity:1.0000; stroke:none;fill-rule:evenodd;"
d="M 0.4710,10.9078
0.5507,10.9464
0.6058,11.0157
0.6101,11.0255
0.6642,11.1561
0.6642,11.1561
0.7917,11.3642
0.9211,11.5156
0.9621,11.5940
0.9687,11.6447
0.9689,11.7948
0.9492,11.8812
0.9212,11.9243
0.7917,12.0758
0.6642,12.2839
0.6642,12.2839
0.6076,12.4207
0.5563,12.4930
0.4788,12.5358
0.3904,12.5408
0.3085,12.5069
0.2495,12.4408
0.2250,12.3557
0.2247,12.3442
0.2273,11.1013
0.2472,11.0150
0.3025,10.9458
0.3824,10.9076
Z" /> 
<path style="fill:#000000; fill-opacity:1.0000; stroke:none;fill-rule:evenodd;"
d="M 26.9438,7.9601
27.0203,8.0047
27.0700,8.0780
27.0834,8.1505
27.0793,10.1433
27.0594,10.2296
27.0040,10.2988
26.9242,10.3370
26.8356,10.3368
26.7559,10.2982
26.7008,10.2289
26.6868,10.1894
26.6340,9.9694
26.6292,9.9494
26.6269,9.9439
26.5358,9.7239
26.5358,9.7239
26.4083,9.5158
26.2927,9.3805
26.2516,9.3020
26.2450,9.2514
26.2449,9.0690
26.2645,8.9827
26.2926,8.9397
26.4083,8.8042
26.5358,8.5961
26.5591,8.5398
26.6251,8.3805
26.6292,8.3706
26.6861,8.1333
26.6861,8.1333
26.6874,8.1256
26.6888,8.1258
26.7125,8.0499
26.7729,7.9852
26.8555,7.9532
Z" /> 
<path style="fill:#000000; fill-opacity:1.0000; stroke:none;fill-rule:evenodd;"
d="M 0.4762,8.3805
0.5560,8.4191
0.6110,8.4884
0.6154,8.4982
0.6642,8.6161
0.6642,8.6161
0.7917,8.8242
0.9188,8.9730
0.9599,9.0514
0.9665,9.1020
0.9666,9.2575
0.9470,9.3438
0.9190,9.3869
0.7917,9.5358
0.6642,9.7439
0.6642,9.7439
0.6129,9.8679
0.5616,9.9401
0.4841,9.9829
0.3957,9.9879
0.3139,9.9540
0.2549,9.8880
0.2303,9.8029
0.2300,9.7913
0.2306,9.5358
0.2326,8.5740
0.2524,8.4877
0.3078,8.4186
0.3877,8.3803
Z" /> 
<path style="fill:#000000; fill-opacity:1.0000; stroke:none;fill-rule:evenodd;"
d="M 26.9595,3.4790
27.0345,3.5261
27.0816,3.6011
27.0928,3.6672
27.0897,5.1693
27.0698,5.2557
27.0144,5.3248
26.9540,5.3537
27.0258,5.3955
27.0754,5.4689
27.0889,5.5413
27.0845,7.6438
27.0646,7.7301
27.0092,7.7992
26.9294,7.8375
26.8408,7.8373
26.7611,7.7987
26.7060,7.7293
26.6871,7.6590
26.6861,7.6467
26.6292,7.4094
26.6292,7.4094
26.5358,7.1839
26.5358,7.1839
26.4083,6.9758
26.2910,6.8385
26.2499,6.7601
26.2433,6.7094
26.2433,6.6559
26.2432,6.5310
26.2629,6.4446
26.2909,6.4016
26.4083,6.2642
26.5358,6.0561
26.5395,6.0471
26.6292,5.8306
26.6292,5.8306
26.6292,5.8306
26.6861,5.5933
26.6915,5.5253
26.7179,5.4408
26.7784,5.3761
26.8311,5.3556
26.7663,5.3243
26.7112,5.2549
26.6923,5.1845
26.6861,5.1067
26.6292,4.8694
26.6292,4.8694
26.5358,4.6439
26.5358,4.6439
26.4083,4.4358
26.4037,4.4295
26.4055,4.4281
26.3705,4.3613
26.3676,4.2728
26.4033,4.1918
26.4222,4.1698
26.5298,4.0623
26.6258,3.9095
26.6854,3.7393
26.6960,3.6445
26.7253,3.5609
26.7879,3.4983
26.8715,3.4690
Z" /> 
<path style="fill:#000000; fill-opacity:1.0000; stroke:none;fill-rule:evenodd;"
d="M 0.4815,5.8532
0.5612,5.8918
0.6163,5.9612
0.6207,5.9710
0.6642,6.0761
0.6642,6.0761
0.7917,6.2842
0.8345,6.3343
0.9102,6.4229
0.9166,6.4303
0.9577,6.5088
0.9643,6.5594
0.9644,6.7201
0.9448,6.8064
0.9167,6.8495
0.7917,6.9958
0.6642,7.2039
0.6642,7.2039
0.6182,7.3150
0.5669,7.3873
0.4894,7.4301
0.4010,7.4351
0.3192,7.4012
0.2602,7.3351
0.2357,7.2500
0.2353,7.2385
0.2363,6.7779
0.2378,6.0467
0.2577,5.9604
0.3131,5.8913
0.3930,5.8530
Z" /> 
<path style="fill:#000000; fill-opacity:1.0000; stroke:none;fill-rule:evenodd;"
d="M 0.4856,3.8975
0.5653,3.9361
0.6094,3.9855
0.6702,4.0823
0.7777,4.1898
0.8249,4.2648
0.8348,4.3528
0.8055,4.4364
0.7961,4.4493
0.7963,4.4495
0.7917,4.4558
0.6642,4.6639
0.6642,4.6639
0.6235,4.7622
0.5723,4.8344
0.4948,4.8772
0.4063,4.8822
0.3245,4.8483
0.2655,4.7823
0.2410,4.6972
0.2407,4.6856
0.2412,4.4495
0.2419,4.0910
0.2618,4.0047
0.3172,3.9356
0.3970,3.8973
Z" /> 
</g>
<g style="fill:#FFFFFF; fill-opacity:1.0000; stroke:none;">
<circle cx="13.4100" cy="43.5700" r="0.6000" /> 
</g>
<g style="fill:#FFFFFF; fill-opacity:1.0000; stroke:none;">
<circle cx="20.0200" cy="46.7800" r="0.6000" /> 
</g>
<g style="fill:#FFFFFF; fill-opacity:1.0000; stroke:none;">
<circle cx="16.8300" cy="20.1100" r="0.6000" /> 
</g>
<g style="fill:#FFFFFF; fill-opacity:1.0000; stroke:none;">
<circle cx="7.5000" cy="11.6000" r="0.6000" /> 
</g>
<g style="fill:#FFFFFF; fill-opacity:1.0000; stroke:none;">
<circle cx="10.0400" cy="11.6000" r="0.6000" /> 
</g>
<g style="fill:#FFFFFF; fill-opacity:1.0000; stroke:none;">
<circle cx="19.6900" cy="20.1400" r="0.6000" /> 
</g>
<g style="fill:#FFFFFF; fill-opacity:1.0000; stroke:none;">
<circle cx="19.6900" cy="17.6000" r="0.6000" /> 
</g>
<g style="fill:#FFFFFF; fill-opacity:1.0000; stroke:none;">
<circle cx="19.6900" cy="15.0600" r="0.6000" /> 
</g>
<g style="fill:#FFFFFF; fill-opacity:1.0000; stroke:none;">
<circle cx="19.6900" cy="12.5200" r="0.6000" /> 
</g>
<g style="fill:#FFFFFF; fill-opacity:1.0000; stroke:none;">
<circle cx="19.6900" cy="9.9800" r="0.6000" /> 
</g>
<g style="fill:#FFFFFF; fill-opacity:1.0000; stroke:none;">
<circle cx="19.6900" cy="7.4400" r="0.6000" /> 
</g>
<g style="fill:#FFFFFF; fill-opacity:1.0000; stroke:none;">
<circle cx="19.6900" cy="4.9000" r="0.6000" /> 
</g>
<g style="fill:#FFFFFF; fill-opacity:1.0000; stroke:none;">
<circle cx="19.6900" cy="2.3600" r="0.6000" /> 
</g>
<g style="fill:#FFFFFF; fill-opacity:1.0000; stroke:none;">
<circle cx="20.8000" cy="33.9800" r="0.6000" /> 
</g>
<g style="fill:#FFFFFF; fill-opacity:1.0000; stroke:none;">
<circle cx="20.8000" cy="26.3600" r="0.6000" /> 
</g>
<g style="fill:#FFFFFF; fill-opacity:1.0000; stroke:none;">
<circle cx="8.5600" cy="33.6100" r="0.6000" /> 
</g>
<g style="fill:#FFFFFF; fill-opacity:1.0000; stroke:none;">
<circle cx="8.5600" cy="41.2300" r="0.6000" /> 
</g>
<g style="fill:#FFFFFF; fill-opacity:1.0000; stroke:none;">
<circle cx="18.9700" cy="41.6400" r="0.6000" /> 
</g>
<g style="fill:#FFFFFF; fill-opacity:1.0000; stroke:none;">
<circle cx="11.3500" cy="41.6400" r="0.6000" /> 
</g>
<g style="fill:#FFFFFF; fill-opacity:1.0000; stroke:none;">
<circle cx="4.7900" cy="16.5000" r="0.6000" /> 
</g>
<g style="fill:#FFFFFF; fill-opacity:1.0000; stroke:none;">
<circle cx="12.4100" cy="16.5000" r="0.6000" /> 
</g>
<g style="fill:#FFFFFF; fill-opacity:1.0000; stroke:none;">
<circle cx="14.3900" cy="3.0300" r="0.6000" /> 
</g>
<g style="fill:#FFFFFF; fill-opacity:1.0000; stroke:none;">
<circle cx="14.3900" cy="10.6500" r="0.6000" /> 
</g>
<g style="fill:#FFFFFF; fill-opacity:1.0000; stroke:none;">
<circle cx="2.0500" cy="2.8300" r="0.6000" /> 
</g>
<g style="fill:#FFFFFF; fill-opacity:1.0000; stroke:none;">
<circle cx="2.0500" cy="5.3700" r="0.6000" /> 
</g>
<g style="fill:#FFFFFF; fill-opacity:1.0000; stroke:none;">
<circle cx="2.0500" cy="7.9100" r="0.6000" /> 
</g>
<g style="fill:#FFFFFF; fill-opacity:1.0000; stroke:none;">
<circle cx="2.0500" cy="10.4500" r="0.6000" /> 
</g>
<g style="fill:#FFFFFF; fill-opacity:1.0000; stroke:none;">
<circle cx="2.0500" cy="12.9900" r="0.6000" /> 
</g>
<g style="fill:#FFFFFF; fill-opacity:1.0000; stroke:none;">
<circle cx="2.0500" cy="15.5300" r="0.6000" /> 
</g>
<g style="fill:#FFFFFF; fill-opacity:1.0000; stroke:none;">
<circle cx="2.0500" cy="18.0700" r="0.6000" /> 
</g>
<g style="fill:#FFFFFF; fill-opacity:1.0000; stroke:none;">
<circle cx="2.0500" cy="20.6100" r="0.6000" /> 
</g>
<g style="fill:#FFFFFF; fill-opacity:1.0000; stroke:none;">
<circle cx="2.0500" cy="23.1500" r="0.6000" /> 
</g>
<g style="fill:#FFFFFF; fill-opacity:1.0000; stroke:none;">
<circle cx="2.0500" cy="25.6900" r="0.6000" /> 
</g>
<g style="fill:#FFFFFF; fill-opacity:1.0000; stroke:none;">
<circle cx="2.0500" cy="28.2300" r="0.6000" /> 
</g>
<g style="fill:#FFFFFF; fill-opacity:1.0000; stroke:none;">
<circle cx="2.0500" cy="30.7700" r="0.6000" /> 
</g>
<g style="fill:#FFFFFF; fill-opacity:1.0000; stroke:none;">
<circle cx="2.0500" cy="33.3100" r="0.6000" /> 
</g>
<g style="fill:#FFFFFF; fill-opacity:1.0000; stroke:none;">
<circle cx="2.0500" cy="35.8500" r="0.6000" /> 
</g>
<g style="fill:#FFFFFF; fill-opacity:1.0000; stroke:none;">
<circle cx="2.0500" cy="38.3900" r="0.6000" /> 
</g>
<g style="fill:#FFFFFF; fill-opacity:1.0000; stroke:none;">
<circle cx="2.0500" cy="40.9300" r="0.6000" /> 
</g>
<g style="fill:#FFFFFF; fill-opacity:1.0000; stroke:none;">
<circle cx="2.0500" cy="43.4700" r="0.6000" /> 
</g>
<g style="fill:#FFFFFF; fill-opacity:1.0000; stroke:none;">
<circle cx="2.0500" cy="46.0100" r="0.6000" /> 
</g>
<g style="fill:#FFFFFF; fill-opacity:1.0000; stroke:none;">
<circle cx="16.9100" cy="7.3600" r="0.6000" /> 
</g>
<g style="fill:#FFFFFF; fill-opacity:1.0000; stroke:none;">
<circle cx="16.9100" cy="14.9800" r="0.6000" /> 
</g>
<g style="fill:#FFFFFF; fill-opacity:1.0000; stroke:none;">
<circle cx="13.7800" cy="38.4700" r="0.6000" /> 
</g>
<g style="fill:#FFFFFF; fill-opacity:1.0000; stroke:none;">
<circle cx="13.7800" cy="30.8500" r="0.6000" /> 
</g>
<g style="fill:#FFFFFF; fill-opacity:1.0000; stroke:none;">
<circle cx="7.7059" cy="19.0959" r="0.6000" /> 
</g>
<g style="fill:#FFFFFF; fill-opacity:1.0000; stroke:none;">
<circle cx="13.0941" cy="24.4841" r="0.6000" /> 
</g>
<g style="fill:#FFFFFF; fill-opacity:1.0000; stroke:none;">
<circle cx="5.2859" cy="21.8059" r="0.6000" /> 
</g>
<g style="fill:#FFFFFF; fill-opacity:1.0000; stroke:none;">
<circle cx="10.6741" cy="27.1941" r="0.6000" /> 
</g>
<g style="fill:#FFFFFF; fill-opacity:1.0000; stroke:none;">
<circle cx="25.1500" cy="2.8100" r="0.6000" /> 
</g>
<g style="fill:#FFFFFF; fill-opacity:1.0000; stroke:none;">
<circle cx="25.1500" cy="5.3500" r="0.6000" /> 
</g>
<g style="fill:#FFFFFF; fill-opacity:1.0000; stroke:none;">
<circle cx="25.1500" cy="7.8900" r="0.6000" /> 
</g>
<g style="fill:#FFFFFF; fill-opacity:1.0000; stroke:none;">
<circle cx="25.1500" cy="10.4300" r="0.6000" /> 
</g>
<g style="fill:#FFFFFF; fill-opacity:1.0000; stroke:none;">
<circle cx="25.1500" cy="12.9700" r="0.6000" /> 
</g>
<g style="fill:#FFFFFF; fill-opacity:1.0000; stroke:none;">
<circle cx="25.1500" cy="15.5100" r="0.6000" /> 
</g>
<g style="fill:#FFFFFF; fill-opacity:1.0000; stroke:none;">
<circle cx="25.1500" cy="18.0500" r="0.6000" /> 
</g>
<g style="fill:#FFFFFF; fill-opacity:1.0000; stroke:none;">
<circle cx="25.1500" cy="20.5900" r="0.6000" /> 
</g>
<g style="fill:#FFFFFF; fill-opacity:1.0000; stroke:none;">
<circle cx="25.1500" cy="23.1300" r="0.6000" /> 
</g>
<g style="fill:#FFFFFF; fill-opacity:1.0000; stroke:none;">
<circle cx="25.1500" cy="25.6700" r="0.6000" /> 
</g>
<g style="fill:#FFFFFF; fill-opacity:1.0000; stroke:none;">
<circle cx="25.1500" cy="28.2100" r="0.6000" /> 
</g>
<g style="fill:#FFFFFF; fill-opacity:1.0000; stroke:none;">
<circle cx="25.1500" cy="30.7500" r="0.6000" /> 
</g>
<g style="fill:#FFFFFF; fill-opacity:1.0000; stroke:none;">
<circle cx="25.1500" cy="33.2900" r="0.6000" /> 
</g>
<g style="fill:#FFFFFF; fill-opacity:1.0000; stroke:none;">
<circle cx="25.1500" cy="35.8300" r="0.6000" /> 
</g>
<g style="fill:#FFFFFF; fill-opacity:1.0000; stroke:none;">
<circle cx="25.1500" cy="38.3700" r="0.6000" /> 
</g>
<g style="fill:#FFFFFF; fill-opacity:1.0000; stroke:none;">
<circle cx="25.1500" cy="40.9100" r="0.6000" /> 
</g>
<g style="fill:#FFFFFF; fill-opacity:1.0000; stroke:none;">
<circle cx="25.1500" cy="43.4500" r="0.6000" /> 
</g>
<g style="fill:#FFFFFF; fill-opacity:1.0000; stroke:none;">
<circle cx="25.1500" cy="45.9900" r="0.6000" /> 
</g>
<g style="fill:#FFFFFF; fill-opacity:1.0000; stroke:none;">
<circle cx="17.2900" cy="35.6300" r="0.6000" /> 
</g>
<g style="fill:#FFFFFF; fill-opacity:1.0000; stroke:none;">
<circle cx="17.2900" cy="28.0100" r="0.6000" /> 
</g> 
</svg>
